<?xml version="1.0" encoding="UTF-8"?>
<svg id="Layer_1" xmlns="http://www.w3.org/2000/svg" version="1.1" viewBox="0 0 96.09 94.95">
  <!-- Generator: Adobe Illustrator 30.6.0, SVG Export Plug-In . SVG Version: 2.1.4 Build 109)  -->
  <defs>
    <style>
      .st0 {
        fill: #31b34b;
      }
    </style>
  </defs>
  <path class="st0" d="M79.05,26.94l2.59-3.5,3.82-5.01.48.27c.42,1.31.63,2.51.79,3.92l-.04,57.53c0,4.15-2.04,8.17-5.11,10.85-2.53,2.22-5.8,3.88-9.28,3.88l-57.53.06c-8.09-.35-14.6-6.94-14.78-15.05V23.4c.01-4.5,2.09-8.69,5.49-11.57,2.53-2.15,5.85-3.59,9.27-3.59h57.19c2.35-.01,4.49.74,6.63,1.81l-4.59,4.16-1.9,1.7-57.19.05c-3.7,0-7.17,3.38-7.17,7.09v57.01c0,3.71,3.4,7.17,7.13,7.17h56.99c4.04,0,7.19-3.74,7.19-7.64V26.94Z"/>
  <path class="st0" d="M20.27,42.89c2-2.85,4.41-5.29,7.97-5.67,2.99-.14,5.46,1.37,7.72,3.22l2.28,2.3c2.42,2.74,4.37,5.76,6.09,9.02,1.46-2.83,3.15-5.34,5.03-7.84,2.62-3.48,5.42-6.7,8.34-9.9l1.5-1.61,2.18-2.29,6.15-6.16,2.86-2.74,2.01-1.9c7.16-6.67,14.46-13.06,22.07-19.31l1.63,2.41c-1.96,1.74-3.72,3.57-5.47,5.57-3.64,4.17-7.12,8.42-10.39,12.91l-11.78,16.21c-7.08,10.1-13.96,20.22-20.75,30.58l-9.51,2.11c-1.2-3.45-2.5-6.68-4.11-9.87-2.18-4.29-4.72-8.27-7.92-11.84l-2.21-2.27c-1.09-1.12-2.31-2-3.68-2.92Z"/>
</svg>