<?xml version="1.0" encoding="UTF-8"?>
<svg id="Layer_1" xmlns="http://www.w3.org/2000/svg" version="1.1" viewBox="0 0 634.7 739.67">
  <!-- Generator: Adobe Illustrator 30.6.0, SVG Export Plug-In . SVG Version: 2.1.4 Build 109)  -->
  <path d="M633.55,299.59c-.07-1.7.06-3.32-.43-4.85-.73-2.25-.3-4.21.45-6.29.43-1.2-.18-4.16-1.03-5.16-2.37-2.82-6.02-6.19-8.99-6.99l-8.27-2.23c-4.18-1.13-7.08-2.99-9.48-6.68-.87-1.34-2.49-2.57-3.63-3.72l-7.8-7.79c-1.19-1.19-2.35-3.28-3.83-4.02l-7.8-3.85-12.08-8.85-11.44-8.61-9.14-6.94-17.52-11.9-6.9-4.59-9.12-5.91-10.49-6.54-4.3-3.1-11.01-8-6.54-4.95-6.49-5.03-13.41-8.61-11.6-7.38-15.27-8.85c-5.92-3.43-11.33-6.92-18.12-8.44l-9.35-2.09-4.28-.79-5.5-.22-9.7-.41-8.2-1.23c-2.38-.36-4.06-1.68-6.08-2.99l-6.77-4.4-2.7-3.61.04-20.26c2.58-1.82.63-4.02,3.32-6.84.33-.35,1.45-1.24,1.8-.94l1.61,1.39c.79.68,3.31.1,3.79-.94l1.74-3.75c.8-1.73,1.37-3.08,1.42-5.12l.23-10.98c.05-2.24-3.85-1.05-5.95-2.05l-.17-25.7c-1.14-1.69-1.89-3.62-2.18-5.61l-2.26-3.63-1.95-3.13-1.62-2.85-7.27-5.13-2.11-1.92c-3.11-2.82-6.99-.2-10.66-2.96-1.57-.53-4.51-.86-6.22-.8l-6.63.23c-1.81.02-3.62.8-4.97,1.93-2.58-.1-4.95.05-6.97,1.47l-2.68,1.88c-1.69,1.18-2.89,2.78-4.13,4.3l-4.17,5.1c-.68.83-.84,3.13-1.33,4.06-.77,1.47-1.68,2.49-1.6,4.35.05,1.29-.55,2.34-1.51,3.07-.65,4.88-.71,9.84-.49,14.86l.42,9.76-6.12.48v13.21c1.77,1.44,2,3.4,2.13,5.53,2.25,2.11,1.89,5.38,3.73,4.69.48-.18,1.33-.69,1.81-1.03l1.15-.82c.17-.12.58.48.68.66l1.68,3.38,2.07,4.21,1.75,6.76c1.39,5.35.44,11.38.38,16.86l-2.51,3.16c-3.14,1.26-7.14,2-10.02,3.92-1.74,1.17-2.55,1.61-4.62,2.01-3.21.62-6.04,1-9.26-.19-4.34-1.6-8.68-1.9-13.39-2.16l-5-.27c-6.81.46-13.22.45-19.97-.74-4.69-.83-9.26-.96-14.01-1.15l-7.01-.27c-3.3-.13-6.26-.47-9.51-.95l-20.19-3.02c-6.45-.96-12.49-3.25-18.73-5.2-3.57-1.11-6.64-3.69-9.72-5.67-2.2-.18-4.06-.91-5.89-2.12-2.29-2.55-5.39-3.3-8.22-4.86-4.14-2.29-7.94-4.66-12.16-6.87l-7.42-3.89c-4.44-1.8-8.19-3.98-12.36-6.19l-8.53-4.51-15.58-8.4c-2.01-1.08-3.9-1.77-6.14-2.59-1.81-.67-3.62-2.77-5.23-3.98l-6.32-4.73c-5.31-3.98-9.87-8.32-14.03-13.52-1.81-2.26-3.89-3.48-2.9-7.22.4-1.51-1.21-4.03-1.59-5.42-.62-2.22-.97-3.4-2.17-5.09-.57-.8-1.42-2.36-2.18-2.76-1.9-1.01-2.51-2.4-1.96-4.6l-3.82-3.84c-.54-.55-1.85-1.48-2.54-1.32-1.5.36-3.61,2.4-3.62,2.62l-.27,5.06c-1.24.06-3.8.1-4.75-.53l-4.84-3.19-9.14-5.38c-7.41-4.36-15.68-11.95-19.84-19.19-.27-.48-1.36-1.31-1.78-1.69C7.03,1.43,4.7-.96,1.95.39l-.49,5.03C.97,6.02-.13,7.17.01,7.82c.14.66.71,1.94,1.17,2.58l5.35,7.38,6.27,8.79c.89,1.25,1.62,2.92,2.82,4.04,3.35,3.12,5.63,6.64,8.44,10.08,2.49,3.05,5.32,5.68,8.18,8.39.77.73,2.43,1.53,3.34,2.23,3.36,2.59,5.57,6.31,8.33,9.52l3.76,4.38c4.48,5.22,8.52,10.55,14.1,14.79l2.91,2.63c.83.75,1.47,1.79,2.22,2.75,1.52,1.94,3.31,3.68,5.05,5.49,3.33,3.48,6.57,7.04,9.66,10.72,1.8,2.15-.02,5.52-.84,7.39l-2.04,4.68-1.91,5.52-2.26,6.13-1.64,4.6c-.65,1.82-.28,4.92-.29,7.06l7.99,4.25,9.61,5.33,6.89,4.1,3.3,1.65,4.67,2.36,3.74,1.75,3.59,1.93,10.17,4.96,6.33,3.58,27.52,13.98,4.68,2.42c4.77,2.47,9.63-.33,15.45,6.89,2.7,3.35,6.08,5.28,9.79,7.38,2.13,1.2,4.93.55,7.2,1.37l5.82,2.1,3.38,1.55,4.31,2.22,3.79,1.75,4.58,1.9,6.75,2.31,6.31,1.8,3.27,1.96,3.69,2.01,3.71,2.58c3.07,2.13,5.5,4.63,6.89,8.12l3.32,8.28,6.68,16.18,2.31,6.1,1.96,6.05,1.9,5.59,1.96,5.57,2.25,6.27,1.67,4.25,2.05,5.5,1.52,4.07,4.37,10.05c1.35,4.28.7,9.84-.26,14.18-.45,2.01-1.47,3.79-1.56,5.9-.18,4.43.32,8.96-.28,13.36-.76,5.55-7.01,10.57-8.89,15.14l-1.95,4.74-.95,3.24-1.92,7.67-4.55,13.28-1.41,5.72-2.02,9.1c-1.41,6.37-1.99,12.69.73,19-.43,3.67,1.66,6.63,5.67,7.38l.03,20.28c-1.41,3.73-1.72,7.47-1.67,11.47-.1,3.13.63,5.68,1.34,8.71.58,2.51-.03,5.81.45,8.44l1.52,8.45.29,18.88-1.32,5.06-.51,13.46v5.11s-.31,12.37-.31,12.37l-1.14,13.35-.97,35.05-1.46,8.64-.5,12.95c-.23,5.94-1.62,11.5-1.36,17.53.26,5.84-.64,11.28-1.3,17.07l-.55,4.89-.22,18.06-1.41,10.42c-.94,6.98,2.82,19.77,8.48,24.61.96.82,2.92,1.49,2.94,2.73.02,1.32-.66,2.68-1.65,3.27l-3.96,2.33c-1.43.84-3.36,3.52-4.21,4.91l-1.61,2.62-2.06,2.74-1.97,3.28-2.15,3.73c-.31,2.8-.69,6.54.16,8.99.78,2.26,1.81,3.72,1.52,6.41l34.82-.03,1.76-2.58,2.17-3.19,1.88-3.32c.44-.78.59-2.71.72-3.73,3.55-3.36.02-7.2,3.41-9.69l.63-4.18c1.44-.86,1.96-2.2,1.65-3.97,1.79-1.57,2.21-3.74,2.2-6.16,1.56-1.64,2.05-3.83,2.16-5.89l2.07-3,1.78-2.69,3.08-4.46,1.85-3.47,2.07-5.11c.9-2.22.55-6.75,0-9.15l-1.41-6.07c-.54-2.31-.5-4.57-1.28-6.81-.65-1.86-.05-3.28.42-5.22l1.55-6.38c.35-1.45,1.15-2.49,1.25-3.91.12-1.79.62-2.87,1.59-4.47l.56-5.68c.8-1.31,1.71-2.9,1.67-4.33-.08-2.86.91-4.85,1.62-7.43l.79-14.92c.09-1.76,1.37-3.53,1.44-5.42l.4-11.06,1.44-4.24c-1.2-2.56-1.82-5.18-1.7-8.03.09-2.22-.29-5.27.35-7.2.81-2.43,1.98-4.15,1.66-6.8-.29-2.37.53-4.29,1.62-6.27l1.96-3.56,1.76-2.76,1.96-3.89,2.2-6.06,1.53-4.21,2.23-7.87,1.05-9.69c.71-2.11,1.31-3.88,1.29-6.15-.05-4.74.07-9.06-1.02-13.61-1.08-4.53-1.42-10.02-.18-14.61l1.62-5.98c.58-2.13,1.78-3.88,1.57-6.36-.13-1.56.8-2.93,1.84-4.26l.42-7.57c.02-.33,1.18-.82,1.23-.52l.15,1.03,1.85,6.04c1.22,4,.11,8.6.57,12.74.35,3.15.18,5.93,0,9.11l-.41,7.25-1.35,3.77.06,17.96,1.42,4.93c.13,3.13.23,5.88.97,8.69l1.4,5.3,2.27,6.51,2.26,5.35c.62,1.46,2.33,3.52,2.62,5.16.6,3.33,1,7.49.04,10.6-.97,3.13-2.28,5.56-.91,9.05,1.17,2.97,1.65,6.49,1.36,9.87-.32,3.81.6,6.84,1.62,10.33l1.59,5.46,2.24,5.86,2.13,4.8c.91,5.22.67,10.7-.41,15.83-.31,1.46-1.21,3.1-1.23,4.71l-.14,13.33-.06,13.05c-.01,3.21.69,6.94-.45,9.97-2.04,5.42-2.64,11.37,2.05,12.57,1.29.33,3.81,3.99,4.32,6.5.55,2.71,2.88,7.52,4.63,8.45,3.25,1.74,6.14,3.56,8.18,6.79l2.84,4.5,2.35,4.3,5.63,6.28c1.41,1.57,1.79,3.82,2.5,5.59l1.69,3.42c.96,1.93,2.45,4.27,3.99,6.02l4.16,4.72,1.95,3.12,1.8,2.95,18.13-.08h4.6c1.75-.01,4.76.5,5.68-1.07l2.2-3.71.45-11.77c.05-1.17-1.19-2.69-1.47-3.59-.52-1.69-.79-3.78-2.05-5.06l-7.98-8.1-2.66-2.37-5.9-4.2c-1.5-1.07-3.89-2.5-4.9-4.03l-2.15-3.24c-.67-1.01-.27-3.84-.19-5.09l5.86-4.3c2.91-2.13,5.49-4.5,7.58-7.47l-.09-27.97-.53-6.89c-.4-5.16-1.75-9.88-1.41-15.09.48-7.28-.67-14-1.66-21.15l-.56-19.76-.89-5.48-.71-6.17-.24-27.44-1.73-13.99-.02-15.5.51-4.44c.63-5.47,1.64-10.53,1.35-16.07-.18-3.28.31-6.14,1.27-9.24,1.78-5.79-.59-11.14,2.05-15.52l.62-4.76.04-21.44c-1.28-4.94.46-9.59,3.93-13.11l.35-1.86c.11-.57,5.15,2.8,7.65-1.21l2.03-3.26c2.27-2.58,2.3-4.94,2.28-8.11-.08-12.49-4.69-23.03-7.97-33.64l-2.14-6.93-.32-37.81-2.11-10.9c-.54-2.78-3.3-5.23-3.91-7.8-.87-3.66-.15-7.59-.44-11.39-.25-3.33-.58-7.19,1.01-10.1,1.7-1.16,3.7-2.42,3.64-4.96v-16.49c1.95-5.29,4.59-10.06,7.7-14.77,2.7-3.78,4.39-7.74,6.09-11.98,2.2-5.5,2.96-10.74,3.47-16.75l.53-6.19.82.07c4.89,4.44,10.72,6.93,17.04,8.57,2.06.54,3.52,0,5.41-.85,3.79-1.72,9.23,4.72,17.94,7.5,8.11,2.58,11.16,7.04,16.08,13.93,2.83,3.96,6.88,6.68,10.49,9.9l6.12,5.45,2.5,2.5,11.37,8.03,5.05,3.57,17.37,12.07,12.17,8.34,5.37,2.04c4.15.38,7.44-2.26,10.26-4.53l5.03-4.04,2.59-2.62,3.29-2.78,2.78,4.15,2.66,3.7,2.85,4.22,2.56,3.29,3.11,5.33,2.42,3.88c2.09,3.35.59,6.07,3.74,7.65l1.92,7.59c1.15.54,3.51-.47,3.41-1.55-.18-1.88.22-2.62,1.52-3.66l-2.65-14.73,3.73-.73c1.47,1.68,3.43,1.22,5.17,1.65l4.5,1.11c1.14.28,2.85,1.06,4.19.69.87-.24,1.78-1.34,2.7-2.22,2.93-2.78-.76-3.97,1.58-9.56.59-1.4-.95-4.31-1.02-5.76ZM371.67,313.58c0,11.09-2.66,19.82-7.97,26.19-5.31,6.38-12.64,9.56-21.96,9.56s-16.65-3.19-21.96-9.56c-5.31-6.37-7.97-15.1-7.97-26.19v-4.37l18.06-2.08v4.78c0,11.09,3.84,16.63,11.51,16.63,3.66,0,6.49-1.25,8.5-3.74,2.01-2.49,3.01-6.1,3.01-10.81v-15.18c0-5.82-1.12-10.05-3.37-12.68-2.24-2.63-5.84-3.95-10.8-3.95h-7.44v-20.79h6.2c4.96,0,8.56-1.32,10.8-3.95,2.24-2.63,3.37-6.86,3.37-12.68v-11.23c0-4.29-.92-7.55-2.75-9.77-1.83-2.22-4.46-3.33-7.88-3.33-7.08,0-10.63,5.06-10.63,15.18v3.33h-18.06v-4.99c0-10.53,2.57-18.88,7.7-25.05,5.14-6.17,12.25-9.25,21.34-9.25s16.21,3.09,21.34,9.25c5.14,6.17,7.7,14.52,7.7,25.05v9.56c0,6.52-1.12,12.13-3.36,16.84-2.24,4.71-5.55,8.39-9.92,11.02,9.68,5.27,14.52,14.83,14.52,28.69v13.51Z"/>
</svg>