<?xml version="1.0" encoding="UTF-8"?>
<svg id="Layer_1" xmlns="http://www.w3.org/2000/svg" version="1.1" viewBox="0 0 67.74 67.37">
  <!-- Generator: Adobe Illustrator 30.6.0, SVG Export Plug-In . SVG Version: 2.1.4 Build 109)  -->
  <defs>
    <style>
      .st0 {
        fill: #47ba7f;
      }
    </style>
  </defs>
  <path class="st0" d="M37.06,67.22C10.58,69.76-9.08,40.79,4.33,17.39c13.04-23.91,48.72-23.05,60.14,1.85,10.11,20.86-4.41,45.91-27.41,47.98ZM35.96,62.48c36.27-3.46,35.35-55.09-.74-57.73C21.07,3.92,7.78,14.74,5.4,28.64c-3.82,18.03,12.35,35.52,30.56,33.84Z"/>
  <path class="st0" d="M37.47,43.97l-10.12,6.39c-.76.64-1.66.89-2.66.71-1.24-.28-2.36-1.39-2.37-2.77,0,0-.01-28.94-.01-28.94.06-1.7,2.17-2.89,3.66-2.02,0,0,12.25,7.17,12.25,7.17,0,0,12.57,7.38,12.57,7.38,1.45.96,1.21,3.2-.31,3.96,0,0-13.01,8.12-13.01,8.12Z"/>
</svg>