<?xml version="1.0" encoding="UTF-8"?>
<svg id="Layer_1" xmlns="http://www.w3.org/2000/svg" version="1.1" viewBox="0 0 5142.68 1442.29">
  <!-- Generator: Adobe Illustrator 30.3.0, SVG Export Plug-In . SVG Version: 2.1.3 Build 182)  -->
  <defs>
    <style>
      .st0 {
        fill: #57ab91;
      }

      .st1 {
        fill: #72debc;
      }

      .st2 {
        fill: #030202;
      }

      .st3 {
        fill: #010101;
      }

      .st4 {
        fill: #52a087;
      }

      .st5 {
        fill: #81fdd5;
      }

      .st6 {
        fill: #61bfa2;
      }

      .st7 {
        fill: #80fbd5;
      }

      .st8 {
        fill: #458873;
      }

      .st9 {
        fill: #80fad4;
      }

      .st10 {
        fill: #7df5cf;
      }

      .st11 {
        fill: #5eb89b;
      }

      .st12 {
        fill: #56a88e;
      }

      .st13 {
        fill: #4b937c;
      }

      .st14 {
        fill: #4f9b82;
      }

      .st15 {
        fill: #0e2c23;
      }

      .st16 {
        fill: #6cd4b4;
      }

      .st17 {
        fill: #7bf1cc;
      }

      .st18 {
        fill: #63c1a2;
      }

      .st19 {
        fill: #4c957e;
      }

      .st20 {
        fill: #171717;
      }

      .st21 {
        fill: #6ed7b5;
      }

      .st22 {
        fill: #76e6c3;
      }

      .st23 {
        fill: #74e4c1;
      }

      .st24 {
        fill: #0d0d0d;
      }

      .st25 {
        fill: #4d967f;
      }

      .st26 {
        fill: #7bf2cd;
      }

      .st27 {
        isolation: isolate;
      }

      .st28 {
        fill: #68cbab;
      }

      .st29 {
        fill: #75e5c2;
      }

      .st30 {
        fill: #76e8c5;
      }

      .st31 {
        fill: #68ccab;
      }

      .st32 {
        fill: #5eb99c;
      }

      .st33 {
        fill: #fff;
      }

      .st34 {
        fill: #74e2be;
      }

      .st35 {
        fill: #448470;
      }

      .st36 {
        fill: #6ed8b6;
      }

      .st37 {
        fill: #78ebc6;
      }

      .st38 {
        fill: #43836f;
      }

      .st39 {
        fill: #79eec9;
      }

      .st40 {
        fill: #77eac5;
      }

      .st41 {
        fill: #0c0c0c;
      }

      .st42 {
        fill: #7bf0cb;
      }

      .st43 {
        fill: #7ef7d0;
      }

      .st44 {
        fill: #7ff8d1;
      }

      .st45 {
        fill: #7ff9d3;
      }

      .st46 {
        fill: #509c83;
      }

      .st47 {
        fill: #6dd6b4;
      }

      .st48 {
        fill: #7aefca;
      }

      .st49 {
        fill: #65c6a7;
      }

      .st50 {
        fill: #79ecc7;
      }

      .st51 {
        fill: #1e3a31;
      }

      .st52 {
        fill: #498e79;
      }

      .st53 {
        fill: #70dcba;
      }

      .st54 {
        fill: #76e7c4;
      }

      .st55 {
        fill: #7df4cd;
      }

      .st56 {
        fill: #7cf3cc;
      }

      .st57 {
        fill: #7df6d0;
      }

      .st58 {
        fill: #80fcd6;
      }
    </style>
  </defs>
  <g>
    <g id="tNZPP3">
      <g>
        <path class="st48" d="M641.72.03h328.68c52.09,0,104.19-.09,156.28.02,75.52.16,136.64,54.14,146.57,129.18,14.62,110.46,17.6,221.29,8.45,332.28-7.91,96.04-25.21,190.4-52.93,282.89-39.07,130.32-97.41,251.09-177,361.34-73.43,101.72-160.89,189.94-261.87,264.39-28.85,21.27-57.97,43.5-90.07,58.76-47.8,22.72-96.4,15.51-140.14-13.8-32.9-22.05-65.07-45.48-95.63-70.65-31.73-26.13-60.83-55.43-91.61-82.74-61.02-54.14-110.94-117.72-156.91-184.54-42.57-61.87-77.94-127.73-107.8-196.72-36.71-84.8-63.31-172.63-81.05-263.11C5.72,510.42-3.34,402.28,1.11,293.45c2.38-58.23,7.02-116.63,15.24-174.3C26.03,51.24,86.8.53,155.35.28c158.47-.57,316.95,0,475.43.13h10.95V.03h-.01Z"/>
        <path class="st48" d="M642.7,72.24c145.82,0,291.63.01,437.45-.02,16.06,0,32.13-.49,48.19-.33,37.68.36,68,28.13,73.09,65.5,12.1,88.76,17.85,178,11.3,267.25-4.86,66.29-13.81,132.46-24.57,198.09-19.25,117.42-59.94,227.98-115.59,332.9-45.58,85.93-102.02,164.15-168.64,235.34-64.67,69.1-136.36,129.55-214.19,183.04-25.44,17.48-61.89,23.56-104.61-7.97-60.11-44.37-119.05-89.89-171.9-142.89-108.92-109.23-192.76-234.95-250.16-378.33-71.03-177.42-97.57-361.98-89.04-552.06,2.05-45.62,6.86-91.17,12.03-136.56,4.33-38,35.49-64.18,73.86-64.26,79.61-.17,159.23-.12,238.84-.14,81.31-.02,162.62,0,243.94,0v.45h0ZM954.32,1007.64c-.79.85.45-.19,1.32-1.48,48.24-70.59,87.46-145.95,117.77-225.83,34.32-90.47,56.25-184.01,67.7-280.09.99-8.29-1.78-10.32-9.12-10.17-22.38.46-44.76.94-67.14.97-95.65.12-191.31,0-286.96.41-2.97.01-8.46,4.69-8.49,7.24-.51,46.97-.45,93.95-.14,140.92.02,2.84,2.45,6.78,4.93,8.32,20.78,12.97,43.36,23.56,62.55,38.51,74.71,58.18,115.81,135.36,121.51,229.86,1.85,30.72-2.5,61.81-3.94,91.33h.01ZM336.76,1014.59c-14.66-87.88-13.14-126.29,13.97-196.36,30.24-78.15,85.62-133.9,161.12-169.95,2.7-1.29,5.71-5.45,5.73-8.3.31-46.74.32-93.48-.26-140.21-.04-2.9-5.28-7.98-8.36-8.19-12.58-.88-25.27-.19-37.92-.2-106.39-.07-212.78-.22-319.17.04-2.25,0-6.64,4.85-6.39,7.02,2.26,19.56,5.03,39.07,8.22,58.51,13.68,83.35,34.92,164.84,68.18,242.43,22.27,51.95,49.01,102.05,75.05,152.3,10.63,20.52,24.69,39.26,39.82,62.92h0ZM643.54,1211.04c147.66.12,267.78-119.77,268.5-267.96.72-147.62-119.83-268.57-268.16-269.04-147.75-.46-268.6,120.14-268.86,268.33-.26,147.84,120.38,268.55,268.52,268.67h0Z"/>
        <path class="st48" d="M874.67,942.65c-.15,128.21-103.77,231.33-232.17,231.05-127.46-.28-230.63-104.45-230.14-232.37.49-126.72,103.94-229.99,230.36-229.96,128.54.03,232.09,103.28,231.94,231.28h.01Z"/>
      </g>
    </g>
    <g id="tNZPP3-2">
      <g>
        <path class="st51" d="M641.72.03h328.68c52.09,0,104.19-.09,156.28.02,75.52.16,136.64,54.14,146.57,129.18,14.62,110.46,17.6,221.29,8.45,332.28-7.91,96.04-25.21,190.4-52.93,282.89-39.07,130.32-97.41,251.09-177,361.34-73.43,101.72-160.89,189.94-261.87,264.39-28.85,21.27-57.97,43.5-90.07,58.76-47.8,22.72-96.4,15.51-140.14-13.8-32.9-22.05-65.07-45.48-95.63-70.65-31.73-26.13-60.83-55.43-91.61-82.74-61.02-54.14-110.94-117.72-156.91-184.54-42.57-61.87-77.94-127.73-107.8-196.72-36.71-84.8-63.31-172.63-81.05-263.11C5.72,510.42-3.34,402.28,1.11,293.45c2.38-58.23,7.02-116.63,15.24-174.3C26.03,51.24,86.8.53,155.35.28c158.47-.57,316.95,0,475.43.13h10.95V.03h-.01ZM233.52,39.18v.21c-26.78,0-53.6-.93-80.33.2-50.33,2.13-92.44,39.95-99.18,89.97-4.93,36.59-7.76,73.49-10.78,110.31-8.71,106.06-3.14,211.66,12.86,316.68,18.11,118.79,51.75,233.06,102.86,342.02,45.98,98.01,104.37,188.02,176.03,269.05,73.19,82.75,155.9,154.98,248.1,216.04,30.85,20.43,64.67,24.25,98.87,10.94,16.03-6.24,30.53-16.96,44.9-26.85,70.17-48.31,134.65-103.41,193.27-165.18,84.18-88.72,153.05-188.09,205.45-298.75,37.84-79.92,68.76-162.54,85.63-249.26,14.28-73.41,25.61-147.69,32.72-222.11,9.19-96.18,2.96-192.52-8.01-288.54-7.39-64.67-50.18-104.72-115.19-104.73-61.81,0-123.63.03-185.44.03-132.66,0-265.32,0-397.98,0H233.52v-.02Z"/>
        <path class="st51" d="M642.7,72.24c145.82,0,291.63.01,437.45-.02,16.06,0,32.13-.49,48.19-.33,37.68.36,68,28.13,73.09,65.5,12.1,88.76,17.85,178,11.3,267.25-4.86,66.29-13.81,132.46-24.57,198.09-19.25,117.42-59.94,227.98-115.59,332.9-45.58,85.93-102.02,164.15-168.64,235.34-64.67,69.1-136.36,129.55-214.19,183.04-25.44,17.48-61.89,23.56-104.61-7.97-60.11-44.37-119.05-89.89-171.9-142.89-108.92-109.23-192.76-234.95-250.16-378.33-71.03-177.42-97.57-361.98-89.04-552.06,2.05-45.62,6.86-91.17,12.03-136.56,4.33-38,35.49-64.18,73.86-64.26,79.61-.17,159.23-.12,238.84-.14,81.31-.02,162.62,0,243.94,0v.45h0ZM954.32,1007.64c-.79.85.45-.19,1.32-1.48,48.24-70.59,87.46-145.95,117.77-225.83,34.32-90.47,56.25-184.01,67.7-280.09.99-8.29-1.78-10.32-9.12-10.17-22.38.46-44.76.94-67.14.97-95.65.12-191.31,0-286.96.41-2.97.01-8.46,4.69-8.49,7.24-.51,46.97-.45,93.95-.14,140.92.02,2.84,2.45,6.78,4.93,8.32,20.78,12.97,43.36,23.56,62.55,38.51,74.71,58.18,115.81,135.36,121.51,229.86,1.85,30.72-2.5,61.81-3.94,91.33h.01ZM336.76,1014.59c-14.66-87.88-13.14-126.29,13.97-196.36,30.24-78.15,85.62-133.9,161.12-169.95,2.7-1.29,5.71-5.45,5.73-8.3.31-46.74.32-93.48-.26-140.21-.04-2.9-5.28-7.98-8.36-8.19-12.58-.88-25.27-.19-37.92-.2-106.39-.07-212.78-.22-319.17.04-2.25,0-6.64,4.85-6.39,7.02,2.26,19.56,5.03,39.07,8.22,58.51,13.68,83.35,34.92,164.84,68.18,242.43,22.27,51.95,49.01,102.05,75.05,152.3,10.63,20.52,24.69,39.26,39.82,62.92h0ZM643.54,1211.04c147.66.12,267.78-119.77,268.5-267.96.72-147.62-119.83-268.57-268.16-269.04-147.75-.46-268.6,120.14-268.86,268.33-.26,147.84,120.38,268.55,268.52,268.67h0Z"/>
        <path class="st51" d="M874.67,942.65c-.15,128.21-103.77,231.33-232.17,231.05-127.46-.28-230.63-104.45-230.14-232.37.49-126.72,103.94-229.99,230.36-229.96,128.54.03,232.09,103.28,231.94,231.28h.01Z"/>
      </g>
    </g>
  </g>
  <g>
    <g>
      <path d="M829.49,1227.53c-7.18,0-15.05-3.06-19.6-7.62-1.37-1.36-3.5-2.45-5.76-3.61-5.36-2.74-13.45-6.88-11.27-17.96.27-2.39.41-4.8.55-7.34.28-4.91.58-9.96,1.83-15.04-.3-.14-.63-.28-.89-.39-3.03-1.31-10.08-4.36-7.84-14.99l.53-4.52c1.79-15.21,3.64-30.93,3.96-46.13l.05-2.33,1.81-1.46c1.49-1.2,2.79-2.22,3.95-3.07l-2.74-.64-.17-3.78c-.34-7.47,1.85-15.06,3.98-22.4,2.11-7.31,4.11-14.22,3.51-20.31-3.7-8.19-5.36-15.38-5.18-22.54-.46-4.13-2.22-8.3-4.07-12.7-.6-1.42-1.19-2.83-1.74-4.24-2.59-5.7-2.53-12.44-2.48-18.96.11-12.46-.59-17.72-8.01-19.65-13.84-3.5-20.9-10.29-25.11-14.35-.28-.27-.58-.56-.87-.83-1.92,3.58-4.95,11.44-7.29,17.52-2.29,6.8-3.59,11.43-4.54,14.81-1.75,6.23-3.01,10.73-8.96,10.73-.85,0-1.7-.1-2.68-.21-1.38-.16-3.1-.37-5.52-.37-1.24,0-2.55.06-3.93.17.29,7.57-1.34,13.42-4.87,17.45-2.18,2.49-6.22,5.46-13.08,5.46-2.49,0-5.24-.39-8.17-1.17-1.71-.36-3.5-.53-5.47-.53-4.21,0-8.51.8-13.06,1.64-4.75.88-9.67,1.79-14.72,1.79-2.78,0-5.34-.27-7.82-.83l-1.71-.39-1.09-1.37c-2.8-3.5-2.76-6.75-2.24-8.85,1.75-7.03,10.95-11,21.6-15.59,5.16-2.22,15.86-6.84,16.65-9.48,1.68-6.96,3.13-14.25,4.54-21.29,3.91-19.57,7.93-39.69,17.4-57.81-2.07,1.18-3.58,1.98-4.87,2.43-4.26,2.37-8.71,2.69-12.66,2.97-3.37.24-6.28.45-8.5,1.82-12.51,7.78-27.1,12.73-41.21,17.52-15.16,5.14-29.51,10.02-41.11,18.01-1.99,10.55-7.87,18.5-13.57,26.21-4.41,5.97-8.58,11.61-10.91,18.29-1.12,5.77-5.42,8.65-8.57,10.76-2.39,1.6-3.89,2.66-4.36,4.16l-.05.14-.05.14c-1.2,3.1-3.67,4.36-4.85,4.92-3.56,1.96-6.06,6-8.71,10.28-2.61,4.22-5.3,8.58-9.45,12-9.06,10.46-9.04,24.36-9.02,39.07,0,5.92.01,12.03-.62,17.92l-.04.39-.1.37c-.9,3.36,1,8.76,2.84,13.99,2.9,8.23,6.82,19.38-1.73,26.03-2.24,4.61-.35,13.25,1.48,21.63,2.51,11.49,5.11,23.37-.78,31.84-3.19,4.59-8.48,7.44-15.71,8.46l-.78.11-.77-.13c-.06,0-.39-.06-1.18-.06-3.31,0-9.64.86-16.34,1.76-9.58,1.29-20.44,2.76-29.01,2.76-6.41,0-14.15-.69-17.11-6.04-1.2-2.18-1.97-5.83,1.2-10.88l.38-.6.53-.47c8.84-7.91,18.04-10.48,25.44-12.54,5.68-1.59,10.17-2.84,12.42-5.94,2.37-3.26,2.95-9.35,1.76-18.55-1.44.11-3.21.46-5.07.83-2.71.54-5.79,1.15-8.79,1.15-7.94,0-11.73-4.46-13.51-8.19l-.07-.16c-5.66-13.09-3.9-27.34-1.77-39.71.76-9.57,1.16-19.38,1.54-28.86.32-7.88.65-16.03,1.19-24.09.4-23.65,11.2-44.6,21.65-64.86,4.16-8.07,8.45-16.39,11.94-24.68-.37-.86-.63-1.94-.75-3.26-.02-.17-.03-.38-.06-.59-.43.02-1.08.09-2.01.3-1.82.99-3.71,1.49-5.64,1.49-3.87,0-6.98-2-9.48-3.6-1.79-1.15-3.49-2.24-4.8-2.24-.1,0-.21,0-.32.02l-.39.05h-.39c-5.62-.2-9.6-3.32-12.8-5.83-1.12-.88-2.18-1.71-3.22-2.35-.87-.5-2.03-.9-3.26-1.33-1.8-.63-4-1.39-6.05-2.8-.56.82-.77,1.72-1.06,2.94-.63,2.65-1.58,6.64-6.65,9.2-4.09,2.06-10.65,2.98-21.28,2.98h-1.82c-6.37-.31-9.33-5.08-11.29-8.24-1.46-2.35-2.26-3.48-3.25-3.68l-1.48-.3-1.06-1.07c-5.35-5.36-9.85-10.49-13.38-15.23-2.53-2.68-2.76-5.86-2.92-7.99-.04-.52-.09-1.28-.18-1.62l-.04-.04-.15-.18c-4.14-4.97-3.68-11.04-3.31-15.91.29-3.77.53-7.03-.9-9.5l-.06-.11-.06-.11c-10.17-19.73-6.6-25.63,3.2-38.24,1.51-1.94,3.22-4.14,5.04-6.63l.67-.92,1-.54c.08-.04.11-.07.11-.07.26-.31.43-1.89.53-2.74.28-2.48.75-6.64,4.18-9.43-.39-.29-.79-.52-1.09-.61h-.89l-.95-.44c-6.88-3.1-12.42-10.65-13.56-18.41-.65-3.03.56-5.29,1.58-6.68-6.71-10.29-6.82-24.05-.11-34.78l.09-.14c.68-1.01,1.43-1.82,2.04-2.47.23-.25.52-.57.73-.81l-.02-.05c-1.06-3-.24-6.76,3.18-8.78.05-.11.09-.23.13-.32.73-1.8,1.95-4.81,5.29-5.55l.12-.03c.42-.99,1.07-2.1,2.11-2.88.03-1.71.33-3.38,1.68-4.78,1.04-1.08,2.45-1.68,3.97-1.68,1.28,0,2.42.38,3.78,1.22,1.39-1.04,2.89-1.24,3.8-1.24,2.75,0,5.01,1.68,7.02,3.73.36-.06.73-.08,1.12-.08,3.31,0,8.11,2.71,12.12,5.7.96-.64,2.1-.99,3.31-.99,2.62,0,5.34,1.64,8.56,5.16.62.68,4.73,5.28,6.77,10.16,1.14.21,2.17.77,2.98,1.63.87.93,1.3,2.03,1.5,3.1,1.6.68,2.99,2.15,3.41,4.52.61,3.48-1.81,13.18-6.05,17.64.32,2.08.51,4.1.69,5.94.2,2.02.48,4.91.91,6.34.95-.28,2.92-1.11,6.55-3.61,2.62-1.75,5.56-2.58,9.06-2.58,2.04,0,3.99.27,5.88.53,1.69.23,3.28.45,4.74.45,1.58,0,2.75-.25,3.81-.81l.33-.18.36-.12c2.39-.83,4.88-1.26,7.41-1.26,9.15,0,17.24,5.52,23.74,9.96l.32.22c5.92.74,11.14,3.34,15.79,5.66.89.45,1.78.89,2.67,1.32l.37.18.33.23c1.86,1.3,3.95,1.88,6.8,1.88,2.64,0,5.53-.51,8.59-1.05,3.37-.59,6.86-1.21,10.43-1.21s6.95.67,9.87,2.06c7.56.89,14.56,3.07,21.34,5.17,6.34,1.97,12.33,3.83,18.63,4.67l.16.02c1.31.18,3.74.51,5.39,2.75.3.4.6.92.83,1.56,9.21,5.83,23.19,10.32,36.37,11.61l.65.06.61.23c.55.21,1.26.3,2.16.3,1.24,0,2.65-.19,4.15-.39,1.7-.23,3.46-.46,5.27-.46,4.04,0,7.29,1.29,9.69,3.84,4.55,1.57,7.68,4.67,8.32,8.35.1.6.16,1.35.08,2.2,2.86-.82,5.76-1.73,8.74-2.67,8.96-2.82,18.22-5.74,27.7-6.31,11.85-3,23.64-5.03,34.1-6.59,2.84-3.65,6.76-6.08,10.24-8.22,5.5-3.4,8.62-5.53,8.66-9.85.09-9.82,5.72-17.09,10.77-22.36.42-.67.83-1.38,1.25-2.12,2.19-3.82,5.11-8.89,11.44-9.94-.58-1.36-1.35-2.89-1.86-3.92-1.17-2.34-2.12-4.25-2.55-5.99-.48-.9-1.73-1.99-2.95-3.05-2.78-2.42-7.28-6.32-5.96-12.57-.04-.11-.08-.22-.12-.34-4.19-12.18-4.71-15.85-2.68-18.69.97-1.36,2.44-2.18,4.09-2.29.22-1.03.46-2.06.72-3.06.91-3.48,2.81-10.72,8.49-10.72.16,0,.33,0,.51.02,1.59-2.87,3.58-6.37,7.6-6.37,1.47,0,2.66.47,3.63,1.18.13-.15.25-.29.37-.42,3-3.46,5.6-6.45,9.27-6.45.44,0,1.22.06,2.1.37.19-.5.35-.99.49-1.36.97-2.82,2.45-7.07,6.97-7.07,1.26,0,3.14.42,4.95,2.4l.32.36.25.41c.42.69.8,1.3,1.14,1.83.98-.69,2.13-1.04,3.43-1.04,1.59,0,3.13.58,4.69,1.77l.76.58.49.81c.44.73.87,1.58,1.32,2.49.4.8,1.07,2.16,1.71,3.18.81-.6,1.99-1.21,3.56-1.21,1.03,0,2.02.27,2.96.79l1.05.59.67,1.01c1.91,2.87,1.28,5.91.86,7.92-.06.28-.13.63-.18.94,1.81,1.8,2.33,4.01,2.66,5.42.03.13.07.28.1.42,3.97,2.46,4.57,6.5,4.86,8.5l.08.56-.03.37c.21.48,1.02,1.48,1.52,2.1,1.81,2.23,5.56,6.85,2.2,12.16.05.24.12.52.17.74,1.26,5.06-.61,7.62-2.75,8.91,6.51,10.04,12.6,10.07,22.5,10.12,5,.03,10.66.05,16.93,1.57,5.17,1.26,6.88,4.01,7.97,6.79.03.08.07.17.1.25,23.01,10.55,18.31,35.23,14.88,53.31-.51,2.69-.99,5.23-1.38,7.64-3.43,19.58-9.34,25.32-14.56,30.38-5.67,5.5-11.03,10.7-12.69,41.52l-.03.58-.16.56c-1.04,3.54-2.86,6.57-4.62,9.49-1.48,2.45-2.87,4.77-3.62,7.13l-.14.45-.22.41c-1.24,2.28-3.09,5.7-7.39,5.8-.94,3.88-.85,8.68-.77,13.68.14,8.19.3,17.47-4.26,25.16-10,22.62-10.82,46.28-11.69,71.33-.51,14.68-1.03,29.85-3.59,44.73-.73,13.5-3.21,26.54-5.61,39.15-1.47,7.75-3,15.76-4.08,23.74-.9,10.12-7.97,17.18-17.23,17.18-1.43,0-2.86-.18-4.26-.52.42,9.92,4,12.58,11.36,18.05,2.3,1.71,4.91,3.65,7.78,6.07l2.38,2.01-.75,3.02c-1.82,7.34-8.09,11.73-16.76,11.73h-.07ZM816.07,1089.23s.07-.02.1-.03c.06-.14.13-.29.2-.43h-.05c-.08.15-.17.3-.25.45h0ZM834.59,1070.47c-1,0-1.23.6-1.28.79-.16.61.59,1.14,1.05,1.4l.03.02c.75-.65,1.69-1.3,2.82-1.7-.86-.03-1.72-.2-2.57-.5h-.05ZM771.53,899.8c1.87,1.43,3.28,3.16,4.64,4.83,1.63,2,3.03,3.72,4.76,4.38l.38.15.36.21c1.52.89,3.24,1.25,5.95,1.25,1.05,0,2.14-.05,3.29-.11.99-.05,2.01-.1,3.05-.11-.36-.73-.66-1.4-.89-2.06-1.69-2.98-1.45-6.98-.23-9.54.05-.12.11-.23.17-.34-.33-.56-.61-1.17-.85-1.82l-.31-.86v-.91c.03-1.39-1.81-3.46-3.16-4.97-1.03-1.16-2.27-2.55-2.97-4.15-.98-.27-1.94-.61-2.86-1.03-.25.49-.58.98-1.01,1.43-1.12,1.17-2.66,1.81-4.33,1.82-.79,0-1.6-.14-2.45-.43-5.2-1.61-8.25-3.63-10.23-6.06-1.03.85-2.33,1.44-3.98,1.6-.28.89-.69,1.61-1.17,2.18.33.3.65.63.98.98,2.14,1.5,3.12,3.8,2.94,6.87,1.53,1.04,3.21,2.45,4.55,4.12l3.36,2.57h0Z"/>
      <path class="st33" d="M822.62,719.21c.36,0,.76.23,1.25.77,3.33,5.47,4.94,7.13,5.86,7.13,1.41,0,1.17-3.95,2.98-3.95.43,0,.96.22,1.66.75,1.5,2.47,3.83,9.02,7.08,9.02.72,0,1.49-.32,2.31-1.09.48-.36.86-1.05,1.47-1.05.16,0,.33.05.52.15,1.69,2.54-1.95,6.86.94,9.32,2.26,1.65,1.14,5.37,3.56,6.6,2.24,1.13,2.69,3.05,3.02,5.24-.35,4.49,7.15,7.66,4.47,11.82-2.48,2.87,1.81,6.82-1.27,8.19h-.12c-.43,0-1.07-.2-1.48-.2-.29,0-.46.1-.35.44.62,1.96-1.78,4.01.05,5.55,12.02,19.52,25.17,10.5,43.09,14.84,5.62,1.37,3.43,4.64,6.5,6.43,23.22,10.07,14.38,36.82,11.31,55.91-7.14,40.81-24.17,14.02-27.31,72.43-1.69,5.76-6.31,10.58-8.2,16.5-1.2,2.22-1.87,3.19-3.19,3.19-.72,0-1.64-.29-2.94-.81-6.06,11.39,1.23,29.99-6.32,42.34-16.76,37.6-9,78.51-15.81,117.82-1.12,21.54-6.81,41.67-9.69,62.9-.7,8.39-6.23,12.73-12.26,12.73-3.09,0-6.31-1.14-9.08-3.47-1.61,23.82,6.46,23.85,20.73,35.89-1.41,5.7-6.37,7.93-11.91,7.93-5.91,0-12.47-2.55-16.06-6.15-5.94-5.91-17.95-6.1-15.63-17.26.92-7.99.45-16.16,2.86-23.98-.71-5.99-11.74-2.34-9.21-13.74,2-17.11,4.19-34.35,4.55-51.36,4.67-3.76,7.16-5.45,8.64-5.45,2.3,0,2.15,4.08,4.01,10.73,7.61,4.04,5.89,7.97,6.68,16.09,0,.02,0,.03.01.05-.1,2.48-.41,4.93-.96,7.34-1.56,3.67-4.13,7.12-4.48,10.96,2.17-3.53,3.62-7.19,4.48-10.96.98-2.3,1.56-4.7.96-7.34.24-5.98-.72-12.13-2.41-18.3-2.82-4.11-8.37-10.65-1.31-14.95,2.82-2.8,4.8-4.27,6.73-4.27s3.89,1.53,6.62,4.74c1.52,1.03,2.79,1.48,3.85,1.48,2.85,0,4.25-3.23,5.35-7.02.97-2.59,1.73-5.83,2.71-8.98.45-.96.96-1.76,1.58-2.29,3.55-3.15,2.49-8.89,6.81-11.4,2.03-2.35,5.09-4.69,6.25-7.38.48-1.83,1.21-9.67-.76-9.67-.4,0-.92.33-1.57,1.09-.6,5.69-5.35,7.43-9.32,10.53-.78.55-1.54.93-2.4.93-.48,0-1-.12-1.56-.4-.45-.07-.89-.11-1.31-.11-6.3,0-9.07,7.97-2.68,11.55.79,1.44,1.53,1.96,2.23,1.96,1.81,0,3.43-3.4,5.29-3.4.38,0,.77.14,1.17.48-1.7,2.22-2.82,5.12-3.75,8.09-1.12,2.41-1.82,5.88-2.71,8.98-1.18,3.13-2.67,5.33-5.25,5.33-2.06,0-4.81-1.39-8.64-4.82,0-3.92,3.42-6.08,6.35-7.8,4.1-1.94,1.37-7.21-1.85-7.21-.92,0-1.87.42-2.72,1.47-2.02,2.3-4.23,3.76-7.2,3.76-.29,0-.59-.01-.9-.04-2.72,1.93-3.16,8.13-8.41,8.13-.24,0-.5-.01-.77-.04h-.19c-3.28,0-1.57,6.63-4.92,6.63-.23,0-.47-.03-.75-.09-.64-14.06,9.21-30.01,7.37-43.85-3.14-6.77-5.3-13.76-5.05-21.37-.63-6.5-3.86-12.66-6.21-18.71-6.02-12.96,4.92-36.62-13.84-41.5-19.22-4.86-23.87-16.52-27.81-16.52-2.68,0-5.03,5.4-11.43,22-6.5,19.28-5.41,22.24-8.8,22.24-1.5,0-3.89-.58-8.2-.58-2.43,0-5.48.18-9.33.76,1.68,12.58-1.41,22.32-12.55,22.32-2.05,0-4.38-.33-7-1.04-2.22-.48-4.43-.67-6.64-.67-9.32,0-18.57,3.43-27.78,3.43-2.24,0-4.48-.2-6.71-.71-9.75-12.19,33.92-18.22,36.95-29.54,7.15-29.63,9.66-61.77,27.29-87.68.67-1.93.23-2.67-.88-2.67-3.44,0-13.3,7.11-16.19,7.82-6.79,4.09-15.22,1.11-21.76,5.15-25.65,15.95-60.77,19.68-84.3,36.93-2.45,18.54-18.92,28.88-24.73,46.1-1.2,7.47-10.67,7.82-12.85,14.67-.46,1.19-1.34,1.73-2.44,2.25-8.82,4.72-11.3,16.71-19.38,23.14-14.66,16.52-8.97,39.9-11.14,60.07-3.11,11.63,13.55,30.37,2.15,37.88-10.14,15.64,19.67,55.94-11.91,60.41-.53-.09-1.22-.13-2.03-.13-8.43,0-30.84,4.52-45.35,4.52-9.93,0-16.16-2.12-11.68-9.25,22.36-20,47.64-2.26,40.7-45.05-1.03-.54-2.25-.75-3.61-.75-4.26,0-9.82,2.02-14.68,2.02-3.71,0-7.01-1.18-8.99-5.34-5.06-11.72-3.5-24.9-1.4-37.1,1.42-17.71,1.57-35.53,2.77-53.37.51-33.22,22.89-61.32,34.71-91.5-.36.17-.65.25-.88.25-2.23,0,1.02-7.35-5.85-7.35-1.09,0-2.43.18-4.09.61-1.33.84-2.57,1.18-3.75,1.18-4.92,0-8.85-5.84-14.28-5.84-.31,0-.62.02-.93.06-5.65-.19-9.23-4.77-13.61-7.46-3.79-2.22-8.84-2.25-11.47-6.48-13.41,7.31,4.14,16.76-29.39,16.76h-1.58c-7.18-.35-7.07-10.45-13.79-11.82-4.4-4.41-9.22-9.68-13.1-14.95-2.88-2.77-.66-7.2-3.26-9.77-5.49-6.59.86-16.82-3.74-24.72-10.72-20.8-4.58-22.59,7.84-39.64,5.63-3.03.63-11.4,7.59-13.83,3.55-2.62-2.53-8.37-6.01-8.42-5.34-2.41-9.88-8.7-10.7-14.76-.86-3.43,4.21-4.17,1.66-7.33-6.46-8.78-6.69-21.27-.88-30.57,1.73-2.58,4.83-3.94,3.31-7.79-.34-.97-.2-2.4,1.63-3.1,1.42-.44,1.83-4.67,3.34-5,.67.66,1.18.93,1.6.93,1.73,0,1.57-4.73,2.74-4.73.41,0,.97.57,1.83,2.09.29-4.54-.57-7.54.63-7.54.75,0,2.32,1.19,5.49,3.93.27-2.89,1.06-3.94,2.09-3.94,2.01,0,4.95,3.98,6.88,6.09-.42-1.75.14-2.44,1.25-2.44,3.62,0,13.19,7.34,14.98,10.05-1.07-3.85-.68-5.34.45-5.34,3.11,0,11.84,11.25,11.47,15.47.29.24.59.33.89.33.76,0,1.48-.58,1.97-.58s.74.55.6,2.75c-.33,1.77-.05,3.93.67,3.93.38,0,.88-.59,1.48-2.14.21-.11.39-.17.54-.17,2.48,0-1.81,13.75-5.01,14.91-.59.49-.92.94-.65,1.81,1.7,9.01.45,18.31,6.11,18.31,2.17,0,5.35-1.36,10.09-4.62,1.95-1.3,4.05-1.7,6.23-1.7,3.43,0,7.05.98,10.63.98,2.09,0,4.15-.33,6.15-1.39,1.95-.68,3.87-.98,5.76-.98,8.17,0,15.74,5.58,22.3,10.02,6.55.48,12.33,3.88,18.05,6.64,3.01,2.11,6.27,2.79,9.66,2.79,6.18,0,12.78-2.25,19.02-2.25,2.91,0,5.75.49,8.43,1.93,14.24,1.48,26.72,8.05,40.75,9.92,1.42.2,2.73.3,2.39,2.29,10.68,7.49,26.73,12.33,40.53,13.68,1.23.46,2.55.62,3.9.62,3.11,0,6.43-.85,9.41-.85,2.65,0,5.05.67,6.8,3.19,5.23,1.27,9.63,5.6,2.92,10-2.21,1.74-4.67,2.33-7.23,2.33-5.23,0-10.88-2.44-15.72-2.44-2.26,0-4.35.53-6.13,2.1-1.48,2.46-2.94,3.79-4.82,3.79-1.03,0-2.18-.39-3.53-1.21-7.26-2.45-22.34-7.81-33.49-7.81-4.83,0-8.92,1.01-11.32,3.69-1.74,2.27-1.21,3.02.37,3.02,2.99,0,9.71-2.67,11.79-2.67h.06c.39-.03.78-.04,1.16-.04,10.45,0,18.15,9.98,28.74,9.98,1.85,0,3.79-.31,5.85-1.02,11.53-2.95,23.65.12,34.22-6.33,15.23-2.87,30.34-10.42,45.61-11.2,13.02-3.33,25.95-5.46,39.12-7.34.55.12,1.12.17,1.71.17,2.29,0,4.89-.78,7.47-1.44,1.65-.22,3.3-.45,4.95-.67.35-.12.69-.2.99-.26,1.13.04,2.19.28,3.13.83,1.99,2.09,1.69,7.02,5.26,7.02h.09c1.4-.06,2.8-.09,4.19-.09,5.56,0,11.02.41,16.47.71.94.5,2.11.74,3.32.74,1.02,0,2.06-.17,3.01-.49.88.02,1.77.03,2.65.03,3.03,0,6.08-.13,9.16-.47,4.41.05,10.74,1.79,16.34,4.71.13.09.27.18.42.27.26.12.52.25.77.38,7.98,4.5,14.01,11.42,9.95,19.18-1.87,7.29-5.56,13.29-11.37,14.88-1.28.06-2.62.26-3.92.4-2-.11-4.19-.67-6.58-1.76-.73-.27-1.3-.61-1.73-1.02-.39-.86-.64-1.83-.93-2.8.06-.57.24-1.18.51-1.85-.87-6-12.02-7.89-17.34-10.03-.34-.01-.69-.02-1.03-.02-5.03,0-9.64,1.38-14.11,1.38-3.43,0-6.77-.82-10.13-3.71-.64-.3-1.13-.42-1.5-.42-2.45,0,.23,5.63-2.2,5.63-.24,0-.54-.06-.9-.18-11.49-3.54-8.8-8.2-12.67-16.95-.4,3.8.5,12.3-4.09,12.3-.5,0-1.07-.1-1.72-.33-.23-.04-.43-.06-.61-.06-2.71,0,.35,4.55-2.89,4.86-10.22,2.84-16.86,10.68-24.36,17.33,5.66-3.8,13.56-13.21,20.65-13.21,2.27,0,4.45.96,6.46,3.39,2.92,1.5-.53,4.89,2.28,6.45,3.97,2.24,10.22,8.62,2.28,10.12-.12-.01-.23-.02-.34-.02-8.06,0,7.97,33.47,5.28,41.41.46,2.74-.36,3.78-1.48,3.78-.82,0-1.8-.57-2.53-1.44-.26-.61-.53-1.11-.82-1.38.19.51.48.98.82,1.38.93,2.18,1.74,5.83,2.82,5.83.46,0,.96-.65,1.55-2.32,7.5-16.19-11.22-36.27,1.24-50.14,3.6,2.75,5.78,8.04,10.65,9.9,2.71,1.58,5.56,1.94,8.47,1.94,2.34,0,4.72-.23,7.09-.23,1.71,0,3.41.12,5.08.53.1.01.2.02.29.02,3.51,0-2.03-7.47-2.4-9.68-1.53-1.88-.81-6.54,1.22-6.54.52,0,1.14.31,1.82,1.05.54.83,1.04,1.18,1.51,1.18.58,0,1.12-.53,1.67-1.38,2.64-2.82,5.43,0,9.1-4.66-3.12.28-7.61,2.4-11.16,2.4-2.2,0-4.04-.81-4.97-3.38.09-8.16-15.14-13.28.08-13.56,1.73-.52,3.4-.75,5.03-.75,6.92,0,13.1,4.12,19.37,7.42,1.07,1.1,1.55,2.53,1.97,3.95-.13,1.14.17,2.08.93,2.8.75,1.65,1.99,2.88,4.92,2.88h.08c.33.03.68.05,1.03.05.73,0,1.5-.06,2.27-.15.25.01.5.02.75.02,1.12,0,2.17-.14,3.17-.42.24-.01.48-.02.72-.02,2.35,0,4.46.61,5.79,3.1.64.75,1.29,1.06,1.95,1.06,2.73,0,5.6-5.26,8.21-6.13,4.88-5.35,18.25-10.22,14.06-18.75-.29-.95-.74-1.23-1.27-1.23-.65,0-1.42.4-2.19.52-.58-.19-1.07-.28-1.49-.28-1.86,0-2.29,1.72-3.04,3.63-.32,2.22-6.87,8.55-10.08,8.55-.94,0-1.59-.54-1.72-1.87,7.78-9.79-.38-18.1-9.5-22.65-.39-.22-.79-.44-1.2-.65-4.42-2.94-1.1-3.54,4.38-3.54,3.8,0,8.64.29,12.64.29,3.6,0,6.52-.24,7.4-1.13-3.19.07-6.38.12-9.56.12-19.03,0-37.73-1.76-54.98-11.64,4.47,4.14,10.1,6.37,15.04,9.53-.66.95-1.78,1.67-3.07,2.1-2.11-.05-4.22-.14-6.33-.25-.46-.25-.86-.56-1.18-.93-1.14-.73-2.41-.97-3.74-.97-2.7,0-5.69.99-8.5.99-.66,0-1.3-.05-1.93-.19h-.07c-9.01,0,.77-9.57-2.36-14.53-.75-1.6,1.94-3.53-.18-4.58-.96-.41-1.98-.76-2.99-.76-.92,0-1.82.3-2.65,1.12,3.9,1.88,6.42,1.9,4.79,7.22-.39,1.93-.9,8.56-3.11,8.56-.51,0-1.12-.36-1.84-1.21-.64-1.1-1.4-1.85-2.27-2.35-.53-.56-1.23-.92-2.22-.92-.28,0-.58.03-.91.09h-.36c-1.75,0-3.66.44-5.59.94-3.08.42-6.13.84-9.18,1.27-.73-.16-1.42-.45-2.03-.89,6.01-8.08,20.02-9.59,20.15-21.33.07-7.88,4.48-13.89,9.72-19.3,3.05-4.69,4.81-10.37,11.21-10.37.45,0,.93.03,1.44.09,5.66-.95-2.89-12.51-3.54-16.35-2.07-5.42-10.97-7.48-8.46-14.2-.8-2.54-5.91-16.21-3.56-16.21.59,0,1.66.87,3.4,3.01.27-3.75,2.66-16.78,5.43-16.78.58,0,1.18.58,1.78,1.94,2.52-2.1,4.28-8.29,6.33-8.29.83,0,1.71,1.02,2.71,3.75,2.98-1.06,7.94-9.44,10.56-9.44.77,0,1.34.73,1.59,2.58,5.52-.02,5.55-10.64,7.96-10.64M822.62,709.21c-2.01,0-7.02.63-10.08,6.45-.29.56-.55,1.12-.77,1.68-4.11.45-7.13,3.03-9.74,5.84-.78-.15-1.53-.22-2.24-.22-5.45,0-8.64,3.56-10.62,6.64-2.69.62-6.07,2.47-8.48,7.47-.86,1.78-1.62,3.97-2.34,6.7-.03.13-.07.25-.1.38-1.55.76-2.92,1.89-3.95,3.34-3.74,5.24-1.93,11.68,1.75,22.44-.35,3.33.37,6.63,2.13,9.58,1.66,2.79,3.88,4.72,5.67,6.27.52.45,1.26,1.09,1.67,1.52.51,1.6,1.26,3.2,2.12,4.93-4.66,2.78-7.26,7.3-8.92,10.19-.31.54-.61,1.07-.9,1.55-5.59,5.91-11.69,14.06-11.78,25.39-.01,1.35-.84,2.26-6.29,5.63-3.35,2.07-7.08,4.37-10.22,7.81-9.98,1.52-21.07,3.47-32.27,6.29-9.92.67-19.32,3.63-28.43,6.5-1.15.36-2.29.72-3.42,1.07-1.69-3.68-5.04-6.7-9.46-8.49-2.66-2.44-6.63-4.53-12.44-4.53-2.14,0-4.15.27-5.93.5-1.33.18-2.58.34-3.49.34-.28,0-.44-.02-.51-.03l-1.12-.42-1.29-.13c-11.9-1.17-24.42-5.05-32.99-10.13-.2-.36-.43-.7-.68-1.03-2.9-3.95-7.15-4.52-8.74-4.74l-.13-.02c-5.93-.79-11.72-2.59-17.85-4.49-6.77-2.1-13.76-4.27-21.45-5.26-3.39-1.47-7.09-2.19-11.24-2.19s-7.88.68-11.29,1.28c-2.84.5-5.52.97-7.73.97s-3.24-.49-3.93-.98l-.67-.47-.73-.35c-.87-.42-1.73-.85-2.6-1.28-4.71-2.35-9.97-4.97-16.17-5.98-6.96-4.74-15.55-10.39-25.92-10.39-3.09,0-6.13.52-9.05,1.54l-.71.25-.67.35c-.12.06-.43.23-1.47.23-1.12,0-2.55-.2-4.06-.4-1.96-.27-4.19-.58-6.56-.58-4.46,0-8.27,1.08-11.64,3.29-.09-.91-.19-1.85-.31-2.83,1.33-1.85,2.51-4.17,3.58-6.99,1.38-3.63,2.88-8.85,2.13-13.09-.51-2.9-2.01-5.32-4.11-6.94-.45-1.1-1.12-2.21-2.08-3.23-.86-.92-1.87-1.66-2.99-2.22-2.24-4.39-5.37-8.05-6.73-9.53-4.24-4.63-8.13-6.79-12.25-6.79-.91,0-1.8.11-2.66.32-5.95-4.01-9.62-4.87-11.98-5.01-2.38-2.04-5.28-3.67-8.92-3.67-1.34,0-2.63.23-3.84.67-1.16-.42-2.39-.65-3.73-.65-2.89,0-5.58,1.14-7.57,3.21-1.83,1.9-2.6,4.02-2.9,5.98-.29.34-.56.7-.81,1.08-3.49,1.62-5.19,4.7-6.09,6.74-3.21,2.59-4.9,6.51-4.51,10.6-.48.56-1,1.2-1.5,1.95l-.09.14-.09.14c-7.17,11.47-7.58,25.97-1.4,37.51-1.46,3.4-1.06,6.16-.73,7.59,1.31,8.28,6.78,16.32,13.83,20.6-1.12,2.69-1.41,5.25-1.57,6.73v.03l-.05.02-1.34,1.84c-1.77,2.43-3.46,4.6-4.94,6.51-10.34,13.3-15.2,21.28-3.7,43.6l.12.23.13.22c.66,1.13.44,3.91.24,6.6-.39,5.2-.92,12.22,3.68,18.5.17,2.29.51,6.88,4.05,10.81,3.65,4.89,8.25,10.12,13.69,15.57l2.13,2.13,1.9.39c.33.47.74,1.14,1.05,1.63,2.21,3.55,6.31,10.16,15.3,10.59h.4c.57.01,1.12.01,1.66.01,11.61,0,18.65-1.05,23.53-3.51,5.22-2.63,7.39-6.54,8.44-9.59.5.19.98.35,1.41.5.88.3,1.86.65,2.35.91.78.5,1.71,1.22,2.69,1.99,3.57,2.8,8.46,6.63,15.71,6.88l.79.03.25-.03c.58.27,1.62.94,2.33,1.4,2.89,1.86,6.85,4.4,12.18,4.4.59,0,1.18-.03,1.76-.1-2.92,6.43-6.24,12.86-9.69,19.55-10.69,20.74-21.75,42.17-22.21,66.94-.54,8.08-.87,16.22-1.19,24.09-.38,9.37-.78,19.05-1.52,28.45-2.23,13.02-4.01,28.05,2.15,42.31l.07.16.08.16c1.96,4.13,6.91,11.05,18.02,11.05,3.34,0,6.54-.61,9.39-1.17.35,6.54-.73,8.97-1.33,9.81-1.22,1.68-5.15,2.78-9.71,4.05-7.48,2.09-17.71,4.95-27.43,13.63l-1.05.94-.75,1.2c-4.7,7.49-2.86,13.21-1.34,15.95,4.22,7.64,13.7,8.62,21.48,8.62,8.91,0,19.94-1.49,29.67-2.81,6.25-.84,12.7-1.72,15.68-1.72.24,0,.39,0,.46.01l1.42.25,1.56-.22c8.66-1.23,15.09-4.78,19.11-10.56,7.13-10.25,4.17-23.8,1.56-35.76-1.18-5.38-3.07-14.03-2.16-17.6,3.17-2.92,6.55-7.98,5.98-16.08-.35-4.98-2.07-9.86-3.73-14.58-1.21-3.43-3.23-9.17-2.73-11.03l.2-.75.08-.77c.66-6.16.65-12.41.65-18.46-.02-14.18-.03-26.47,7.56-35.5,4.59-3.9,7.54-8.69,10.17-12.94,2.35-3.81,4.39-7.11,6.75-8.47,1.61-.77,5.39-2.8,7.22-7.56l.11-.28h0c.45-.46,1.65-1.26,2.47-1.81,3.4-2.28,8.99-6.02,10.62-13.57,2.1-5.84,5.99-11.1,10.1-16.66,5.41-7.32,11.46-15.5,14.01-26.15,10.77-6.98,24.15-11.52,38.25-16.31,14.38-4.88,29.25-9.93,42.26-18.02,1.15-.71,3.6-.89,6.2-1.07,2.22-.16,4.72-.34,7.34-.89-6.08,15.35-9.32,31.52-12.48,47.33-1.39,6.95-2.7,13.53-4.25,20.06-2.23,2.01-9.54,5.17-14.02,7.1-11.37,4.91-22.12,9.54-24.47,18.97-1.13,4.53,0,9.21,3.18,13.19l2.19,2.74,3.42.77c2.84.64,5.76.95,8.91.95,5.51,0,10.66-.95,15.63-1.88,4.32-.8,8.39-1.56,12.15-1.56,1.58,0,3,.13,4.33.4,3.3.86,6.43,1.3,9.31,1.3,8.73,0,13.98-3.9,16.84-7.17,3.53-4.03,5.54-9.35,6.02-15.9,1.62.04,2.84.19,3.95.32,1.09.13,2.12.25,3.26.25,4.84,0,8.77-2.34,11.06-6.58,1.09-2.02,1.7-4.2,2.72-7.81.93-3.31,2.2-7.84,4.43-14.47,1.21-3.14,2.82-7.31,4.29-10.86,4.75,4.01,11.98,8.86,23.06,11.67,3.23.85,4.35,1.84,4.24,14.76-.06,6.69-.12,14.26,2.87,20.94.57,1.44,1.16,2.86,1.74,4.24,1.66,3.94,3.23,7.68,3.67,11.02-.12,7.56,1.56,15.1,5.27,23.53.27,5-1.52,11.17-3.39,17.67-2.23,7.73-4.54,15.72-4.17,24.02l.18,3.89-2.98,2.4-.1,4.66c-.31,14.97-2.15,30.58-3.93,45.68l-.5,4.28c-1.16,5.73-.29,10.59,2.58,14.44,1.64,2.21,3.63,3.63,5.4,4.6-.69,4.15-.93,8.18-1.14,11.89-.14,2.41-.27,4.69-.51,6.89-1.48,7.94,1.43,13.26,4.18,16.35,2.94,3.32,6.57,5.17,9.77,6.81,1.82.93,3.7,1.89,4.52,2.71,5.48,5.49,14.56,9.06,23.11,9.06,10.96,0,19.24-5.95,21.61-15.52l1.5-6.04-4.76-4.01c-2.98-2.52-5.66-4.5-8.02-6.26-4.33-3.22-6.64-5-7.81-7.16-.23-.42-.43-.89-.6-1.41,11.1-.79,19.41-9.42,20.54-21.56,1.07-7.82,2.57-15.72,4.03-23.37,2.41-12.69,4.91-25.8,5.67-39.52,2.57-15.13,3.1-30.37,3.61-45.12.85-24.46,1.65-47.57,11.15-69.23,5.12-8.83,4.95-18.75,4.8-27.52-.06-3.28-.11-6.62.16-9.47,4.24-1.74,6.35-5.63,7.39-7.55l.45-.83.29-.89c.58-1.8,1.83-3.88,3.15-6.07,1.83-3.05,3.91-6.5,5.13-10.66l.33-1.11.06-1.16c1.55-28.86,6.01-33.19,11.18-38.2,6.73-6.53,12.58-13.52,15.99-33.04v-.07l.02-.07c.38-2.34.85-4.84,1.36-7.49,1.82-9.55,3.88-20.38,2.6-30.62-1.54-12.39-7.92-21.77-18.51-27.29-1.25-2.6-4-6.58-10.75-8.23-6.86-1.66-12.83-1.69-18.1-1.72-7.83-.04-11.92-.06-16.03-4.74.9-1.47,1.48-3.15,1.66-4.95.18-1.75-.04-3.25-.3-4.43,1.38-3.28,1.39-6.95-.02-10.36-.99-2.4-2.43-4.17-3.59-5.59-.15-.19-.34-.42-.51-.63-.31-2.11-1.06-7.07-5.39-10.71-.34-1.19-.87-2.67-1.82-4.16.43-2.55.68-6.5-1.86-10.33l-1.34-2.01-2.11-1.18c-1.67-.93-3.54-1.43-5.4-1.43-.39,0-.78.02-1.16.06-.37-.73-.74-1.44-1.15-2.12l-.98-1.63-1.51-1.15c-2.43-1.85-5.03-2.8-7.72-2.8-.44,0-.92.02-1.45.09h0c-3.04-3.34-6.38-4.04-8.65-4.04h0l.03.03ZM768.53,890.54c0-.06-.02-.13-.02-.19,1.47.71,3.14,1.36,5.03,1.95,1.34.44,2.68.67,3.98.67,2.11,0,4.12-.57,5.84-1.64.58.75,1.15,1.38,1.61,1.9.58.65,1.48,1.66,1.89,2.3v1.11l.61,1.71c.03.09.07.18.1.27-.64,2.09-.9,4.54-.57,6.99-1.69-.05-2.37-.31-2.8-.56l-.71-.41-.77-.29c-.54-.25-1.87-1.89-2.67-2.87-1.47-1.81-3.15-3.86-5.48-5.64l-2.88-2.2c-.96-1.13-2.03-2.16-3.15-3.08h0v-.02Z"/>
    </g>
    <g>
      <path class="st48" d="M829.49,1227.53c-7.18,0-15.05-3.06-19.6-7.62-1.37-1.36-3.5-2.45-5.76-3.61-5.36-2.74-13.45-6.88-11.27-17.96.27-2.39.41-4.8.55-7.34.28-4.91.58-9.96,1.83-15.04-.3-.14-.63-.28-.89-.39-3.03-1.31-10.08-4.36-7.84-14.99l.53-4.52c1.79-15.21,3.64-30.93,3.96-46.13l.05-2.33,1.81-1.46c1.49-1.2,2.79-2.22,3.95-3.07l-2.74-.64-.17-3.78c-.34-7.47,1.85-15.06,3.98-22.4,2.11-7.31,4.11-14.22,3.51-20.31-3.7-8.19-5.36-15.38-5.18-22.54-.46-4.13-2.22-8.3-4.07-12.7-.6-1.42-1.19-2.83-1.74-4.24-2.59-5.7-2.53-12.44-2.48-18.96.11-12.46-.59-17.72-8.01-19.65-13.84-3.5-20.9-10.29-25.11-14.35-.28-.27-.58-.56-.87-.83-1.92,3.58-4.95,11.44-7.29,17.52-2.29,6.8-3.59,11.43-4.54,14.81-1.75,6.23-3.01,10.73-8.96,10.73-.85,0-1.7-.1-2.68-.21-1.38-.16-3.1-.37-5.52-.37-1.24,0-2.55.06-3.93.17.29,7.57-1.34,13.42-4.87,17.45-2.18,2.49-6.22,5.46-13.08,5.46-2.49,0-5.24-.39-8.17-1.17-1.71-.36-3.5-.53-5.47-.53-4.21,0-8.51.8-13.06,1.64-4.75.88-9.67,1.79-14.72,1.79-2.78,0-5.34-.27-7.82-.83l-1.71-.39-1.09-1.37c-2.8-3.5-2.76-6.75-2.24-8.85,1.75-7.03,10.95-11,21.6-15.59,5.16-2.22,15.86-6.84,16.65-9.48,1.68-6.96,3.13-14.25,4.54-21.29,3.91-19.57,7.93-39.69,17.4-57.81-2.07,1.18-3.58,1.98-4.87,2.43-4.26,2.37-8.71,2.69-12.66,2.97-3.37.24-6.28.45-8.5,1.82-12.51,7.78-27.1,12.73-41.21,17.52-15.16,5.14-29.51,10.02-41.11,18.01-1.99,10.55-7.87,18.5-13.57,26.21-4.41,5.97-8.58,11.61-10.91,18.29-1.12,5.77-5.42,8.65-8.57,10.76-2.39,1.6-3.89,2.66-4.36,4.16l-.05.14-.05.14c-1.2,3.1-3.67,4.36-4.85,4.92-3.56,1.96-6.06,6-8.71,10.28-2.61,4.22-5.3,8.58-9.45,12-9.06,10.46-9.04,24.36-9.02,39.07,0,5.92.01,12.03-.62,17.92l-.04.39-.1.37c-.9,3.36,1,8.76,2.84,13.99,2.9,8.23,6.82,19.38-1.73,26.03-2.24,4.61-.35,13.25,1.48,21.63,2.51,11.49,5.11,23.37-.78,31.84-3.19,4.59-8.48,7.44-15.71,8.46l-.78.11-.77-.13c-.06,0-.39-.06-1.18-.06-3.31,0-9.64.86-16.34,1.76-9.58,1.29-20.44,2.76-29.01,2.76-6.41,0-14.15-.69-17.11-6.04-1.2-2.18-1.97-5.83,1.2-10.88l.38-.6.53-.47c8.84-7.91,18.04-10.48,25.44-12.54,5.68-1.59,10.17-2.84,12.42-5.94,2.37-3.26,2.95-9.35,1.76-18.55-1.44.11-3.21.46-5.07.83-2.71.54-5.79,1.15-8.79,1.15-7.94,0-11.73-4.46-13.51-8.19l-.07-.16c-5.66-13.09-3.9-27.34-1.77-39.71.76-9.57,1.16-19.38,1.54-28.86.32-7.88.65-16.03,1.19-24.09.4-23.65,11.2-44.6,21.65-64.86,4.16-8.07,8.45-16.39,11.94-24.68-.37-.86-.63-1.94-.75-3.26-.02-.17-.03-.38-.06-.59-.43.02-1.08.09-2.01.3-1.82.99-3.71,1.49-5.64,1.49-3.87,0-6.98-2-9.48-3.6-1.79-1.15-3.49-2.24-4.8-2.24-.1,0-.21,0-.32.02l-.39.05h-.39c-5.62-.2-9.6-3.32-12.8-5.83-1.12-.88-2.18-1.71-3.22-2.35-.87-.5-2.03-.9-3.26-1.33-1.8-.63-4-1.39-6.05-2.8-.56.82-.77,1.72-1.06,2.94-.63,2.65-1.58,6.64-6.65,9.2-4.09,2.06-10.65,2.98-21.28,2.98h-1.82c-6.37-.31-9.33-5.08-11.29-8.24-1.46-2.35-2.26-3.48-3.25-3.68l-1.48-.3-1.06-1.07c-5.35-5.36-9.85-10.49-13.38-15.23-2.53-2.68-2.76-5.86-2.92-7.99-.04-.52-.09-1.28-.18-1.62l-.04-.04-.15-.18c-4.14-4.97-3.68-11.04-3.31-15.91.29-3.77.53-7.03-.9-9.5l-.06-.11-.06-.11c-10.17-19.73-6.6-25.63,3.2-38.24,1.51-1.94,3.22-4.14,5.04-6.63l.67-.92,1-.54c.08-.04.11-.07.11-.07.26-.31.43-1.89.53-2.74.28-2.48.75-6.64,4.18-9.43-.39-.29-.79-.52-1.09-.61h-.89l-.95-.44c-6.88-3.1-12.42-10.65-13.56-18.41-.65-3.03.56-5.29,1.58-6.68-6.71-10.29-6.82-24.05-.11-34.78l.09-.14c.68-1.01,1.43-1.82,2.04-2.47.23-.25.52-.57.73-.81l-.02-.05c-1.06-3-.24-6.76,3.18-8.78.05-.11.09-.23.13-.32.73-1.8,1.95-4.81,5.29-5.55l.12-.03c.42-.99,1.07-2.1,2.11-2.88.03-1.71.33-3.38,1.68-4.78,1.04-1.08,2.45-1.68,3.97-1.68,1.28,0,2.42.38,3.78,1.22,1.39-1.04,2.89-1.24,3.8-1.24,2.75,0,5.01,1.68,7.02,3.73.36-.06.73-.08,1.12-.08,3.31,0,8.11,2.71,12.12,5.7.96-.64,2.1-.99,3.31-.99,2.62,0,5.34,1.64,8.56,5.16.62.68,4.73,5.28,6.77,10.16,1.14.21,2.17.77,2.98,1.63.87.93,1.3,2.03,1.5,3.1,1.6.68,2.99,2.15,3.41,4.52.61,3.48-1.81,13.18-6.05,17.64.32,2.08.51,4.1.69,5.94.2,2.02.48,4.91.91,6.34.95-.28,2.92-1.11,6.55-3.61,2.62-1.75,5.56-2.58,9.06-2.58,2.04,0,3.99.27,5.88.53,1.69.23,3.28.45,4.74.45,1.58,0,2.75-.25,3.81-.81l.33-.18.36-.12c2.39-.83,4.88-1.26,7.41-1.26,9.15,0,17.24,5.52,23.74,9.96l.32.22c5.92.74,11.14,3.34,15.79,5.66.89.45,1.78.89,2.67,1.32l.37.18.33.23c1.86,1.3,3.95,1.88,6.8,1.88,2.64,0,5.53-.51,8.59-1.05,3.37-.59,6.86-1.21,10.43-1.21s6.95.67,9.87,2.06c7.56.89,14.56,3.07,21.34,5.17,6.34,1.97,12.33,3.83,18.63,4.67l.16.02c1.31.18,3.74.51,5.39,2.75.3.4.6.92.83,1.56,9.21,5.83,23.19,10.32,36.37,11.61l.65.06.61.23c.55.21,1.26.3,2.16.3,1.24,0,2.65-.19,4.15-.39,1.7-.23,3.46-.46,5.27-.46,4.04,0,7.29,1.29,9.69,3.84,4.55,1.57,7.68,4.67,8.32,8.35.1.6.16,1.35.08,2.2,2.86-.82,5.76-1.73,8.74-2.67,8.96-2.82,18.22-5.74,27.7-6.31,11.85-3,23.64-5.03,34.1-6.59,2.84-3.65,6.76-6.08,10.24-8.22,5.5-3.4,8.62-5.53,8.66-9.85.09-9.82,5.72-17.09,10.77-22.36.42-.67.83-1.38,1.25-2.12,2.19-3.82,5.11-8.89,11.44-9.94-.58-1.36-1.35-2.89-1.86-3.92-1.17-2.34-2.12-4.25-2.55-5.99-.48-.9-1.73-1.99-2.95-3.05-2.78-2.42-7.28-6.32-5.96-12.57-.04-.11-.08-.22-.12-.34-4.19-12.18-4.71-15.85-2.68-18.69.97-1.36,2.44-2.18,4.09-2.29.22-1.03.46-2.06.72-3.06.91-3.48,2.81-10.72,8.49-10.72.16,0,.33,0,.51.02,1.59-2.87,3.58-6.37,7.6-6.37,1.47,0,2.66.47,3.63,1.18.13-.15.25-.29.37-.42,3-3.46,5.6-6.45,9.27-6.45.44,0,1.22.06,2.1.37.19-.5.35-.99.49-1.36.97-2.82,2.45-7.07,6.97-7.07,1.26,0,3.14.42,4.95,2.4l.32.36.25.41c.42.69.8,1.3,1.14,1.83.98-.69,2.13-1.04,3.43-1.04,1.59,0,3.13.58,4.69,1.77l.76.58.49.81c.44.73.87,1.58,1.32,2.49.4.8,1.07,2.16,1.71,3.18.81-.6,1.99-1.21,3.56-1.21,1.03,0,2.02.27,2.96.79l1.05.59.67,1.01c1.91,2.87,1.28,5.91.86,7.92-.06.28-.13.63-.18.94,1.81,1.8,2.33,4.01,2.66,5.42.03.13.07.28.1.42,3.97,2.46,4.57,6.5,4.86,8.5l.08.56-.03.37c.21.48,1.02,1.48,1.52,2.1,1.81,2.23,5.56,6.85,2.2,12.16.05.24.12.52.17.74,1.26,5.06-.61,7.62-2.75,8.91,6.51,10.04,12.6,10.07,22.5,10.12,5,.03,10.66.05,16.93,1.57,5.17,1.26,6.88,4.01,7.97,6.79.03.08.07.17.1.25,23.01,10.55,18.31,35.23,14.88,53.31-.51,2.69-.99,5.23-1.38,7.64-3.43,19.58-9.34,25.32-14.56,30.38-5.67,5.5-11.03,10.7-12.69,41.52l-.03.58-.16.56c-1.04,3.54-2.86,6.57-4.62,9.49-1.48,2.45-2.87,4.77-3.62,7.13l-.14.45-.22.41c-1.24,2.28-3.09,5.7-7.39,5.8-.94,3.88-.85,8.68-.77,13.68.14,8.19.3,17.47-4.26,25.16-10,22.62-10.82,46.28-11.69,71.33-.51,14.68-1.03,29.85-3.59,44.73-.73,13.5-3.21,26.54-5.61,39.15-1.47,7.75-3,15.76-4.08,23.74-.9,10.12-7.97,17.18-17.23,17.18-1.43,0-2.86-.18-4.26-.52.42,9.92,4,12.58,11.36,18.05,2.3,1.71,4.91,3.65,7.78,6.07l2.38,2.01-.75,3.02c-1.82,7.34-8.09,11.73-16.76,11.73h-.07ZM816.07,1089.23s.07-.02.1-.03c.06-.14.13-.29.2-.43h-.05c-.08.15-.17.3-.25.45h0ZM834.59,1070.47c-1,0-1.23.6-1.28.79-.16.61.59,1.14,1.05,1.4l.03.02c.75-.65,1.69-1.3,2.82-1.7-.86-.03-1.72-.2-2.57-.5h-.05ZM771.53,899.8c1.87,1.43,3.28,3.16,4.64,4.83,1.63,2,3.03,3.72,4.76,4.38l.38.15.36.21c1.52.89,3.24,1.25,5.95,1.25,1.05,0,2.14-.05,3.29-.11.99-.05,2.01-.1,3.05-.11-.36-.73-.66-1.4-.89-2.06-1.69-2.98-1.45-6.98-.23-9.54.05-.12.11-.23.17-.34-.33-.56-.61-1.17-.85-1.82l-.31-.86v-.91c.03-1.39-1.81-3.46-3.16-4.97-1.03-1.16-2.27-2.55-2.97-4.15-.98-.27-1.94-.61-2.86-1.03-.25.49-.58.98-1.01,1.43-1.12,1.17-2.66,1.81-4.33,1.82-.79,0-1.6-.14-2.45-.43-5.2-1.61-8.25-3.63-10.23-6.06-1.03.85-2.33,1.44-3.98,1.6-.28.89-.69,1.61-1.17,2.18.33.3.65.63.98.98,2.14,1.5,3.12,3.8,2.94,6.87,1.53,1.04,3.21,2.45,4.55,4.12l3.36,2.57h0Z"/>
      <path class="st48" d="M822.62,719.21c.36,0,.76.23,1.25.77,3.33,5.47,4.94,7.13,5.86,7.13,1.41,0,1.17-3.95,2.98-3.95.43,0,.96.22,1.66.75,1.5,2.47,3.83,9.02,7.08,9.02.72,0,1.49-.32,2.31-1.09.48-.36.86-1.05,1.47-1.05.16,0,.33.05.52.15,1.69,2.54-1.95,6.86.94,9.32,2.26,1.65,1.14,5.37,3.56,6.6,2.24,1.13,2.69,3.05,3.02,5.24-.35,4.49,7.15,7.66,4.47,11.82-2.48,2.87,1.81,6.82-1.27,8.19h-.12c-.43,0-1.07-.2-1.48-.2-.29,0-.46.1-.35.44.62,1.96-1.78,4.01.05,5.55,12.02,19.52,25.17,10.5,43.09,14.84,5.62,1.37,3.43,4.64,6.5,6.43,23.22,10.07,14.38,36.82,11.31,55.91-7.14,40.81-24.17,14.02-27.31,72.43-1.69,5.76-6.31,10.58-8.2,16.5-1.2,2.22-1.87,3.19-3.19,3.19-.72,0-1.64-.29-2.94-.81-6.06,11.39,1.23,29.99-6.32,42.34-16.76,37.6-9,78.51-15.81,117.82-1.12,21.54-6.81,41.67-9.69,62.9-.7,8.39-6.23,12.73-12.26,12.73-3.09,0-6.31-1.14-9.08-3.47-1.61,23.82,6.46,23.85,20.73,35.89-1.41,5.7-6.37,7.93-11.91,7.93-5.91,0-12.47-2.55-16.06-6.15-5.94-5.91-17.95-6.1-15.63-17.26.92-7.99.45-16.16,2.86-23.98-.71-5.99-11.74-2.34-9.21-13.74,2-17.11,4.19-34.35,4.55-51.36,4.67-3.76,7.16-5.45,8.64-5.45,2.3,0,2.15,4.08,4.01,10.73,7.61,4.04,5.89,7.97,6.68,16.09,0,.02,0,.03.01.05-.1,2.48-.41,4.93-.96,7.34-1.56,3.67-4.13,7.12-4.48,10.96,2.17-3.53,3.62-7.19,4.48-10.96.98-2.3,1.56-4.7.96-7.34.24-5.98-.72-12.13-2.41-18.3-2.82-4.11-8.37-10.65-1.31-14.95,2.82-2.8,4.8-4.27,6.73-4.27s3.89,1.53,6.62,4.74c1.52,1.03,2.79,1.48,3.85,1.48,2.85,0,4.25-3.23,5.35-7.02.97-2.59,1.73-5.83,2.71-8.98.45-.96.96-1.76,1.58-2.29,3.55-3.15,2.49-8.89,6.81-11.4,2.03-2.35,5.09-4.69,6.25-7.38.48-1.83,1.21-9.67-.76-9.67-.4,0-.92.33-1.57,1.09-.6,5.69-5.35,7.43-9.32,10.53-.78.55-1.54.93-2.4.93-.48,0-1-.12-1.56-.4-.45-.07-.89-.11-1.31-.11-6.3,0-9.07,7.97-2.68,11.55.79,1.44,1.53,1.96,2.23,1.96,1.81,0,3.43-3.4,5.29-3.4.38,0,.77.14,1.17.48-1.7,2.22-2.82,5.12-3.75,8.09-1.12,2.41-1.82,5.88-2.71,8.98-1.18,3.13-2.67,5.33-5.25,5.33-2.06,0-4.81-1.39-8.64-4.82,0-3.92,3.42-6.08,6.35-7.8,4.1-1.94,1.37-7.21-1.85-7.21-.92,0-1.87.42-2.72,1.47-2.02,2.3-4.23,3.76-7.2,3.76-.29,0-.59-.01-.9-.04-2.72,1.93-3.16,8.13-8.41,8.13-.24,0-.5-.01-.77-.04h-.19c-3.28,0-1.57,6.63-4.92,6.63-.23,0-.47-.03-.75-.09-.64-14.06,9.21-30.01,7.37-43.85-3.14-6.77-5.3-13.76-5.05-21.37-.63-6.5-3.86-12.66-6.21-18.71-6.02-12.96,4.92-36.62-13.84-41.5-19.22-4.86-23.87-16.52-27.81-16.52-2.68,0-5.03,5.4-11.43,22-6.5,19.28-5.41,22.24-8.8,22.24-1.5,0-3.89-.58-8.2-.58-2.43,0-5.48.18-9.33.76,1.68,12.58-1.41,22.32-12.55,22.32-2.05,0-4.38-.33-7-1.04-2.22-.48-4.43-.67-6.64-.67-9.32,0-18.57,3.43-27.78,3.43-2.24,0-4.48-.2-6.71-.71-9.75-12.19,33.92-18.22,36.95-29.54,7.15-29.63,9.66-61.77,27.29-87.68.67-1.93.23-2.67-.88-2.67-3.44,0-13.3,7.11-16.19,7.82-6.79,4.09-15.22,1.11-21.76,5.15-25.65,15.95-60.77,19.68-84.3,36.93-2.45,18.54-18.92,28.88-24.73,46.1-1.2,7.47-10.67,7.82-12.85,14.67-.46,1.19-1.34,1.73-2.44,2.25-8.82,4.72-11.3,16.71-19.38,23.14-14.66,16.52-8.97,39.9-11.14,60.07-3.11,11.63,13.55,30.37,2.15,37.88-10.14,15.64,19.67,55.94-11.91,60.41-.53-.09-1.22-.13-2.03-.13-8.43,0-30.84,4.52-45.35,4.52-9.93,0-16.16-2.12-11.68-9.25,22.36-20,47.64-2.26,40.7-45.05-1.03-.54-2.25-.75-3.61-.75-4.26,0-9.82,2.02-14.68,2.02-3.71,0-7.01-1.18-8.99-5.34-5.06-11.72-3.5-24.9-1.4-37.1,1.42-17.71,1.57-35.53,2.77-53.37.51-33.22,22.89-61.32,34.71-91.5-.36.17-.65.25-.88.25-2.23,0,1.02-7.35-5.85-7.35-1.09,0-2.43.18-4.09.61-1.33.84-2.57,1.18-3.75,1.18-4.92,0-8.85-5.84-14.28-5.84-.31,0-.62.02-.93.06-5.65-.19-9.23-4.77-13.61-7.46-3.79-2.22-8.84-2.25-11.47-6.48-13.41,7.31,4.14,16.76-29.39,16.76h-1.58c-7.18-.35-7.07-10.45-13.79-11.82-4.4-4.41-9.22-9.68-13.1-14.95-2.88-2.77-.66-7.2-3.26-9.77-5.49-6.59.86-16.82-3.74-24.72-10.72-20.8-4.58-22.59,7.84-39.64,5.63-3.03.63-11.4,7.59-13.83,3.55-2.62-2.53-8.37-6.01-8.42-5.34-2.41-9.88-8.7-10.7-14.76-.86-3.43,4.21-4.17,1.66-7.33-6.46-8.78-6.69-21.27-.88-30.57,1.73-2.58,4.83-3.94,3.31-7.79-.34-.97-.2-2.4,1.63-3.1,1.42-.44,1.83-4.67,3.34-5,.67.66,1.18.93,1.6.93,1.73,0,1.57-4.73,2.74-4.73.41,0,.97.57,1.83,2.09.29-4.54-.57-7.54.63-7.54.75,0,2.32,1.19,5.49,3.93.27-2.89,1.06-3.94,2.09-3.94,2.01,0,4.95,3.98,6.88,6.09-.42-1.75.14-2.44,1.25-2.44,3.62,0,13.19,7.34,14.98,10.05-1.07-3.85-.68-5.34.45-5.34,3.11,0,11.84,11.25,11.47,15.47.29.24.59.33.89.33.76,0,1.48-.58,1.97-.58s.74.55.6,2.75c-.33,1.77-.05,3.93.67,3.93.38,0,.88-.59,1.48-2.14.21-.11.39-.17.54-.17,2.48,0-1.81,13.75-5.01,14.91-.59.49-.92.94-.65,1.81,1.7,9.01.45,18.31,6.11,18.31,2.17,0,5.35-1.36,10.09-4.62,1.95-1.3,4.05-1.7,6.23-1.7,3.43,0,7.05.98,10.63.98,2.09,0,4.15-.33,6.15-1.39,1.95-.68,3.87-.98,5.76-.98,8.17,0,15.74,5.58,22.3,10.02,6.55.48,12.33,3.88,18.05,6.64,3.01,2.11,6.27,2.79,9.66,2.79,6.18,0,12.78-2.25,19.02-2.25,2.91,0,5.75.49,8.43,1.93,14.24,1.48,26.72,8.05,40.75,9.92,1.42.2,2.73.3,2.39,2.29,10.68,7.49,26.73,12.33,40.53,13.68,1.23.46,2.55.62,3.9.62,3.11,0,6.43-.85,9.41-.85,2.65,0,5.05.67,6.8,3.19,5.23,1.27,9.63,5.6,2.92,10-2.21,1.74-4.67,2.33-7.23,2.33-5.23,0-10.88-2.44-15.72-2.44-2.26,0-4.35.53-6.13,2.1-1.48,2.46-2.94,3.79-4.82,3.79-1.03,0-2.18-.39-3.53-1.21-7.26-2.45-22.34-7.81-33.49-7.81-4.83,0-8.92,1.01-11.32,3.69-1.74,2.27-1.21,3.02.37,3.02,2.99,0,9.71-2.67,11.79-2.67h.06c.39-.03.78-.04,1.16-.04,10.45,0,18.15,9.98,28.74,9.98,1.85,0,3.79-.31,5.85-1.02,11.53-2.95,23.65.12,34.22-6.33,15.23-2.87,30.34-10.42,45.61-11.2,13.02-3.33,25.95-5.46,39.12-7.34.55.12,1.12.17,1.71.17,2.29,0,4.89-.78,7.47-1.44,1.65-.22,3.3-.45,4.95-.67.35-.12.69-.2.99-.26,1.13.04,2.19.28,3.13.83,1.99,2.09,1.69,7.02,5.26,7.02h.09c1.4-.06,2.8-.09,4.19-.09,5.56,0,11.02.41,16.47.71.94.5,2.11.74,3.32.74,1.02,0,2.06-.17,3.01-.49.88.02,1.77.03,2.65.03,3.03,0,6.08-.13,9.16-.47,4.41.05,10.74,1.79,16.34,4.71.13.09.27.18.42.27.26.12.52.25.77.38,7.98,4.5,14.01,11.42,9.95,19.18-1.87,7.29-5.56,13.29-11.37,14.88-1.28.06-2.62.26-3.92.4-2-.11-4.19-.67-6.58-1.76-.73-.27-1.3-.61-1.73-1.02-.39-.86-.64-1.83-.93-2.8.06-.57.24-1.18.51-1.85-.87-6-12.02-7.89-17.34-10.03-.34-.01-.69-.02-1.03-.02-5.03,0-9.64,1.38-14.11,1.38-3.43,0-6.77-.82-10.13-3.71-.64-.3-1.13-.42-1.5-.42-2.45,0,.23,5.63-2.2,5.63-.24,0-.54-.06-.9-.18-11.49-3.54-8.8-8.2-12.67-16.95-.4,3.8.5,12.3-4.09,12.3-.5,0-1.07-.1-1.72-.33-.23-.04-.43-.06-.61-.06-2.71,0,.35,4.55-2.89,4.86-10.22,2.84-16.86,10.68-24.36,17.33,5.66-3.8,13.56-13.21,20.65-13.21,2.27,0,4.45.96,6.46,3.39,2.92,1.5-.53,4.89,2.28,6.45,3.97,2.24,10.22,8.62,2.28,10.12-.12-.01-.23-.02-.34-.02-8.06,0,7.97,33.47,5.28,41.41.46,2.74-.36,3.78-1.48,3.78-.82,0-1.8-.57-2.53-1.44-.26-.61-.53-1.11-.82-1.38.19.51.48.98.82,1.38.93,2.18,1.74,5.83,2.82,5.83.46,0,.96-.65,1.55-2.32,7.5-16.19-11.22-36.27,1.24-50.14,3.6,2.75,5.78,8.04,10.65,9.9,2.71,1.58,5.56,1.94,8.47,1.94,2.34,0,4.72-.23,7.09-.23,1.71,0,3.41.12,5.08.53.1.01.2.02.29.02,3.51,0-2.03-7.47-2.4-9.68-1.53-1.88-.81-6.54,1.22-6.54.52,0,1.14.31,1.82,1.05.54.83,1.04,1.18,1.51,1.18.58,0,1.12-.53,1.67-1.38,2.64-2.82,5.43,0,9.1-4.66-3.12.28-7.61,2.4-11.16,2.4-2.2,0-4.04-.81-4.97-3.38.09-8.16-15.14-13.28.08-13.56,1.73-.52,3.4-.75,5.03-.75,6.92,0,13.1,4.12,19.37,7.42,1.07,1.1,1.55,2.53,1.97,3.95-.13,1.14.17,2.08.93,2.8.75,1.65,1.99,2.88,4.92,2.88h.08c.33.03.68.05,1.03.05.73,0,1.5-.06,2.27-.15.25.01.5.02.75.02,1.12,0,2.17-.14,3.17-.42.24-.01.48-.02.72-.02,2.35,0,4.46.61,5.79,3.1.64.75,1.29,1.06,1.95,1.06,2.73,0,5.6-5.26,8.21-6.13,4.88-5.35,18.25-10.22,14.06-18.75-.29-.95-.74-1.23-1.27-1.23-.65,0-1.42.4-2.19.52-.58-.19-1.07-.28-1.49-.28-1.86,0-2.29,1.72-3.04,3.63-.32,2.22-6.87,8.55-10.08,8.55-.94,0-1.59-.54-1.72-1.87,7.78-9.79-.38-18.1-9.5-22.65-.39-.22-.79-.44-1.2-.65-4.42-2.94-1.1-3.54,4.38-3.54,3.8,0,8.64.29,12.64.29,3.6,0,6.52-.24,7.4-1.13-3.19.07-6.38.12-9.56.12-19.03,0-37.73-1.76-54.98-11.64,4.47,4.14,10.1,6.37,15.04,9.53-.66.95-1.78,1.67-3.07,2.1-2.11-.05-4.22-.14-6.33-.25-.46-.25-.86-.56-1.18-.93-1.14-.73-2.41-.97-3.74-.97-2.7,0-5.69.99-8.5.99-.66,0-1.3-.05-1.93-.19h-.07c-9.01,0,.77-9.57-2.36-14.53-.75-1.6,1.94-3.53-.18-4.58-.96-.41-1.98-.76-2.99-.76-.92,0-1.82.3-2.65,1.12,3.9,1.88,6.42,1.9,4.79,7.22-.39,1.93-.9,8.56-3.11,8.56-.51,0-1.12-.36-1.84-1.21-.64-1.1-1.4-1.85-2.27-2.35-.53-.56-1.23-.92-2.22-.92-.28,0-.58.03-.91.09h-.36c-1.75,0-3.66.44-5.59.94-3.08.42-6.13.84-9.18,1.27-.73-.16-1.42-.45-2.03-.89,6.01-8.08,20.02-9.59,20.15-21.33.07-7.88,4.48-13.89,9.72-19.3,3.05-4.69,4.81-10.37,11.21-10.37.45,0,.93.03,1.44.09,5.66-.95-2.89-12.51-3.54-16.35-2.07-5.42-10.97-7.48-8.46-14.2-.8-2.54-5.91-16.21-3.56-16.21.59,0,1.66.87,3.4,3.01.27-3.75,2.66-16.78,5.43-16.78.58,0,1.18.58,1.78,1.94,2.52-2.1,4.28-8.29,6.33-8.29.83,0,1.71,1.02,2.71,3.75,2.98-1.06,7.94-9.44,10.56-9.44.77,0,1.34.73,1.59,2.58,5.52-.02,5.55-10.64,7.96-10.64M822.62,709.21c-2.01,0-7.02.63-10.08,6.45-.29.56-.55,1.12-.77,1.68-4.11.45-7.13,3.03-9.74,5.84-.78-.15-1.53-.22-2.24-.22-5.45,0-8.64,3.56-10.62,6.64-2.69.62-6.07,2.47-8.48,7.47-.86,1.78-1.62,3.97-2.34,6.7-.03.13-.07.25-.1.38-1.55.76-2.92,1.89-3.95,3.34-3.74,5.24-1.93,11.68,1.75,22.44-.35,3.33.37,6.63,2.13,9.58,1.66,2.79,3.88,4.72,5.67,6.27.52.45,1.26,1.09,1.67,1.52.51,1.6,1.26,3.2,2.12,4.93-4.66,2.78-7.26,7.3-8.92,10.19-.31.54-.61,1.07-.9,1.55-5.59,5.91-11.69,14.06-11.78,25.39-.01,1.35-.84,2.26-6.29,5.63-3.35,2.07-7.08,4.37-10.22,7.81-9.98,1.52-21.07,3.47-32.27,6.29-9.92.67-19.32,3.63-28.43,6.5-1.15.36-2.29.72-3.42,1.07-1.69-3.68-5.04-6.7-9.46-8.49-2.66-2.44-6.63-4.53-12.44-4.53-2.14,0-4.15.27-5.93.5-1.33.18-2.58.34-3.49.34-.28,0-.44-.02-.51-.03l-1.12-.42-1.29-.13c-11.9-1.17-24.42-5.05-32.99-10.13-.2-.36-.43-.7-.68-1.03-2.9-3.95-7.15-4.52-8.74-4.74l-.13-.02c-5.93-.79-11.72-2.59-17.85-4.49-6.77-2.1-13.76-4.27-21.45-5.26-3.39-1.47-7.09-2.19-11.24-2.19s-7.88.68-11.29,1.28c-2.84.5-5.52.97-7.73.97s-3.24-.49-3.93-.98l-.67-.47-.73-.35c-.87-.42-1.73-.85-2.6-1.28-4.71-2.35-9.97-4.97-16.17-5.98-6.96-4.74-15.55-10.39-25.92-10.39-3.09,0-6.13.52-9.05,1.54l-.71.25-.67.35c-.12.06-.43.23-1.47.23-1.12,0-2.55-.2-4.06-.4-1.96-.27-4.19-.58-6.56-.58-4.46,0-8.27,1.08-11.64,3.29-.09-.91-.19-1.85-.31-2.83,1.33-1.85,2.51-4.17,3.58-6.99,1.38-3.63,2.88-8.85,2.13-13.09-.51-2.9-2.01-5.32-4.11-6.94-.45-1.1-1.12-2.21-2.08-3.23-.86-.92-1.87-1.66-2.99-2.22-2.24-4.39-5.37-8.05-6.73-9.53-4.24-4.63-8.13-6.79-12.25-6.79-.91,0-1.8.11-2.66.32-5.95-4.01-9.62-4.87-11.98-5.01-2.38-2.04-5.28-3.67-8.92-3.67-1.34,0-2.63.23-3.84.67-1.16-.42-2.39-.65-3.73-.65-2.89,0-5.58,1.14-7.57,3.21-1.83,1.9-2.6,4.02-2.9,5.98-.29.34-.56.7-.81,1.08-3.49,1.62-5.19,4.7-6.09,6.74-3.21,2.59-4.9,6.51-4.51,10.6-.48.56-1,1.2-1.5,1.95l-.09.14-.09.14c-7.17,11.47-7.58,25.97-1.4,37.51-1.46,3.4-1.06,6.16-.73,7.59,1.31,8.28,6.78,16.32,13.83,20.6-1.12,2.69-1.41,5.25-1.57,6.73v.03l-.05.02-1.34,1.84c-1.77,2.43-3.46,4.6-4.94,6.51-10.34,13.3-15.2,21.28-3.7,43.6l.12.23.13.22c.66,1.13.44,3.91.24,6.6-.39,5.2-.92,12.22,3.68,18.5.17,2.29.51,6.88,4.05,10.81,3.65,4.89,8.25,10.12,13.69,15.57l2.13,2.13,1.9.39c.33.47.74,1.14,1.05,1.63,2.21,3.55,6.31,10.16,15.3,10.59h.4c.57.01,1.12.01,1.66.01,11.61,0,18.65-1.05,23.53-3.51,5.22-2.63,7.39-6.54,8.44-9.59.5.19.98.35,1.41.5.88.3,1.86.65,2.35.91.78.5,1.71,1.22,2.69,1.99,3.57,2.8,8.46,6.63,15.71,6.88l.79.03.25-.03c.58.27,1.62.94,2.33,1.4,2.89,1.86,6.85,4.4,12.18,4.4.59,0,1.18-.03,1.76-.1-2.92,6.43-6.24,12.86-9.69,19.55-10.69,20.74-21.75,42.17-22.21,66.94-.54,8.08-.87,16.22-1.19,24.09-.38,9.37-.78,19.05-1.52,28.45-2.23,13.02-4.01,28.05,2.15,42.31l.07.16.08.16c1.96,4.13,6.91,11.05,18.02,11.05,3.34,0,6.54-.61,9.39-1.17.35,6.54-.73,8.97-1.33,9.81-1.22,1.68-5.15,2.78-9.71,4.05-7.48,2.09-17.71,4.95-27.43,13.63l-1.05.94-.75,1.2c-4.7,7.49-2.86,13.21-1.34,15.95,4.22,7.64,13.7,8.62,21.48,8.62,8.91,0,19.94-1.49,29.67-2.81,6.25-.84,12.7-1.72,15.68-1.72.24,0,.39,0,.46.01l1.42.25,1.56-.22c8.66-1.23,15.09-4.78,19.11-10.56,7.13-10.25,4.17-23.8,1.56-35.76-1.18-5.38-3.07-14.03-2.16-17.6,3.17-2.92,6.55-7.98,5.98-16.08-.35-4.98-2.07-9.86-3.73-14.58-1.21-3.43-3.23-9.17-2.73-11.03l.2-.75.08-.77c.66-6.16.65-12.41.65-18.46-.02-14.18-.03-26.47,7.56-35.5,4.59-3.9,7.54-8.69,10.17-12.94,2.35-3.81,4.39-7.11,6.75-8.47,1.61-.77,5.39-2.8,7.22-7.56l.11-.28h0c.45-.46,1.65-1.26,2.47-1.81,3.4-2.28,8.99-6.02,10.62-13.57,2.1-5.84,5.99-11.1,10.1-16.66,5.41-7.32,11.46-15.5,14.01-26.15,10.77-6.98,24.15-11.52,38.25-16.31,14.38-4.88,29.25-9.93,42.26-18.02,1.15-.71,3.6-.89,6.2-1.07,2.22-.16,4.72-.34,7.34-.89-6.08,15.35-9.32,31.52-12.48,47.33-1.39,6.95-2.7,13.53-4.25,20.06-2.23,2.01-9.54,5.17-14.02,7.1-11.37,4.91-22.12,9.54-24.47,18.97-1.13,4.53,0,9.21,3.18,13.19l2.19,2.74,3.42.77c2.84.64,5.76.95,8.91.95,5.51,0,10.66-.95,15.63-1.88,4.32-.8,8.39-1.56,12.15-1.56,1.58,0,3,.13,4.33.4,3.3.86,6.43,1.3,9.31,1.3,8.73,0,13.98-3.9,16.84-7.17,3.53-4.03,5.54-9.35,6.02-15.9,1.62.04,2.84.19,3.95.32,1.09.13,2.12.25,3.26.25,4.84,0,8.77-2.34,11.06-6.58,1.09-2.02,1.7-4.2,2.72-7.81.93-3.31,2.2-7.84,4.43-14.47,1.21-3.14,2.82-7.31,4.29-10.86,4.75,4.01,11.98,8.86,23.06,11.67,3.23.85,4.35,1.84,4.24,14.76-.06,6.69-.12,14.26,2.87,20.94.57,1.44,1.16,2.86,1.74,4.24,1.66,3.94,3.23,7.68,3.67,11.02-.12,7.56,1.56,15.1,5.27,23.53.27,5-1.52,11.17-3.39,17.67-2.23,7.73-4.54,15.72-4.17,24.02l.18,3.89-2.98,2.4-.1,4.66c-.31,14.97-2.15,30.58-3.93,45.68l-.5,4.28c-1.16,5.73-.29,10.59,2.58,14.44,1.64,2.21,3.63,3.63,5.4,4.6-.69,4.15-.93,8.18-1.14,11.89-.14,2.41-.27,4.69-.51,6.89-1.48,7.94,1.43,13.26,4.18,16.35,2.94,3.32,6.57,5.17,9.77,6.81,1.82.93,3.7,1.89,4.52,2.71,5.48,5.49,14.56,9.06,23.11,9.06,10.96,0,19.24-5.95,21.61-15.52l1.5-6.04-4.76-4.01c-2.98-2.52-5.66-4.5-8.02-6.26-4.33-3.22-6.64-5-7.81-7.16-.23-.42-.43-.89-.6-1.41,11.1-.79,19.41-9.42,20.54-21.56,1.07-7.82,2.57-15.72,4.03-23.37,2.41-12.69,4.91-25.8,5.67-39.52,2.57-15.13,3.1-30.37,3.61-45.12.85-24.46,1.65-47.57,11.15-69.23,5.12-8.83,4.95-18.75,4.8-27.52-.06-3.28-.11-6.62.16-9.47,4.24-1.74,6.35-5.63,7.39-7.55l.45-.83.29-.89c.58-1.8,1.83-3.88,3.15-6.07,1.83-3.05,3.91-6.5,5.13-10.66l.33-1.11.06-1.16c1.55-28.86,6.01-33.19,11.18-38.2,6.73-6.53,12.58-13.52,15.99-33.04v-.07l.02-.07c.38-2.34.85-4.84,1.36-7.49,1.82-9.55,3.88-20.38,2.6-30.62-1.54-12.39-7.92-21.77-18.51-27.29-1.25-2.6-4-6.58-10.75-8.23-6.86-1.66-12.83-1.69-18.1-1.72-7.83-.04-11.92-.06-16.03-4.74.9-1.47,1.48-3.15,1.66-4.95.18-1.75-.04-3.25-.3-4.43,1.38-3.28,1.39-6.95-.02-10.36-.99-2.4-2.43-4.17-3.59-5.59-.15-.19-.34-.42-.51-.63-.31-2.11-1.06-7.07-5.39-10.71-.34-1.19-.87-2.67-1.82-4.16.43-2.55.68-6.5-1.86-10.33l-1.34-2.01-2.11-1.18c-1.67-.93-3.54-1.43-5.4-1.43-.39,0-.78.02-1.16.06-.37-.73-.74-1.44-1.15-2.12l-.98-1.63-1.51-1.15c-2.43-1.85-5.03-2.8-7.72-2.8-.44,0-.92.02-1.45.09h0c-3.04-3.34-6.38-4.04-8.65-4.04h0l.03.03ZM768.53,890.54c0-.06-.02-.13-.02-.19,1.47.71,3.14,1.36,5.03,1.95,1.34.44,2.68.67,3.98.67,2.11,0,4.12-.57,5.84-1.64.58.75,1.15,1.38,1.61,1.9.58.65,1.48,1.66,1.89,2.3v1.11l.61,1.71c.03.09.07.18.1.27-.64,2.09-.9,4.54-.57,6.99-1.69-.05-2.37-.31-2.8-.56l-.71-.41-.77-.29c-.54-.25-1.87-1.89-2.67-2.87-1.47-1.81-3.15-3.86-5.48-5.64l-2.88-2.2c-.96-1.13-2.03-2.16-3.15-3.08h0v-.02Z"/>
    </g>
    <g id="BYhGZJ.tif">
      <g>
        <path d="M755.91,851.34c6.01-8.08,20.02-9.59,20.15-21.33.07-7.88,4.48-13.89,9.72-19.3,3.26-5.02,5.05-11.19,12.65-10.29,5.66-.95-2.89-12.51-3.54-16.35-2.07-5.42-10.97-7.48-8.46-14.2-1-3.18-8.78-23.83-.16-13.2.33-4.53,3.76-22.67,7.21-14.84,3.55-2.95,5.58-13.99,9.04-4.53,3.86-1.38,11.03-15.01,12.15-6.86,6.33-.03,5.44-14.02,9.21-9.88,9.66,15.88,4.88-.35,10.51,3.93,1.83,3.02,4.9,12.14,9.39,7.93.61-.45,1.04-1.43,1.99-.9,1.69,2.54-1.95,6.86.94,9.32,2.26,1.65,1.14,5.37,3.56,6.6,2.24,1.13,2.69,3.05,3.02,5.24-.35,4.49,7.15,7.66,4.47,11.82-2.48,2.87,1.81,6.82-1.27,8.19-.69.08-2.22-.63-1.94.25.62,1.96-1.78,4.01.05,5.55,12.02,19.52,25.17,10.5,43.09,14.84,5.62,1.37,3.43,4.64,6.5,6.43,23.22,10.07,14.38,36.82,11.31,55.91-7.14,40.81-24.17,14.02-27.31,72.43-1.69,5.76-6.31,10.58-8.2,16.5-1.86,3.43-2.43,3.87-6.14,2.37-6.06,11.39,1.23,29.99-6.32,42.34-16.76,37.6-9,78.51-15.81,117.82-1.12,21.54-6.81,41.67-9.69,62.9-1.06,12.68-13.17,16.13-21.34,9.27-1.61,23.82,6.46,23.85,20.73,35.89-2.92,11.78-21.01,8.76-27.97,1.78-5.94-5.91-17.95-6.1-15.63-17.26.92-7.99.45-16.16,2.86-23.98-.71-5.99-11.74-2.34-9.21-13.74,2-17.11,4.19-34.35,4.55-51.36,11.95-9.62,9.6-5.64,12.64,5.28,7.61,4.04,5.89,7.97,6.68,16.09,1.62,6.86-4.85,12.07-5.42,18.34,6.9-11.21,6.51-23.86,3.02-36.6-2.82-4.11-8.37-10.65-1.31-14.95,5.71-5.68,7.96-5.86,13.34.47,10.27,6.97,8.69-12.69,13.49-16.81,3.55-3.15,2.49-8.89,6.81-11.4,2.03-2.35,5.09-4.69,6.25-7.38.57-2.2,1.52-13.11-2.32-8.57-.6,5.69-5.35,7.43-9.32,10.53-1.22.87-2.4,1.3-3.96.54-7.19-1.2-10.8,7.62-3.99,11.44,3.22,5.89,5.55-3.61,8.7-.95-7.38,9.66-3.95,32.25-20.34,17.58,0-3.92,3.42-6.08,6.35-7.8,5.26-2.49-.72-10.47-4.57-5.74-2.21,2.52-4.67,4.04-8.1,3.71-2.85,2.02-3.2,8.72-9.18,8.09-3.77-.27-1.43,7.56-5.86,6.53-.64-14.06,9.21-30.01,7.37-43.85-3.14-6.77-5.3-13.76-5.05-21.37-.63-6.5-3.86-12.66-6.21-18.71-6.02-12.96,4.92-36.62-13.84-41.5-32.3-8.17-23.44-35.53-39.24,5.48-11,32.64-.24,18.51-26.32,22.42,1.99,14.9-2.71,25.81-19.55,21.28-13.84-2.98-27.52,5.12-41.14,2.05-9.75-12.19,33.92-18.22,36.95-29.54,7.15-29.63,9.66-61.77,27.29-87.68,2.77-7.92-13.24,4.21-17.07,5.14-6.79,4.09-15.22,1.11-21.76,5.15-25.65,15.95-60.77,19.68-84.3,36.93-2.45,18.54-18.92,28.88-24.73,46.1-1.2,7.47-10.67,7.82-12.85,14.67-.46,1.19-1.34,1.73-2.44,2.25-8.82,4.72-11.3,16.71-19.38,23.14-14.66,16.52-8.97,39.9-11.14,60.07-3.11,11.63,13.55,30.37,2.15,37.88-10.14,15.64,19.67,55.94-11.91,60.41-9.85-1.7-70.72,13.71-59.06-4.86,22.36-20,47.64-2.26,40.7-45.05-6.7-3.54-21.89,7.27-27.28-4.07-5.06-11.72-3.5-24.9-1.4-37.1,1.42-17.71,1.57-35.53,2.77-53.37.51-33.22,22.89-61.32,34.71-91.5-4.45,2.11,2.39-9.89-10.82-6.49-7.18,4.52-11.7-5.51-18.97-4.61-5.65-.19-9.23-4.77-13.61-7.46-3.79-2.22-8.84-2.25-11.47-6.48-13.62,7.42,4.69,17.05-30.97,16.75-7.18-.35-7.07-10.45-13.79-11.82-4.4-4.41-9.22-9.68-13.1-14.95-2.88-2.77-.66-7.2-3.26-9.77-5.49-6.59.86-16.82-3.74-24.72-10.72-20.8-4.58-22.59,7.84-39.64,5.63-3.03.63-11.4,7.59-13.83,3.55-2.62-2.53-8.37-6.01-8.42-5.34-2.41-9.88-8.7-10.7-14.76-.86-3.43,4.21-4.17,1.66-7.33-6.46-8.78-6.69-21.27-.88-30.57,1.73-2.58,4.83-3.94,3.31-7.79-.34-.97-.2-2.4,1.63-3.1,1.42-.44,1.83-4.67,3.34-5,4.45,4.4,2.23-8.69,6.17-1.71.47-7.39-2.1-10.71,6.12-3.61.8-8.53,6.05-1.04,8.97,2.15-1.76-7.41,13.89,4.06,16.23,7.61-4.01-14.45,12.43,4.38,11.91,10.14,1.78,1.48,3.81-2.8,3.46,2.5-.5,2.69.4,6.3,2.15,1.79,3.56-1.93-1.06,13.51-4.47,14.75-.59.49-.92.94-.65,1.81,2.35,12.45-.94,25.48,16.2,13.69,6.8-4.53,15.41,1.91,23-2.11,10.37-3.62,19.98,3.57,28.06,9.04,6.55.48,12.33,3.88,18.05,6.64,11.04,7.73,25.54-3.75,37.11,2.46,14.24,1.48,26.72,8.05,40.75,9.92,1.42.2,2.73.3,2.39,2.29,10.68,7.49,26.73,12.33,40.53,13.68,6.59,2.45,15.53-3.64,20.11,2.97,5.23,1.27,9.63,5.6,2.92,10-8.84,6.97-21.61-4.57-29.07,1.99-2.29,3.81-4.52,4.89-8.35,2.57-10.4-3.51-36.87-13-44.8-4.12-5.07,6.62,9.17.26,12.23.35,12.91-.92,21.5,13.88,35.75,8.91,11.53-2.95,23.65.12,34.22-6.33,15.23-2.87,30.34-10.42,45.61-11.2,17.64-4.51,35.11-6.83,53.26-9.28,7.08-2.32,4.29,7.71,9.48,7.59,13.2-.56,25.67,1.89,38.8.44,11.15.12,34.54,11.06,27.48,24.55-2.82,10.98-9.76,19.03-21.87,13.52-2.66-.99-3.27-2.93-2.14-5.67-.87-6-12.02-7.89-17.34-10.03-9.35-.37-17.22,4.56-25.27-2.34-5.3-2.45-.14,6.58-4.6,5.02-11.49-3.54-8.8-8.2-12.67-16.95-.45,4.22.71,14.23-5.81,11.98-3.75-.67-.04,4.47-3.49,4.8-10.22,2.84-16.86,10.68-24.36,17.33,7.47-5.01,18.85-19.82,27.11-9.83,2.92,1.5-.53,4.89,2.28,6.45,3.97,2.24,10.22,8.62,2.28,10.12-8.82-.92,7.67,33.35,4.94,41.39.96,5.7-3.66,4.05-4.83.97,1.75,1.64,2.83,11.66,5.19,4.89,7.5-16.19-11.22-36.27,1.24-50.14,3.6,2.75,5.78,8.04,10.65,9.9,6.46,3.78,13.76.55,20.64,2.24,4.09.4-1.73-7.4-2.11-9.67-1.92-2.36-.3-9.12,3.04-5.48,1.21,1.84,2.2,1.33,3.18-.2,2.64-2.82,5.43,0,9.1-4.66-5.06.45-13.69,5.74-16.14-.98.09-8.16-15.14-13.28.08-13.56,9.04-2.74,16.66,2.59,24.4,6.67,3.22,3.31,1.12,9.68,7.9,9.63,4.63.45,10.92-2.67,13.72,2.59,3.27,3.86,6.91-3.99,10.16-5.08,4.88-5.35,18.25-10.22,14.06-18.75-.63-2.1-2.05-.92-3.46-.71-3.18-1.04-3.62,1.02-4.53,3.36-.41,2.87-11.21,12.58-11.8,6.68,8-10.06-.86-18.57-10.28-23.03-11.5-7.24,20.7-1.29,23.99-4.65-22.3.48-44.41.01-64.54-11.52,4.47,4.14,10.1,6.37,15.04,9.53-2,2.91-8.3,3.58-10.57.92-3.98-2.54-9.52.83-14.17-.17-9.13.05.7-9.56-2.43-14.53-.75-1.6,1.94-3.53-.18-4.58-1.83-.78-3.89-1.37-5.64.36,3.9,1.88,6.42,1.9,4.79,7.22-.48,2.38-1.14,11.89-4.95,7.35-4.73-8.14-16.61,2.41-22.56-1.87v-.07Z"/>
        <path d="M755.91,851.34c6.01-8.08,20.02-9.59,20.15-21.33.07-7.88,4.48-13.89,9.72-19.3,3.26-5.02,5.05-11.19,12.65-10.29,5.66-.95-2.89-12.51-3.54-16.35-2.07-5.42-10.97-7.48-8.46-14.2-1-3.18-8.78-23.83-.16-13.2.33-4.53,3.76-22.67,7.21-14.84,3.55-2.95,5.58-13.99,9.04-4.53,3.86-1.38,11.03-15.01,12.15-6.86,6.33-.03,5.44-14.02,9.21-9.88,9.66,15.88,4.88-.35,10.51,3.93,1.83,3.02,4.9,12.14,9.39,7.93.61-.45,1.04-1.43,1.99-.9,1.69,2.54-1.95,6.86.94,9.32,2.26,1.65,1.14,5.37,3.56,6.6,2.24,1.13,2.69,3.05,3.02,5.24-.35,4.49,7.15,7.66,4.47,11.82-2.48,2.87,1.81,6.82-1.27,8.19-.69.08-2.22-.63-1.94.25.62,1.96-1.78,4.01.05,5.55,12.02,19.52,25.17,10.5,43.09,14.84,5.62,1.37,3.43,4.64,6.5,6.43,23.22,10.07,14.38,36.82,11.31,55.91-7.14,40.81-24.17,14.02-27.31,72.43-1.69,5.76-6.31,10.58-8.2,16.5-1.86,3.43-2.43,3.87-6.14,2.37-6.06,11.39,1.23,29.99-6.32,42.34-16.76,37.6-9,78.51-15.81,117.82-1.12,21.54-6.81,41.67-9.69,62.9-1.06,12.68-13.17,16.13-21.34,9.27-1.61,23.82,6.46,23.85,20.73,35.89-2.92,11.78-21.01,8.76-27.97,1.78-5.94-5.91-17.95-6.1-15.63-17.26.92-7.99.45-16.16,2.86-23.98-.71-5.99-11.74-2.34-9.21-13.74,2-17.11,4.19-34.35,4.55-51.36,11.95-9.62,9.6-5.64,12.64,5.28,7.61,4.04,5.89,7.97,6.68,16.09,1.62,6.86-4.85,12.07-5.42,18.34,6.9-11.21,6.51-23.86,3.02-36.6-2.82-4.11-8.37-10.65-1.31-14.95,5.71-5.68,7.96-5.86,13.34.47,10.27,6.97,8.69-12.69,13.49-16.81,3.55-3.15,2.49-8.89,6.81-11.4,2.03-2.35,5.09-4.69,6.25-7.38.57-2.2,1.52-13.11-2.32-8.57-.6,5.69-5.35,7.43-9.32,10.53-1.22.87-2.4,1.3-3.96.54-7.19-1.2-10.8,7.62-3.99,11.44,3.22,5.89,5.55-3.61,8.7-.95-7.38,9.66-3.95,32.25-20.34,17.58,0-3.92,3.42-6.08,6.35-7.8,5.26-2.49-.72-10.47-4.57-5.74-2.21,2.52-4.67,4.04-8.1,3.71-2.85,2.02-3.2,8.72-9.18,8.09-3.77-.27-1.43,7.56-5.86,6.53-.64-14.06,9.21-30.01,7.37-43.85-3.14-6.77-5.3-13.76-5.05-21.37-.63-6.5-3.86-12.66-6.21-18.71-6.02-12.96,4.92-36.62-13.84-41.5-32.3-8.17-23.44-35.53-39.24,5.48-11,32.64-.24,18.51-26.32,22.42,1.99,14.9-2.71,25.81-19.55,21.28-13.84-2.98-27.52,5.12-41.14,2.05-9.75-12.19,33.92-18.22,36.95-29.54,7.15-29.63,9.66-61.77,27.29-87.68,2.77-7.92-13.24,4.21-17.07,5.14-6.79,4.09-15.22,1.11-21.76,5.15-25.65,15.95-60.77,19.68-84.3,36.93-2.45,18.54-18.92,28.88-24.73,46.1-1.2,7.47-10.67,7.82-12.85,14.67-.46,1.19-1.34,1.73-2.44,2.25-8.82,4.72-11.3,16.71-19.38,23.14-14.66,16.52-8.97,39.9-11.14,60.07-3.11,11.63,13.55,30.37,2.15,37.88-10.14,15.64,19.67,55.94-11.91,60.41-9.85-1.7-70.72,13.71-59.06-4.86,22.36-20,47.64-2.26,40.7-45.05-6.7-3.54-21.89,7.27-27.28-4.07-5.06-11.72-3.5-24.9-1.4-37.1,1.42-17.71,1.57-35.53,2.77-53.37.51-33.22,22.89-61.32,34.71-91.5-4.45,2.11,2.39-9.89-10.82-6.49-7.18,4.52-11.7-5.51-18.97-4.61-5.65-.19-9.23-4.77-13.61-7.46-3.79-2.22-8.84-2.25-11.47-6.48-13.62,7.42,4.69,17.05-30.97,16.75-7.18-.35-7.07-10.45-13.79-11.82-4.4-4.41-9.22-9.68-13.1-14.95-2.88-2.77-.66-7.2-3.26-9.77-5.49-6.59.86-16.82-3.74-24.72-10.72-20.8-4.58-22.59,7.84-39.64,5.63-3.03.63-11.4,7.59-13.83,3.55-2.62-2.53-8.37-6.01-8.42-5.34-2.41-9.88-8.7-10.7-14.76-.86-3.43,4.21-4.17,1.66-7.33-6.46-8.78-6.69-21.27-.88-30.57,1.73-2.58,4.83-3.94,3.31-7.79-.34-.97-.2-2.4,1.63-3.1,1.42-.44,1.83-4.67,3.34-5,4.45,4.4,2.23-8.69,6.17-1.71.47-7.39-2.1-10.71,6.12-3.61.8-8.53,6.05-1.04,8.97,2.15-1.76-7.41,13.89,4.06,16.23,7.61-4.01-14.45,12.43,4.38,11.91,10.14,1.78,1.48,3.81-2.8,3.46,2.5-.5,2.69.4,6.3,2.15,1.79,3.56-1.93-1.06,13.51-4.47,14.75-.59.49-.92.94-.65,1.81,2.35,12.45-.94,25.48,16.2,13.69,6.8-4.53,15.41,1.91,23-2.11,10.37-3.62,19.98,3.57,28.06,9.04,6.55.48,12.33,3.88,18.05,6.64,11.04,7.73,25.54-3.75,37.11,2.46,14.24,1.48,26.72,8.05,40.75,9.92,1.42.2,2.73.3,2.39,2.29,10.68,7.49,26.73,12.33,40.53,13.68,6.59,2.45,15.53-3.64,20.11,2.97,5.23,1.27,9.63,5.6,2.92,10-8.84,6.97-21.61-4.57-29.07,1.99-2.29,3.81-4.52,4.89-8.35,2.57-10.4-3.51-36.87-13-44.8-4.12-5.07,6.62,9.17.26,12.23.35,12.91-.92,21.5,13.88,35.75,8.91,11.53-2.95,23.65.12,34.22-6.33,15.23-2.87,30.34-10.42,45.61-11.2,17.64-4.51,35.11-6.83,53.26-9.28,7.08-2.32,4.29,7.71,9.48,7.59,13.2-.56,25.67,1.89,38.8.44,11.15.12,34.54,11.06,27.48,24.55-2.82,10.98-9.76,19.03-21.87,13.52-2.66-.99-3.27-2.93-2.14-5.67-.87-6-12.02-7.89-17.34-10.03-9.35-.37-17.22,4.56-25.27-2.34-5.3-2.45-.14,6.58-4.6,5.02-11.49-3.54-8.8-8.2-12.67-16.95-.45,4.22.71,14.23-5.81,11.98-3.75-.67-.04,4.47-3.49,4.8-10.22,2.84-16.86,10.68-24.36,17.33,7.47-5.01,18.85-19.82,27.11-9.83,2.92,1.5-.53,4.89,2.28,6.45,3.97,2.24,10.22,8.62,2.28,10.12-8.82-.92,7.67,33.35,4.94,41.39.96,5.7-3.66,4.05-4.83.97,1.75,1.64,2.83,11.66,5.19,4.89,7.5-16.19-11.22-36.27,1.24-50.14,3.6,2.75,5.78,8.04,10.65,9.9,6.46,3.78,13.76.55,20.64,2.24,4.09.4-1.73-7.4-2.11-9.67-1.92-2.36-.3-9.12,3.04-5.48,1.21,1.84,2.2,1.33,3.18-.2,2.64-2.82,5.43,0,9.1-4.66-5.06.45-13.69,5.74-16.14-.98.09-8.16-15.14-13.28.08-13.56,9.04-2.74,16.66,2.59,24.4,6.67,3.22,3.31,1.12,9.68,7.9,9.63,4.63.45,10.92-2.67,13.72,2.59,3.27,3.86,6.91-3.99,10.16-5.08,4.88-5.35,18.25-10.22,14.06-18.75-.63-2.1-2.05-.92-3.46-.71-3.18-1.04-3.62,1.02-4.53,3.36-.41,2.87-11.21,12.58-11.8,6.68,8-10.06-.86-18.57-10.28-23.03-11.5-7.24,20.7-1.29,23.99-4.65-22.3.48-44.41.01-64.54-11.52,4.47,4.14,10.1,6.37,15.04,9.53-2,2.91-8.3,3.58-10.57.92-3.98-2.54-9.52.83-14.17-.17-9.13.05.7-9.56-2.43-14.53-.75-1.6,1.94-3.53-.18-4.58-1.83-.78-3.89-1.37-5.64.36,3.9,1.88,6.42,1.9,4.79,7.22-.48,2.38-1.14,11.89-4.95,7.35-4.73-8.14-16.61,2.41-22.56-1.87v-.07Z"/>
        <path d="M755.91,851.34c6.01-8.08,20.02-9.59,20.15-21.33.07-7.88,4.48-13.89,9.72-19.3,3.26-5.02,5.05-11.19,12.65-10.29,5.66-.95-2.89-12.51-3.54-16.35-2.07-5.42-10.97-7.48-8.46-14.2-1-3.18-8.78-23.83-.16-13.2.33-4.53,3.76-22.67,7.21-14.84,3.55-2.95,5.58-13.99,9.04-4.53,3.86-1.38,11.03-15.01,12.15-6.86,6.33-.03,5.44-14.02,9.21-9.88,9.66,15.88,4.88-.35,10.51,3.93,1.83,3.02,4.9,12.14,9.39,7.93.61-.45,1.04-1.43,1.99-.9,1.69,2.54-1.95,6.86.94,9.32,2.26,1.65,1.14,5.37,3.56,6.6,2.24,1.13,2.69,3.05,3.02,5.24-.35,4.49,7.15,7.66,4.47,11.82-2.48,2.87,1.81,6.82-1.27,8.19-.69.08-2.22-.63-1.94.25.62,1.96-1.78,4.01.05,5.55,12.02,19.52,25.17,10.5,43.09,14.84,5.62,1.37,3.43,4.64,6.5,6.43,23.22,10.07,14.38,36.82,11.31,55.91-7.14,40.81-24.17,14.02-27.31,72.43-1.69,5.76-6.31,10.58-8.2,16.5-1.86,3.43-2.43,3.87-6.14,2.37-6.06,11.39,1.23,29.99-6.32,42.34-16.76,37.6-9,78.51-15.81,117.82-1.12,21.54-6.81,41.67-9.69,62.9-1.06,12.68-13.17,16.13-21.34,9.27-1.61,23.82,6.46,23.85,20.73,35.89-2.92,11.78-21.01,8.76-27.97,1.78-5.94-5.91-17.95-6.1-15.63-17.26.92-7.99.45-16.16,2.86-23.98-.71-5.99-11.74-2.34-9.21-13.74,2-17.11,4.19-34.35,4.55-51.36,11.95-9.62,9.6-5.64,12.64,5.28,7.61,4.04,5.89,7.97,6.68,16.09,1.62,6.86-4.85,12.07-5.42,18.34,6.9-11.21,6.51-23.86,3.02-36.6-2.82-4.11-8.37-10.65-1.31-14.95,5.71-5.68,7.96-5.86,13.34.47,10.27,6.97,8.69-12.69,13.49-16.81,3.55-3.15,2.49-8.89,6.81-11.4,2.03-2.35,5.09-4.69,6.25-7.38.57-2.2,1.52-13.11-2.32-8.57-.6,5.69-5.35,7.43-9.32,10.53-1.22.87-2.4,1.3-3.96.54-7.19-1.2-10.8,7.62-3.99,11.44,3.22,5.89,5.55-3.61,8.7-.95-7.38,9.66-3.95,32.25-20.34,17.58,0-3.92,3.42-6.08,6.35-7.8,5.26-2.49-.72-10.47-4.57-5.74-2.21,2.52-4.67,4.04-8.1,3.71-2.85,2.02-3.2,8.72-9.18,8.09-3.77-.27-1.43,7.56-5.86,6.53-.64-14.06,9.21-30.01,7.37-43.85-3.14-6.77-5.3-13.76-5.05-21.37-.63-6.5-3.86-12.66-6.21-18.71-6.02-12.96,4.92-36.62-13.84-41.5-32.3-8.17-23.44-35.53-39.24,5.48-11,32.64-.24,18.51-26.32,22.42,1.99,14.9-2.71,25.81-19.55,21.28-13.84-2.98-27.52,5.12-41.14,2.05-9.75-12.19,33.92-18.22,36.95-29.54,7.15-29.63,9.66-61.77,27.29-87.68,2.77-7.92-13.24,4.21-17.07,5.14-6.79,4.09-15.22,1.11-21.76,5.15-25.65,15.95-60.77,19.68-84.3,36.93-2.45,18.54-18.92,28.88-24.73,46.1-1.2,7.47-10.67,7.82-12.85,14.67-.46,1.19-1.34,1.73-2.44,2.25-8.82,4.72-11.3,16.71-19.38,23.14-14.66,16.52-8.97,39.9-11.14,60.07-3.11,11.63,13.55,30.37,2.15,37.88-10.14,15.64,19.67,55.94-11.91,60.41-9.85-1.7-70.72,13.71-59.06-4.86,22.36-20,47.64-2.26,40.7-45.05-6.7-3.54-21.89,7.27-27.28-4.07-5.06-11.72-3.5-24.9-1.4-37.1,1.42-17.71,1.57-35.53,2.77-53.37.51-33.22,22.89-61.32,34.71-91.5-4.45,2.11,2.39-9.89-10.82-6.49-7.18,4.52-11.7-5.51-18.97-4.61-5.65-.19-9.23-4.77-13.61-7.46-3.79-2.22-8.84-2.25-11.47-6.48-13.62,7.42,4.69,17.05-30.97,16.75-7.18-.35-7.07-10.45-13.79-11.82-4.4-4.41-9.22-9.68-13.1-14.95-2.88-2.77-.66-7.2-3.26-9.77-5.49-6.59.86-16.82-3.74-24.72-10.72-20.8-4.58-22.59,7.84-39.64,5.63-3.03.63-11.4,7.59-13.83,3.55-2.62-2.53-8.37-6.01-8.42-5.34-2.41-9.88-8.7-10.7-14.76-.86-3.43,4.21-4.17,1.66-7.33-6.46-8.78-6.69-21.27-.88-30.57,1.73-2.58,4.83-3.94,3.31-7.79-.34-.97-.2-2.4,1.63-3.1,1.42-.44,1.83-4.67,3.34-5,4.45,4.4,2.23-8.69,6.17-1.71.47-7.39-2.1-10.71,6.12-3.61.8-8.53,6.05-1.04,8.97,2.15-1.76-7.41,13.89,4.06,16.23,7.61-4.01-14.45,12.43,4.38,11.91,10.14,1.78,1.48,3.81-2.8,3.46,2.5-.5,2.69.4,6.3,2.15,1.79,3.56-1.93-1.06,13.51-4.47,14.75-.59.49-.92.94-.65,1.81,2.35,12.45-.94,25.48,16.2,13.69,6.8-4.53,15.41,1.91,23-2.11,10.37-3.62,19.98,3.57,28.06,9.04,6.55.48,12.33,3.88,18.05,6.64,11.04,7.73,25.54-3.75,37.11,2.46,14.24,1.48,26.72,8.05,40.75,9.92,1.42.2,2.73.3,2.39,2.29,10.68,7.49,26.73,12.33,40.53,13.68,6.59,2.45,15.53-3.64,20.11,2.97,5.23,1.27,9.63,5.6,2.92,10-8.84,6.97-21.61-4.57-29.07,1.99-2.29,3.81-4.52,4.89-8.35,2.57-10.4-3.51-36.87-13-44.8-4.12-5.07,6.62,9.17.26,12.23.35,12.91-.92,21.5,13.88,35.75,8.91,11.53-2.95,23.65.12,34.22-6.33,15.23-2.87,30.34-10.42,45.61-11.2,17.64-4.51,35.11-6.83,53.26-9.28,7.08-2.32,4.29,7.71,9.48,7.59,13.2-.56,25.67,1.89,38.8.44,11.15.12,34.54,11.06,27.48,24.55-2.82,10.98-9.76,19.03-21.87,13.52-2.66-.99-3.27-2.93-2.14-5.67-.87-6-12.02-7.89-17.34-10.03-9.35-.37-17.22,4.56-25.27-2.34-5.3-2.45-.14,6.58-4.6,5.02-11.49-3.54-8.8-8.2-12.67-16.95-.45,4.22.71,14.23-5.81,11.98-3.75-.67-.04,4.47-3.49,4.8-10.22,2.84-16.86,10.68-24.36,17.33,7.47-5.01,18.85-19.82,27.11-9.83,2.92,1.5-.53,4.89,2.28,6.45,3.97,2.24,10.22,8.62,2.28,10.12-8.82-.92,7.67,33.35,4.94,41.39.96,5.7-3.66,4.05-4.83.97,1.75,1.64,2.83,11.66,5.19,4.89,7.5-16.19-11.22-36.27,1.24-50.14,3.6,2.75,5.78,8.04,10.65,9.9,6.46,3.78,13.76.55,20.64,2.24,4.09.4-1.73-7.4-2.11-9.67-1.92-2.36-.3-9.12,3.04-5.48,1.21,1.84,2.2,1.33,3.18-.2,2.64-2.82,5.43,0,9.1-4.66-5.06.45-13.69,5.74-16.14-.98.09-8.16-15.14-13.28.08-13.56,9.04-2.74,16.66,2.59,24.4,6.67,3.22,3.31,1.12,9.68,7.9,9.63,4.63.45,10.92-2.67,13.72,2.59,3.27,3.86,6.91-3.99,10.16-5.08,4.88-5.35,18.25-10.22,14.06-18.75-.63-2.1-2.05-.92-3.46-.71-3.18-1.04-3.62,1.02-4.53,3.36-.41,2.87-11.21,12.58-11.8,6.68,8-10.06-.86-18.57-10.28-23.03-11.5-7.24,20.7-1.29,23.99-4.65-22.3.48-44.41.01-64.54-11.52,4.47,4.14,10.1,6.37,15.04,9.53-2,2.91-8.3,3.58-10.57.92-3.98-2.54-9.52.83-14.17-.17-9.13.05.7-9.56-2.43-14.53-.75-1.6,1.94-3.53-.18-4.58-1.83-.78-3.89-1.37-5.64.36,3.9,1.88,6.42,1.9,4.79,7.22-.48,2.38-1.14,11.89-4.95,7.35-4.73-8.14-16.61,2.41-22.56-1.87v-.07Z"/>
        <path class="st24" d="M817.55,1093.89c-4.33,7.12-11.9,5.91-7.52,16.11.63,1.44,1.79-1.52,2.46.24.03,2.03.38,4.04.46,6.07.34,4.74-6.5,1.28-5.75-2.62-.36-1.89-2.59-2.22-1.02-4.26,1.61-2.39-.61-4.73-2.99-3.02-2.36.44-3.48,2.06-4.69,3.89-5.62,2.05-1.9,18.46-3.05,24.32-.9-3-1.7-28.13,3.16-36.98,3.87,4.61,1.64-8.15,6.04-5.89,7.16,1.26,5.41-8.68,9.37-8.13,2.69.45,5.03-.26,6.74-2.67,2.53-4.48,8.75-2.27,8.8,2.49-.48,4.81-8.44,4.93-8.95,10.56-1.06,1.04-2-.92-3.05-.11h0Z"/>
        <path class="st2" d="M718.23,858.89c-6.6-5.23-.36-16.57,5.69-19.1,3.6-3.4,7.06-7.55,11.52-2.07,2.17,7.25,14.95,5.43,10.63,15.09-6.55,2.98-2.65-1-4.82-3.11-5.62-5-8.96,1.51-12.25,5.61,6.79-1.68-.59,4.1-3.68,3.38-2.06.18-4.91-5.26-3.82-6.98,1.97-1.51,3.37-1.84,3.35-4.45-.07-3.35,3.45-1.75,3.78-3.22-.14-2.08.97-2.87,2.88-2.52-1.84-2.02-2.12.58-3.53,1.21-4.23,1.02-5.35,4.85-7.29,7.94-2.57,3.18,2.39,5.61,1.59,8.17-1.06,1-2.69,1.44-4.07.06h.02Z"/>
        <path class="st58" d="M741.98,852.42c10.26,2.6,20.55-2.49,31.35-2.66,5.28-2.01,7.14,9.22,8.61.76.44-6.15,4.14-11.53-5.26-10.48,1.11-3.47,9.61-5.13,9.57-.85-2.6,3.82,1.13,8.42-1.81,12.55-4.81,9.15,12.4,3.41,17.49,3.55-2.68,4.69,7.41,3.56,9.51,1.37,1.81-.45,2.31.79,2.73,2.12-2.92-.24-5.71-.49-8.44,1.39-7.51.48-15.8-3.23-23.77-1.59-1.7-.14-4.38.9-4.34-1.73-.54-6.18-1.06-6.56-7.24-5.66-4.04.92-48.46,6.66-28.4,1.23h0Z"/>
        <path class="st9" d="M736.47,854.54c.5.65,1.24.48,1.91.57-9.41,4.13-18.71,5.06-28.67,5.38.89-1.34,2.28-1.07,3.59-1.18,17.32.35.75-2.63,8.37-11.64.7-3.93,4.52-4,6.93-6.28,1.78-3.56,3.73-1.03,4.48,1.55-3.65-2.05-4.85-.72-3.18,3.39-1.85-2.3-6.24-.15-3.82,2.09.47.39,1.17.79.82,1.5-.8,1.22-3.32-1.73-2.77,1.14.1.68.81,1.23.42,2.01-1.12-.11-1.3-2.3-2.39-1.57-1.06.71-.07,2.1.28,3.13,1.29,3.71,1.88,4.08,5.56,2.75,1.24-.45,3.36.04,3.47-2.27,1.39-1.41,3.25-1.43,5-.58h0Z"/>
        <path class="st5" d="M464.13,939.68c-5.5-.37-19.86-15.52-15.22-19.21,32.57-5.79,57.7-30.47,67.41-61.81-.38-4.53,21.79,12.42,19.31,14.07-9.73,34.11-35.96,60.81-71.51,66.94h.01Z"/>
        <path class="st58" d="M770.31,906.78c-9.9-3.19-3.71,22.52-1.51,29.53,2.6,11.19-1.94,34.38-7.9,10.92,14.22,21.3-3.53-34.79-2.57-39.3-.07-1.89.55-2.01,2.13-1.74,1.12.19,2.31,1.11,3.51-.05,5.97-5.69-10.03-7.45-5.89-12.77,1.3-2.4-4.15-2.83-4.32-5.76-9.35-.67-17.31,10.27-25.39,14.79,6.64-8.69,15.82-16.78,26.41-20.01,3-.38-.87-2.7.97-4.31,1.47-1.96,4.1.93,5.39.06,2.68-3.89,1.48-8.74,2.34-13.57,5.48,5.2.71,14.13,9.85,16.45,1.64.65,3.15,1.61,4.92,2.54-.2-2.17-2.07-7.15,1.58-6.43,8.44,3.2,9.71,6.96,19.44,3.16,10.01-2.32,18.41,4.06,26.67,8.59-7.35,8.7,8,9.22,13.4,7.91,5.08,1.95-19.73,5.25-16.89-4.93.18-2.5-1.84-3.26-3.36-3.85-9.5-6.09-18.32-6.79-29.47-4.61,10.77,6.98,4.32,20.24,21.59,12.59,1.16-.65,2.93-1.13,3.36.5-3.97,3.22-14.51,7.08-18.41,1.11,1.61,3.53.23,7.63,1.6,11.39-.49,2.43,4.12,3.87,2.58,6.87-10.59,2.17-22.81.18-30.03-9.09h0Z"/>
        <path class="st5" d="M600.07,877.08c-15.91,3.46-29.84,9.49-45.59,10.52,6.63,9.22,6.57,24.31,18.08,30.48,2.16,1.15,3.1,3.17,4.03,5.4,1.39,11.49,17.84,19.15,14.62,30.44-8.17,15.05-18.66,28.65-25.79,44.3-6.6,9.89-17.64,15.94-26.51,23.59,4.31-7.44,11.74-11.89,15.78-17.95,8.33-9.65,11.63-21.62,21.3-30.6,21.92-25.17,6-32.06-14.17-48.91,4.88,1.2,18.9,9.25,12.38-2.44-2.1-3.19-7.04-1.5-8.52-5.29-6.14-9.28-11.86-19.01-14.59-29.85,1.52-3.72,12.72-1.35,17.06-4.41,11.05-1.29,20.47-7.37,31.92-5.28h0Z"/>
        <path class="st5" d="M815.92,913.85c14.07,3.9,28.67-.99,43.27.05,9.44-1.32,14.9-10.15,24.55-12.16,5.67-2.3-.64,24.32-4.56,23.38-21.09-3.13-44.27-.26-63.27-11.27h.01Z"/>
        <path class="st5" d="M505.22,1036.51c-7.66-4.64-5.23-5.49-5.52-13.4,2.38,1.2,3.48.57,4.14-2.53,5.33-25.72,37.73-40.7,30.22-69.63-4.64,14.12-10.13,28.58-20.39,39.75,6.2-17.72,17.22-33.42,19.92-51.2,25.79,34.62-31.4,61.04-28.37,97.01h0Z"/>
        <path class="st5" d="M430.67,925.77c-.22,3.47.56,5.79,2.35,1.39,4.22,4.04-11.03,11.02-5.6,16.39-9.59-.71-13.31-11.04-21.46-15.05-4.17-2.88-5.14-5.8-3.66-10.4-.08-3.27-1.01-7.3,3.68-7.26,4.25.36,7.22-3.85,10.98.56-4.64.26-14.41-1.13-12.8,5.43,3.85.05,7.67-3.52,12.59-2.04-6.09,1.33-9.67,6.26-7.41,12.71,3.09-6.47,7.1-11.19,15.2-10.78-5.1,3.48-14,7.78-8.6,14.94.78.08.74-.61.8-1.1.72-4.82,8.54-14.54,12.26-8.57,1.05.85-.8,1.29-1.48,1.73-3.87,2.48-7.41,10.73-4.27,14.42,2.83-3.64,2.54-10.06,7.44-12.37h-.02Z"/>
        <path class="st5" d="M514.6,1136.28c-6.37,3.17-13.98,6.87-20.73,7.49-1.6-2.62-3.7-1.47-5.66-.79-22.7,4.15-15.89-17.9-14.29-32.79,3.98,7.19-3.55,23.46,5.34,26.38,1.97-8.33,9.18-17.02,19.66-16.16.78,3.04-11.34,4.4-11.78,8.51,4.52,1.06,10.69-3.12,16.09-.55-4.09,1.48-20.59,2.59-19.76,6.74,2.2.99,1.37,6.63,4,5.61,3.74-2.89,8.02-2.45,12.26-2.17,4.93,1.22,11.41-3.46,14.88-2.28h0Z"/>
        <path class="st5" d="M828.71,1010.33c-8.31-11.21-30.43-.07-29.92-8.12,1.34-32.86-11.84-15.33-1.56-54.73,5.8,14.19-13.49,19.79,9.98,19.91,6.98-3.84,9.92,1.78,12.55-3.16-.75,2.26.27,7.21-1.9,7.72-6.67-1.64-26.39-5.79-20.75,6.99,5.67,5.34.75,10.4,4.06,13.86,7.24,3.82.15,4.43,9.64,1.05-20,17.02,15.67.31,17.9,16.48h0Z"/>
        <path class="st43" d="M836.64,749.35c-3.56-2.95-5.09-2.64-7.11,1.11-.44.81-.69,1.81-1.33.13-1.83,1.06-4.14,2.47-6.19,3.65-5.92,5.9-12.14-10.92-4.39-11.83,10.9-6.52-1.63-8.47,20.09-6.9,5.99.09,8.16,1.7,2.23,5.11-3.98,1.94-3.64,4.71-3.31,8.73h.01Z"/>
        <path class="st5" d="M536.1,854.99c14.46,9.51,14.73,23.57,34.6,15.14,3.91-.88,1.43-4.75,1.07-7.4.3-5.97,7.47-10.59,10.56-15.77-12.88,32.04-.27,24.75,13.69-.15.42,9.97-9.1,15.64-12.62,23.93-.93,5.91-22.56,3.58-28.57,6.15-3.76.41-.18-1.89-2.17-3.43-5.79-4.79-14.7-12.85-16.56-18.47Z"/>
        <path class="st24" d="M849.95,814.87c-1.86-.2-2.59,1.94-4.29,2.08-.63.19.1-2.35-1.29-.64-4.4,4.85-8.68,10.25-14.1,13.88-4.5,5.03-8.42-4.28-1.13-.35-18.2-5.86,1.98-9.18-10.18-9.73-3.5-1.92,12.44-.42,14.8-4.66,12.36-6.27,4.07-9.75,8.79-11.83,2.42,1.63,5.86-.42,7.39.62,2.87,6.6,10.72,4.82,0,10.65v-.02Z"/>
        <path class="st5" d="M840.61,897.45c-2.54-1.68,6.1-6.04,4.47-10.68,2.06-5.23,6.9-9.4,1.41-14.55-6.32-7.2-14.51-11.27-23.71-13.45-4.18.74-8.2,1.42-11.34-2.09-6.03-2.28-14.24-6.17-16.98-11.23,14.52,7.99,30.09,11.72,46.53,12.33,6.98,1.04,15.93-1.51,21.87.67-6.69,4.88-19.68.33-28.4,2.23,9.76,5.6,23.49,13.89,13.4,25.85-1.15,3.9-1.84,11.32-7.26,10.95v-.03Z"/>
        <path class="st5" d="M502.31,1070.4c-22-52.31-27.39-7.6-20.32,21.31-8.21-14.41-9-32.25-2.37-47.59,2.51-3.01,1.84-20.36,4.32-9.73.71,10.41.66,6.41,6.31,3.17,3.48,9.86,11.33,23.53,12.06,32.84h0Z"/>
        <path class="st41" d="M840.61,897.45c5.35-1.28,4.7-7.28,7.26-10.95-.65,4.12,9.34-3.61,9.95-5.59,3.47-7.96-.43-4.92,7.03-5.68,7.35-.44,3.47,11.96-2.92,13.77-4.96,4.43-10.24,8.76-15.38,13.13-4.55,2.78-4.91-5.57-10.06-3.76,1.28-.73,2.88-.01,4.12-.92h0Z"/>
        <path class="st5" d="M646.7,919.23c11.3-6.04,21.98-8.59,32.61-16.3-21.7,27.82,11.81-3.47,21.49-11.44-.52,10.97-11.48,12.61-16.41,20.64-6.66,4.05-14.42,7.9-22.2,10.45-5.82,1.49,3.55-5.41,2.88-8.67-5.98,1.65-11.46,5.33-18.37,5.33h0Z"/>
        <path class="st24" d="M840.43,1076.81c-4.09-1.42-4.19,8.96-10.1.29-1.9-1.54-4.09-5.39-3.29-7.41,2.47-1.89,5.69-5.23,8.95-4.67,1.47,2.47,2.8.57,3.82-.25,9-4.86,6.2-5.76,10.01-11.88,5.38.32,1.86,8.19,2.36,11.72-2.82,4.09-8.81,6.93-10.05,12.24-.55-.9-1.15.45-1.7-.04h0Z"/>
        <path class="st5" d="M505.78,852.66c-5.36,31.03-30.54,54.03-61.12,58.8,28.65-9.94,49.05-31.43,61.12-58.8Z"/>
        <path class="st5" d="M439.04,902.17c27.41-9.86,45.73-31.83,57.54-57.7-5.04,27.85-29.57,55.96-57.54,57.7Z"/>
        <path class="st5" d="M486.78,839.75c-6.48,30.51-29.63,52.73-60.38,58.62,27.61-11.18,48.2-31.29,60.38-58.62Z"/>
        <path class="st5" d="M808.27,921.48c8-.57,15.55,1.84,23.03,3.96,7.95,3.52,17.98-1.06,24.69,4.03-13.82,4-27.11,2.76-40.02-3.27-6.84-.79-3.06,5.35-7.7-4.72h0Z"/>
        <path class="st5" d="M794.28,837.79c21.11,11.74,46.39,11.71,68.63,12.65-20.73,4.88-51.7,4.18-68.63-12.65Z"/>
        <path class="st58" d="M537.94,888.41c-5.43,26.26-25.46,45.65-51.53,50.04,24.09-8.96,40.23-27.31,51.53-50.04Z"/>
        <path class="st7" d="M746.17,908.1c3.58,21.46-9.78,70.64-29.41,31.86,17.11,9.21,11.13,24.04,24.52,1.08,1.42-9.66-12.6-13.68-10.99-24.4,3.73,5.79,6.82,12.01,12.43,16.95,2.12-8.97,2.11-16.68,3.44-25.5h0Z"/>
        <path class="st58" d="M802.45,834.62c21.15,6.9,42.88,7.81,65.19,7.32-18.14,7.12-47.82,2.77-65.19-7.32Z"/>
        <path class="st7" d="M474.83,836.46c-5.15-2.28-8.13-8.62-13.74-9.04,2.3-3.44-2.32-3.43-2.66-5.57,1.87-.6,4.44,2.23,4.2-1.25,9.76-8.57,30.77,7.19,35.35,18.34.11,1.77-1.88-.07-2.15-.8-6.24-9.77-16.93-13.54-26.83-18.41-2.01-1.26-2.05,1.08-2.32,2.57-2.98,5.89,7.96,7.36,8.16,14.16h-.01Z"/>
        <path class="st9" d="M412.88,790.48c4.82,8.03,20.83-2.72,24.53,5.13-11.69,1.93-33.5-5.77-37.39,9.16-.66,2.2-3.83,3.85-.77,6.57.3.26-1.3,1.01-2.51.85,5.35,5.92-6.84-.65-1.1-1.64,1.85-.58-1.24-2.59.93-5-.18-3.44,3.65-7.28.92-9.65,5.39,1.52,7.67-3.3,12.52-1.73,2.09.46,1.97-2.02,2.88-3.68h-.01Z"/>
        <path class="st5" d="M791.04,772.31c2.08-.15,3.35-.77,2.8-3.43,5.29,3.04.94,6.52,9.98,4.67-2.46,4.33,2.5,3.17,5.19,2.61,3.61-.66,3.89-.9,2.52-4.18-.78-1.86-.27-2.01,1.37-2.11,3.96.04,7.29-3.4,11.26-2.63-5.56,5.82,4.71,1.68,7.75,1.84-6.53,3.87-26.55,12.75-31.27,8.96-3.11-3.15-6.86-1.9-9.6-5.73h0Z"/>
        <path class="st7" d="M499.68,940.84c20.79-7.07,33.95-23.59,43.39-42.61-4.17,20.39-22.78,41.7-43.39,42.61Z"/>
        <path class="st7" d="M851.77,1026.03c-1.4,6.91.4,17.51-3.41,22.55-8.13,2.44-13.33-2.89-17.89-8.39,10.85,2.76,6.3,4.07,7.78-8.57,3.59,3.83-.09,13.71,6.95,13.07,1.84-.1,3-1,2.87-2.79-.49-3.44,2.37-18.04,3.7-15.87h0Z"/>
        <path class="st7" d="M555.08,979.02c-2.2-6.73-3.89-13.39-1.23-20.32,2.75-10.15-7.72-18.41-7.34-28.21,10.97,22.12,14.02,23.54,8.56,48.53h.01Z"/>
        <path class="st7" d="M706.03,948.93c4.49,11.51-8.83,20.73,4.01,28.81-3.15-.2-8.24-5.76-8.41-.16,1.49,6.09-7.36,16.72,1.19,18.5,5.47,2.02-10.5,1.29-6.07-4.45,3.98-13.95,5.49-27.91,9.27-42.71h0Z"/>
        <path class="st58" d="M815.78,931.11c8.93,3.85,20.13,2.26,28.35,5.38-8.32,8.32-54.09-9.75-28.35-5.38Z"/>
        <path class="st45" d="M518.9,1099.35c-3.82-7.05,5.43-34-2.09-32.79-2.05.25-4.06.99-3.91-2.64.14-2.66-6.19-6.56-1.65-8.73,6.22-6.96-1.39,5.89,5,8.47,2.45,1.94,3.71-1.61,6.05-1.72-3.92,11.91,1.66,26.46-3.4,37.41h0Z"/>
        <path class="st44" d="M416.73,945.23c4.73-.76,10.44,6.56,13.81,2.42.73-1.62,1.85-2.19,3.76-2.08,4.3.72,3.28-2.6,4.66-5.31,6.15-3.78.55-9.89-1.37-14.96,3.31,2.41,6.37,3.56,9.68,5.38-7.71,3.71-2.84,16.8-12.67,18.72-4.65,1.9-8.71.64-13.07-1.1-2.83,1.1-3.75-.84-4.8-3.06h0Z"/>
        <path class="st58" d="M913.28,835.24c-.5-.34-1.23-.6-.86-1.41,2.05-2.65-2.33-3.51-1.33-5.32,4.87-10.53-3.42-20.09-11.55-26.33,11.81,3.52,19.62,16.95,15.35,28.15,1.55,2.59-1,10.73-1.61,4.9h0Z"/>
        <path class="st3" d="M770.31,906.78c9.13,8.95,18.19,9.48,30.54,9.43-2.55-7.88-5.98-3.28-4.38-6.38,2.03-.81.81-1.87.35-2.87-2.15-3.53.59-6.7-1.16-10.3,4.17,5.97,10.13,2.36,15.82,1.69-1.46,4-6.32.29-7.42,3.78-1.65,2.18-2.18,2.21-3.58-.03-5.7-4.98-1.27,7.53-.01,9.51,5.42,9.48-2.48,4.12-8.05,5.37-8.41,1.13-18.47-2.36-22.1-10.21h-.01Z"/>
        <path class="st48" d="M709.91,870.35c-11.82,1.88-23.71,3.09-35.16,7.1,2.72.58,5.72-.88,8.64,1.25-12.45.76-23.14,5.29-35.67,3.63,5.06-2.28,10.53-.18,15.8-1.23,12.81-6.55,30.52-12.08,46.39-10.76h0Z"/>
        <path class="st57" d="M413.29,904.9c-8.71-.77-17.58-7.51-17.5-16.64-.67-5.02-6.33-7.31-6.33-12.97,6.76,3.77,7.07,9.87,8.46,16.44,2.11,4.71,2.98-3.4,4.02-5.72,1.18,4.41-2.45,7.57.14,11.05,1.66,1.49,3.4,5.76,5.72,5.33,1.6-3.21,7.38,2.28,5.5,2.52h-.01Z"/>
        <path class="st20" d="M815.78,931.11c-2.48-.49-4.97-.64-8.15-.36,2.2,1.21,3.85,2.12,5.49,3.03-5.93,2.78-6.4-5.28-10.66-7.07-.64-.15-.72-1.15-.34-1.24,2.55-.62,2.7-4.87,6.15-4,1.3,1.88,3.74,2.38,2.85,5.76,1.3-2.9,2.96-2.68,4.85-1.04-1.23,1.59-2.07,3.2-.19,4.91h0Z"/>
        <path class="st43" d="M834.6,1137.93c5-14.25,4.02-29.32,5.75-44.06,6,10.3-3.16,24.4-.91,36.32.36,3.21-4.2,3.86-3.65,7.44.4,4.19-1.86,4.94-1.19.31h0Z"/>
        <path class="st45" d="M439.21,854.09c-3.14,5.98-2.1,4.38,2.96,7.33-4.06-.44-26.95,2.77-19.23-3.7-6.41-.73-9.26-5.33-11.48-10.71,5.84,6.99,12.76,11.48,22.22,12.42,2.88,1.05,3.46-7.88,5.54-5.34h0Z"/>
        <path class="st43" d="M421.86,846.71c1.72-.63,3.63.29,4.86-1.37.34-.46.77.03,1.11.29,8.21,8.31,9.84-11.18,11.02-16.62,2.47-.58,1.4-3.52,3.28-4.88.33,3.88-.06,7.44-1.33,10.83-2.46,10.09-7.93,19.93-18.94,11.75h0Z"/>
        <path class="st45" d="M640.38,863.21c-10.26-5.07,5.15-2.75,6.93-.28-2.81,1.98-6.37,2.71-6.82,6.97-.83,1.62-11.63-3.69-13.69-4.31,3.57-5.19,11.62,4.13,13.59-2.38h-.01Z"/>
        <path class="st7" d="M891.96,844.21c-2.95-3.95-6.75-7.22-5.71-11.46-1.35-.5-2.09.62-3.65,1.19,1.73-8.42,8.78-11.47,13.96-17.21-.09,7.42-11.95,8.49-6.98,15.59-2.78,4.62,3.73,6.49,2.38,11.89Z"/>
        <path class="st44" d="M834.6,1137.93c2.11,10.4-7.67,19.24-8.66,29.58.64,4.61-5.16,2.6-2.73-1.82,4.83-8.83,7.29-18.59,11.39-27.76h0Z"/>
        <path class="st9" d="M812.63,1118.61c-.41-2.78-1.46-5.56-.14-8.37,5.33,14.54,5.22,29.29-3.01,42.34.81-13.97,9.38-13.77,3.16-33.97h0Z"/>
        <path class="st9" d="M839.28,952.5c2.64-7.44,19.07-10.23,21.44-2.89-7.38-1.54-14.27.44-21.44,2.89Z"/>
        <path class="st43" d="M802.98,1198.41c1.51,1.79,5.07-.64,3.18-2.31-.92-2.11,1.74-3.53-.93-6.04,16.05,8.9,4.79-1,8.79-10.21.46,4.76.96,8.77,2.03,12.72.36,1.34-1.97,3.15.71,4.57-3.96,1.54-5.38-3.98-8.54-2.44-1.62,1.74,1.06,3.69.22,5.7-3.31.41-5.54,3.33-5.45-2h-.01Z"/>
        <path class="st30" d="M546.17,838.04c-11.75-.39-21.05-7.7-31.18-11.79.2,4.94-4.05-1.66-5.98-3.66,11.43,3.73,21.26,11.68,33.4,13.16,1.66.5,8.05,1.38,3.76,2.29Z"/>
        <path class="st44" d="M546.17,838.04c1.8-.39,1.69-3.14,3.69-2.18,4.92,3.09,10.15,5.42,16.03,6.03-1.88,4.04-14.98.11-19.72-3.85h0Z"/>
        <path class="st17" d="M829.08,891.42c-2.17,1.42-5.65,1.49-1.82-1.07,1.84-1.95,5.11-.22,6.62-1.79-5.52-4.31-.02-3.23,3.26-5.15.57-4.13,4.72-5.9,5.65-9.72,3.84,3.46-3.76,6.24-2.76,10.37-.44,2.08-3.68,1.66-5.5,2.39,3.96,4.72-1.99,4.66-5.45,4.98h0Z"/>
        <path class="st9" d="M817.55,1093.89c-1.32-1.87,1.95-.29,3.05.11,14.17,9.37,9.96,3.5,15.11-8.04,1.1,14.05-6.53,20.97-18.16,7.93Z"/>
        <path class="st57" d="M526.52,1183c3.18,6.19-1.91,7.84-4.97,11.4-1.27,3.41-14.08,6.07-11.9,1.52,7.54-.69,15.67-4.56,16.87-12.92h0Z"/>
        <path class="st45" d="M849.95,814.87c5.9-9.99,13.07,7.14,18.9,11.88-7.66-3.17-11.3-11.36-18.9-11.88Z"/>
        <path class="st44" d="M842.56,803.61c-2.46,6.36-12.65,17.24-19.09,10.92,13.67.77,18.8-12.22,23.51-22.88.11,4.58-3.25,7.87-4.42,11.96Z"/>
        <path class="st10" d="M635.03,855.34c6.07.22,11.67,3.64,17.78,2.76,1.29-.23,2.57-.15,1.42,1.76-.79,1.61,2.32,2.93.81,4.42-3.41-2.34-6.61-5.53-11.57-5.29-1.99-.18-16.11-2.02-8.44-3.64h0Z"/>
        <path class="st10" d="M511.62,1176.52c2.2.98,1.84,4.56,4.7,3.72,2.85-.87-.07-3.67,1.75-5.23,2.99,12.19-1.4,13.1-11.52,9.35,1.79-2.5,5.89,1.98,7.38-1.55.63-2.57-4.1-3.05-2.31-6.3h0Z"/>
        <path class="st44" d="M600.63,857.88c2.93-5.21-.2-9.73,1.98-14.92,3,3.45,1.29,7.99,5.54,10.94,3.42,3.25-2.99.33-3.52,2.9-.79,1.48-2.8-.51-4,1.08h0Z"/>
        <path class="st45" d="M489.01,1185.21c6.55,6.32-2.45,3.18-.94,7.7.48,1.13,1.12,4.34-1.2,2.98-1.93-1.53-4.32.6-6.14-.67-1.25-.62-1.18-2.42.46-2.1,5.26,2.02,3.98-10.23,7.82-7.92h0Z"/>
        <path class="st45" d="M873.09,860.57c-5.13-9.34,2-17.91,7.73-25.23-4.38,10.97-6.85,12.14-7.73,25.23Z"/>
        <path class="st9" d="M831.91,829.31c2.97-5.44,9.86-9.6,13.61-15.51,1.43,8.22-7.7,12.46-13.61,15.51Z"/>
        <path class="st58" d="M776.79,880.43c-4.15-1.25-4.61-2.12-4.14-7.8,1.91-18.54,4.19.39,4.14,7.8Z"/>
        <path class="st45" d="M664.62,1016.29c-.59,1.49-2.21,1.83-3.55,2.93,2.8.76,6.21-4.05,7.17.38,2.23.82,5.39-.67,8.53.02-3.39.23-5.6,3.78-8.48,2.04-.88-.78-3.82,1.07-2.51-2.11-9.8,6.49-12.36-.48-1.15-3.26h-.01Z"/>
        <path class="st45" d="M817.13,830.64c-9.51-1.37-11.89-8.73-11.6-17.68,2.69,7.08,7.58,14.14,11.6,17.68Z"/>
        <path class="st55" d="M403.74,866.48c1.35.02,2.22-.07,2.82,1.29,22.41,32.66,11,22.81-2.82-1.29Z"/>
        <path class="st57" d="M889.85,878.09c3.19,2.42,5.89.24,8.73-.67,3.44-.86-.97-7.04,1.69-7.49,1.48,5.55,2.34,2.19,4.57-.41.94,7.01-10.67,16.42-14.98,8.57h-.01Z"/>
        <path class="st7" d="M855.29,874.24c2.4-5.61,7.64-7.4,12.32-10.2-.24,4.42-7.54,10.38-12.32,10.2Z"/>
        <path class="st43" d="M796.04,758.21c3.48-18.6-2.44,8.05,11.55-8.45.51,12.83-4.33,3.61-7.18,8.58-1.55,2.59-1.72-2.64-4.37-.14h0Z"/>
        <path class="st42" d="M453.49,853.52c-.98-7.35-.33-14.45-2.46-21.88,4.53,5.69,5.84,17.25,2.46,21.88Z"/>
        <path class="st10" d="M839.59,766.48c5.79-9.29,12.25,18.5,2.88,15.79,3.31-.96,2.13-3.81,3.16-5.74,1.15-2.57-1.72-2.3-3.03-2.79,2.37-3.52.81-3.07,1.07-6.63-.17-1.83-2.84-.05-4.08-.63h0Z"/>
        <path class="st17" d="M512.54,1152.82c3.13-4.8,5.75-4.17,1.93.88-2.23,2.35-1.2,6.81-3.46,8.63-1.11-1.3-2.73-18.75,1.53-9.51Z"/>
        <path class="st42" d="M428.89,778.18c-3.29-1.15-1.95-4.67-3.45-6.71-3.44,2.47-8.71.27-10.62-4.57,3.42,1.71,7.83,6.69,9.13.24,2.5,3.48,5.04,6.6,4.95,11.03h-.01Z"/>
        <path class="st55" d="M417.54,843.99c-3.18-.13-20.47-13.67-10.64-10.44,2.71,4.24,8.11,5.75,10.64,10.44Z"/>
        <path class="st55" d="M411.46,940.71c-7.4-.69-6.86-9.08-12.17-12.07-.01-6.29,10.17,10.22,12.17,12.07Z"/>
        <path class="st26" d="M824.22,819.2c-7.29-1.14-13.99-6.81-18.79-13.06,5,.11,5.06,5.95,9.61,6.79.84.18.91,1.01,1.32,1.56,2.89,3.4,3.47-2.14,7.87,4.7h-.01Z"/>
        <path class="st30" d="M669,862.09c2.97-1.83-6.97-3.6-8.47-2.1-.55.3-.89.14-.98-.33,10.31-5.9,4.46-1.44,12.56,1.08,4.62,1.76-1.39,6.91-4.59,6.24,3.44-2.35,4.9-1.56,1.49-4.89h-.01Z"/>
        <path class="st37" d="M469.13,1199.02c-16.54,2.86-10.25-5.5.88-7.83-1.37,4.72-17.63,6.82-.88,7.83Z"/>
        <path class="st17" d="M401.42,851.32c.71-1.99,1.3-3.63,2.17-6.08,2.09,4.26,4.12,7.69,6.55,11.01-4.89.63-5.41.16-5.38-4.54.01-1.35-.2-1.38-3.34-.39Z"/>
        <path class="st57" d="M882.25,805.08c-6.62,4.52-13.55,3.3-21.02,4.66,2.58-.98,5.61-4.04,8.02-3.91,3.04,4.38,8.63-1.63,13-.74h0Z"/>
        <path class="st55" d="M820.65,824.49c2.53,2.19,5.8,3.15,8.91,5.24-8.1,2.94-21.33-14.92-8.91-5.24Z"/>
        <path class="st54" d="M832.03,1117.05c.14,7.54-.13,15.72-3.71,22.61,1.49-2.87-1.46-10.47,1.37-11,1.71-2.75.35-8.21,2.34-11.62h0Z"/>
        <path class="st55" d="M885.23,896.75c-5.45.7-8.35,5.43-12.55,8.3.32-4.83,11.84-8.87,7.42-10.78,1.28-1.01,2.3-2.12,4.14-1.59-2.79,2.2.85,2.36.99,4.07h0Z"/>
        <path class="st39" d="M863.23,795.07c-2.84-2.18-9.33-2.21-8.85-5.62,1.28-4.02-4.85-5.35-3.63-9.82,3.84,6.07,6.74,10.99,12.49,15.44h-.01Z"/>
        <path class="st42" d="M414.32,776.92c-4.53.41-11.44-8.76-13.66-1.37-3.42-11.41,5.52.77,5.59-5.61.82,3.88,8.94,5.42,8.07,6.98Z"/>
        <path class="st39" d="M695.02,1019.46c4.83-2.27,16.64,1.4,14.28-7.73-.13-.93-1.24-1.92.24-2.91,6.1,11.29-6.83,11.18-14.52,10.64h0Z"/>
        <path class="st40" d="M424.42,912.14c6.27,1.87,12.5,3.34,16.39,9.83-5.03-5.03-12.21-4.69-16.39-9.83h0Z"/>
        <path class="st54" d="M795.75,866.76c-1.49.99-1.88,2.01-1.16,3.07-2.51-.2-8.13,1.74-4.7-1.76-7.55-2.65,2.34-3.1,5.86-1.31Z"/>
        <path class="st23" d="M396.59,822.95c-3.22-.18-3.45-.22-3.06,2.7-3.77-2.29-8.44-12.43-.66-10.32-.14,1.87-4.96,3.31-.72,6.79,1.93-.37,2.56-2.1,4.44.83Z"/>
        <path class="st56" d="M854.05,824.72c4.64.61,3.79,6.48,8.95,6.32,6.75,1.51-1.93,7.75-8.95-6.32Z"/>
        <path class="st37" d="M823.83,1218.53c2.84.35,6.5.48,3.71-2.84,2.01.76,7.07,1.34,4.44-1.66,1.72-.25,3.07,1.95,4.62.05,3.26-.04-4.59,5.43-7.08,2.43,3.84,4.67-3.74,4.41-5.69,2.02h0Z"/>
        <path class="st22" d="M396.43,905.43c4.51,4.52.98,10.85,0,16-1.37-5.29,1.2-10.65,0-16Z"/>
        <path class="st37" d="M837.58,870.4c-3.52-2.65-7.51-4.8-9.85-7.31,3.64-1.55,8.38,3.24,9.85,7.31Z"/>
        <path class="st22" d="M830.86,881.78c2.42-6.14-4.81-8.68-4.52-13.87,2.76,1.26,2.32,5.46,5.42,6.8,2.09,1.59.42,5.08-.9,7.06h0Z"/>
        <path class="st57" d="M865.21,953.75c-.57-6.29.61-8.7,5.04-9.57-1.56,3.41-2.81,6.56-5.04,9.57Z"/>
        <path class="st42" d="M836.22,1085.98c-2.4-2.84,3.46-5.89,4.21-9.17,5.24-2.9-2.49,7.93-4.21,9.17Z"/>
        <path class="st40" d="M437.55,778.98c-3.15,6.05-.56-3.2-.75-6.29,2.84,2.71,5.53,12.63.75,6.29Z"/>
        <path class="st48" d="M849.99,757.08c-7.05,2.66-13.52,1.24-4.81-5.24-3.72,8.43-.7,2.98,4.81,5.24Z"/>
        <path class="st50" d="M782.5,826.18c.01-3.5,1.03-6.46,4.03-8.56.63,3.74-.25,6.77-4.03,8.56Z"/>
        <path class="st34" d="M526.99,1019.98c.82-3.6.53-6.83-2.24-9.74,5.88,2.61,6.67,6.16,2.24,9.74Z"/>
        <path class="st34" d="M402.57,790.54c-2.78,1.18-8.96-5.06-6.21-7.26,1.23-1.8,3.46,6.18,6.21,7.26Z"/>
        <path class="st17" d="M427.77,942.86c1.25-3.27,3.06-6.09,6.75-8.3-1.06,4.29-3.57,6.56-6.75,8.3Z"/>
        <path class="st39" d="M816.75,893.17c-5.01-1.11-7.65-4.21-8.39-9.74,2.15,4.01,4.82,6.86,8.39,9.74Z"/>
        <path class="st18" d="M518.9,1099.35c2.2-8.79.16,7.83,2.13,11.55-2.67-3.53-2.13-7.58-2.13-11.55Z"/>
        <path class="st28" d="M385.65,798.06c-.61-2.58-.92-5.12.41-7.58,1.35.77-.08,3.21,2.32,3.08.24,1.21-2.18,2.92-2.73,4.5Z"/>
        <path class="st29" d="M823.44,903.61c2.47,1.27,4.95,2.54,8.02,4.11-5.21,1.76-5.68-.61-8.02-4.11Z"/>
        <path class="st53" d="M820.99,962.73c1.34-5.36,5.05-8.18,7.96-11.55-1.89,4.05-4.87,7.36-7.96,11.55Z"/>
        <path class="st36" d="M834.69,894.13c2.54-1.75,6.37-1.76,6.46-6.23,3.37,3.99-2.94,6.79-6.46,6.23Z"/>
        <path class="st23" d="M817.14,876.11c-5.53-1.12-.85-5-4.26-7.63,4.81.46,1.75,4.65,4.26,7.63Z"/>
        <path class="st15" d="M829.08,891.42c2.42-.5,4.8-1.12,7.09-2.08,3.63,3.84-5.12,2.34-7.09,2.08Z"/>
        <path class="st6" d="M514.6,1136.28c-1.25-2.17,5.26-2.52,7.14-2.12-2.3,1.04-4.64,1.86-7.14,2.12Z"/>
        <path class="st1" d="M849.32,767.38c-.09-1.06-2.28-3.53.91-3.5.51,0-.44-2.05,1.06-1.23,1.06.69-.82,4.35-1.97,4.73Z"/>
        <path class="st31" d="M516.33,1049.16c-.12-2.68,1.52-4.58,2.04-7.56.69,3.21-.03,5.53-2.04,7.56Z"/>
        <path class="st49" d="M913.28,835.24c2.22,2.87-.57,6.96-2.47,9.54.51-3.28,3.31-5.94,2.47-9.54Z"/>
        <path class="st46" d="M851.77,1026.03c-1.11-2.86.59-6.35,1.41-9.25-.26,3.12-.5,6.23-1.41,9.25Z"/>
        <path class="st16" d="M813.07,865.72c-1.36-.04-2.05,3.72-3.09-.77.34-1.33,4.15-.71,3.09.77Z"/>
        <path class="st32" d="M489.01,1185.21c-1.61-1.6,2.5-3.44,4.25-4.02-.46,2.59-3.27,2.35-4.25,4.02Z"/>
        <path class="st25" d="M414.32,776.92c1.69-1.53,4.4.65,5.87,1.87-2.08-.25-4.07-.75-5.87-1.87Z"/>
        <path class="st45" d="M813.07,865.72c-.21-1.64,3.68-1.32,5.45-.22-2.12.28-3.76.54-5.45.22Z"/>
        <path class="st12" d="M439.04,902.17c2.65,1.59-2.52,1.68-4.14,2.04,1.32-.84,2.57-1.78,4.14-2.04Z"/>
        <path class="st35" d="M499.68,940.84c3.47,1.23-1.66,1.35-3.32,1.91.85-1.15,2.01-1.66,3.32-1.91Z"/>
        <path class="st11" d="M413.29,904.9c1.21-1.21,3.22,1.44,4.68,1.87-1.88,0-3.47-.52-4.68-1.87Z"/>
        <path class="st21" d="M731.16,890.64c1.17-.38,2.1-.28,3.06-.07.1,2.65-2.41,1.98-3.06.07Z"/>
        <path class="st47" d="M386.78,784.18c.44,2.05.52,3.33,0,4.84-1.33-1.47-1.2-2.77,0-4.84Z"/>
        <path class="st21" d="M864.44,900.63c-.36.88-2.71.93-2.6-.19.11-1.45,2.43-1.1,2.6.19Z"/>
        <path class="st0" d="M395.16,827.18c1.43-.47,2.22,1.53,3.59.88-.21,2.16-3.24.78-3.59-.88Z"/>
        <path class="st13" d="M664.66,1016.34c1.19-1.49,3.14-.97,4.64-1.63-1.31,1.09-3.11,1.54-4.64,1.63Z"/>
        <path class="st14" d="M669,862.09c.34.34.68.68,1.01,1.02-2.63.97-4.96-.41-1.01-1.02Z"/>
        <path class="st52" d="M536.1,854.99c-1.07,1.41-2.34-.84-3.13-2.13,1.5.45,2.39,1.17,3.13,2.13Z"/>
        <path class="st19" d="M439.21,854.09c-1.46-.93.1-2.09,1.15-3.13.03,1.49-.31,2.4-1.15,3.13Z"/>
        <path class="st4" d="M449.54,825.9c1.13.68,1.94,2.52.38,2.52-1-.57-.64-1.42-.38-2.52Z"/>
        <path class="st38" d="M850.99,940.84c-.54-1.23-.69-2.05-.23-3.29,1.11,1.02,1.12,1.87.23,3.29Z"/>
        <path class="st8" d="M502.31,1070.4c1.53-.14,1.17,1.62,1.17,2.54-.74-.71-1.38-1.43-1.17-2.54Z"/>
        <path class="st40" d="M820.32,1216.23c1.37-.7,3.26.7,2.11,1.67-.98-.01-1.42-.85-2.11-1.67Z"/>
        <path d="M811.3,1113.12c.17,1.17.63,2.32-.64,3.11-1.39-.31-.9-2.76.64-3.11Z"/>
        <path class="st5" d="M733.31,853.87c-12.59,9.72,2.25-14.4,9.28-4.16,1.99,6.74-7.62-1.59-9.28,4.16Z"/>
        <path class="st20" d="M733.31,853.87c1.16-7.97,11.68-.53,3.16.67-1.02-.37-2.56,1.68-3.16-.67Z"/>
        <path class="st3" d="M775.02,908.64c-.8-1.22-4.72-1.89-2.58-3.56,1.21-4.16-11.99-6.45-9.04-9.45,14.43,5.96,3.48-3-2.8-5.29,1.34-5.44,10.03,6.06,12.25,2.8-4.24-3.74-8.52-10.23-14.77-11.74-4.92-4.84,5.32-.44,6.62-.17.52-1.47-2.44-1.99-1.55-3.48,5.02-.06,8.51,7.5,14.54,7.04,3.49-.69-1.12,4.73,4.3,1.41,1.66-.84-7.73-7.39.19-6.08,2.35,1.39,16.57,13.44,11.31,14.45-1.25,3.6,1.73,8.06-4.49,6.02,5.3,2.95-1.87,5.74-3.58,8.45-.52,1.05-1.66,1.11-2.83.82-1.93-.48-3.67-1.35-5.39-2.31-1.55-1.31-1,1.63-2.17,1.08h0Z"/>
        <path class="st45" d="M775.02,908.64c.65-.5.28-3.09,2.17-1.08-3.13.52,4.52,3.79,5.01,5.74-2.69-1.09-5.18-2.48-7.18-4.67h0Z"/>
        <path d="M762.68,887.97c-2.51-.8-4.34-1.39-6.17-1.97,1.81-2.97,2.38-2.84,6.17,1.97Z"/>
        <path d="M761.79,889.22c-.67.09-1.22.31-1.19,1.14-.88-.87-2-1.01-3.07-.71-1.35.38-2.01-.61-2.02-1.36.86-1.83,4.79.13,6.27.93h.01Z"/>
        <path class="st45" d="M790.09,901.61c-1.26-.41-2.18-1.2-3.28-2.67,1.84.22,5.48,2.15,3.28,2.67Z"/>
        <path d="M763.4,895.64c-.95,1.22-2.82.21-3.92-1.5,1.67.31,2.87.59,3.92,1.5Z"/>
        <path class="st45" d="M770.21,896.87c.63.68,1.38,1.28,1.35,2.5-1.96-.14-1.88-1.24-1.35-2.5Z"/>
        <path class="st11" d="M832.98,1066.74c-1.37,1.06-2.41,1.88-3.46,2.69.77-1.15,1.13-2.81,3.46-2.69Z"/>
        <path class="st45" d="M778.82,890.39c7.14-2.66,6-5.2,10.85,2.34-3.69-.74-7.46-.59-10.85-2.34Z"/>
        <path class="st45" d="M776.38,887.36c-4.73,3.83-8.4-3.65-10.66-7.62,3.45,2.75,6.52,5.85,10.66,7.62Z"/>
        <path class="st45" d="M776.53,905.75c-3.55-2.67-3.37-6.96.64-14.44.93,5.36-3.37,9.76-.64,14.44Z"/>
      </g>
    </g>
  </g>
  <g class="st27">
    <g class="st27">
      <path class="st33" d="M133.9,278.5v-32.22h144.98l16.11-16.11v-16.11h-161.09v-56.38l40.27-40.27h169.14v32.22h-144.98l-16.11,16.11v16.11h161.09v56.38l-40.27,40.27h-169.14Z"/>
      <path class="st33" d="M375.53,278.5V117.42h48.33v161.09h-48.33Z"/>
      <path class="st33" d="M512.45,278.5l-56.38-56.38v-104.71h48.33v96.65l32.22,32.22h128.87v32.22h-153.03Z"/>
      <path class="st33" d="M697.7,278.5v-104.71l56.38-56.38h153.03v161.09h-48.33v-32.22h-112.76v32.22h-48.33ZM858.79,214.07v-64.44h-80.54l-32.22,32.22v32.22h112.76Z"/>
      <path class="st33" d="M1019.88,278.5v-128.87h-80.54v-32.22h209.41v32.22h-80.54v128.87h-48.33Z"/>
    </g>
  </g>
  <g class="st27">
    <g class="st27">
      <path class="st33" d="M133.42,455.8v-28h125.98l14-14v-14h-139.98v-48.99l35-35h146.98v28h-125.98l-14,14v14h139.98v48.99l-35,35h-146.98Z"/>
      <path class="st33" d="M343.4,455.8v-139.98h181.98v48.99l-21,21h-21v-42h-97.99v83.99h90.99l-28,28h-104.99Z"/>
      <path class="st33" d="M553.37,455.8v-90.99l48.99-48.99h132.98v90.99l-48.99,48.99h-132.98ZM665.35,427.81l28-28v-55.99h-69.99l-28,28v55.99h69.99Z"/>
      <path class="st33" d="M763.34,455.8v-139.98h181.98v48.99l-21,21h-14l35,35v35h-41.99v-28l-14-14h-83.99v41.99h-41.99ZM875.33,385.81l28-28v-14h-97.99v42h69.99Z"/>
      <path class="st33" d="M973.31,455.8v-90.99l48.99-48.99h132.98v28h-111.99l-28,28h118.98l-28,28h-90.99v28h139.98v28h-181.98Z"/>
    </g>
  </g>
  <g class="st27">
    <path class="st48" d="M1426.16,695.29v-117.23h527.53l58.61-58.61v-58.61h-586.15v-205.15l146.54-146.54h615.45v117.23h-527.53l-58.62,58.61v58.61h586.15v205.15l-146.54,146.54h-615.45Z"/>
    <path class="st48" d="M2305.38,695.29V109.14h175.84v586.15h-175.84Z"/>
    <path class="st48" d="M2803.6,695.29l-205.15-205.15V109.14h175.84v351.69l117.23,117.23h468.92v117.23h-556.84Z"/>
    <path class="st48" d="M3477.67,695.29v-380.99l205.15-205.15h556.84v586.15h-175.84v-117.23h-410.3v117.23h-175.84ZM4063.82,460.83v-234.46h-293.07l-117.23,117.23v117.23h410.3Z"/>
    <path class="st48" d="M4649.96,695.29V226.37h-293.07v-117.23h761.99v117.23h-293.07v468.92h-175.84Z"/>
  </g>
  <g class="st27">
    <g class="st27">
      <path class="st33" d="M1424.45,1340.42v-101.87h458.41l50.93-50.93v-50.93h-509.35v-178.27l127.34-127.34h534.81v101.87h-458.41l-50.94,50.93v50.93h509.35v178.27l-127.34,127.34h-534.81Z"/>
      <path class="st33" d="M2188.47,1340.42v-509.35h662.15v178.27l-76.4,76.4h-76.4v-152.8h-356.54v305.61h331.08l-101.87,101.87h-382.01Z"/>
      <path class="st33" d="M2952.49,1340.42v-331.08l178.27-178.27h483.88v331.08l-178.27,178.27h-483.88ZM3359.97,1238.55l101.87-101.87v-203.74h-254.67l-101.87,101.87v203.74h254.67Z"/>
      <path class="st33" d="M3716.51,1340.42v-509.35h662.15v178.27l-76.4,76.4h-50.93l127.34,127.34v127.34h-152.8v-101.87l-50.93-50.93h-305.61v152.8h-152.8ZM4123.99,1085.75l101.87-101.87v-50.93h-356.54v152.8h254.67Z"/>
      <path class="st33" d="M4480.53,1340.42v-331.08l178.27-178.27h483.88v101.87h-407.48l-101.87,101.87h432.95l-101.87,101.87h-331.08v101.87h509.35v101.87h-662.15Z"/>
    </g>
  </g>
  <g class="st27">
    <g class="st27">
      <path class="st33" d="M293.43,559.83c-6.49,0-10.57,3.52-10.57,12.8v13.91h-19.29v-12.61c0-20.78,10.39-32.65,30.42-32.65s30.42,11.87,30.42,32.65c0,40.81-40.63,56.03-40.63,77.36,0,.93,0,1.85.19,2.78h38.59v18.55h-58.99v-15.95c0-38.22,40.44-44.52,40.44-82,0-11.69-4.08-14.84-10.57-14.84Z"/>
      <path class="st33" d="M335.35,573.93c0-20.78,10.95-32.65,30.98-32.65s30.98,11.87,30.98,32.65v67.53c0,20.78-10.95,32.65-30.98,32.65s-30.98-11.87-30.98-32.65v-67.53ZM355.76,642.76c0,9.28,4.08,12.8,10.57,12.8s10.57-3.53,10.57-12.8v-70.12c0-9.28-4.08-12.8-10.57-12.8s-10.57,3.52-10.57,12.8v70.12Z"/>
    </g>
  </g>
  <g class="st27">
    <g class="st27">
      <path class="st33" d="M922.52,559.83c-6.49,0-10.57,3.52-10.57,12.8v13.91h-19.29v-12.61c0-20.78,10.39-32.65,30.42-32.65s30.42,11.87,30.42,32.65c0,40.81-40.63,56.03-40.63,77.36,0,.93,0,1.85.19,2.78h38.59v18.55h-58.99v-15.95c0-38.22,40.44-44.52,40.44-82,0-11.69-4.08-14.84-10.58-14.84Z"/>
      <path class="st33" d="M1026.03,542.76v17.81l-30.05,112.05h-20.41l29.87-111.31h-40.63v-18.55h61.22Z"/>
    </g>
  </g>
</svg>