<?xml version="1.0" encoding="UTF-8"?>
<svg id="Layer_1" xmlns="http://www.w3.org/2000/svg" version="1.1" viewBox="0 0 153.61 311.8">
  <!-- Generator: Adobe Illustrator 30.6.0, SVG Export Plug-In . SVG Version: 2.1.4 Build 109)  -->
  <path d="M29.21,311.8h93.12c-.99-11.63-1.82-23.68.13-35.73,3.22-19.86,16.17-37.11,22.01-63.77,3.12-14.24-5.67-24.01-6.77-32.14-2.81-20.76-2.79-41.18.87-61.91l12.61-71.24c2.35-13.29,5.74-30.38-5.04-34.11-3.81-1.32-8.71-.88-12,2.3-2.55,2.46-4.81,6.5-5.76,10.24l-21.64,85.17c-2.06,8.1-7.05,13.92-12.56,11.49-1.71-.75-4.06-3.61-4.56-6.12-7.13-35.37-14.3-70.22-23.55-104.91C63.97,3.19,57.5-1.07,50.74.23c-7.09,1.36-10.97,8.06-9.64,15.63l12.06,68.64,7.12,42.77c-4.08-3.96-6.01-8.07-10.39-10.59-8.89-5.1-21.53.22-23.66,10.38-1.18,5.6.59,11.14,1.68,16.86-5.67-3.36-10.84-5.15-16.3-3.06C.02,145.3-.66,160.07.31,173.94c1.25,17.79,2.67,34.93,5.96,52.47,2.63,14.02,8.25,26.61,14.88,39.06,5.01,9.42,7.86,18.52,7.71,29.37l.35,16.96Z"/>
</svg>