<?xml version="1.0" encoding="UTF-8"?>
<svg id="Layer_1" xmlns="http://www.w3.org/2000/svg" version="1.1" viewBox="0 0 151.02 309.76">
  <!-- Generator: Adobe Illustrator 30.6.0, SVG Export Plug-In . SVG Version: 2.1.4 Build 109)  -->
  <path d="M25.93,309.76h94.46s-.59-27.07-.59-27.07c-.16-8.24.9-17.29,4.28-24.8,5.4-11.98,11.42-22.87,17.53-34.43,20.08-37.95,1.98-41.83.56-58.73-2.01-23.9-2.7-46.91-3.18-70.96l-1.42-71.24c-.21-10.56-3.52-21.32-12.61-22.43-4.56-.55-9.54,1.16-12.32,5.55-1.88,2.97-3.33,7.65-3.49,11.51l-3.4,81.59-1.33,8.41c-3.08-5.9-4.53-11.01-9.16-14.84-7.17-5.95-19.04-4.48-24.61,3.13-3.04,4.15-3.31,9.3-4.65,15.11-4.66-5.78-9.47-9.47-15.65-9.35s-11.94,2.23-15.12,7.99c-2.61,4.73-2.9,10.34-3.05,16.24-5.63-4.92-11.23-7.05-17.75-4.9-5.04,1.66-9.39,5.85-10.97,12.07-5.99,23.62-3.18,57.69.57,82.91,3.37,22.67,12.82,35.62,18.43,52.57,3.54,10.68,2.99,22.41,3.15,33.61l.3,8.07Z"/>
</svg>