<?xml version="1.0" encoding="UTF-8"?>
<svg id="Layer_1" xmlns="http://www.w3.org/2000/svg" version="1.1" viewBox="0 0 185.96 315.66">
  <!-- Generator: Adobe Illustrator 30.6.0, SVG Export Plug-In . SVG Version: 2.1.4 Build 109)  -->
  <path d="M176.22,228.03l-3.79,15.52c-2.38-10.74-11.71-50.79-11.71-50.79l-9.78-30.2c-2.04-6.31-6.29-11.05-12.43-13.36l-9.03-3.39c-4.65-1.75-10.17-3-12.88-7.7-1.31-2.26-2.93-3.88-5.69-4.89-.73-4.76-.41-10.24.46-15.09,6.23-3.65,7.41-9.6,6.29-16.17l-.41-10.68c-.21-5.51-12.85-20.86-29.12-17.03-1.64.39-3.96.41-5.64.39l-4.42,4.94c-.44.5-.69,2.09-.65,2.85-2.78,4.87-3.76,10.37-2.83,16.19,1.11,6.92-1.89,14.94,5.47,30.55.64,1.35,2.6,3.34,3.39,4.66.65,2.25-2.66,5.41-4.19,4.6-1.45-2.37-3.07-2.85-5.36-4.14-3.17-1.78-6.23-4.97-9.2-7.36-6.71-5.18-14.21-10.61-17.46-18.45-2.49-2.31-4.95-7.39-8.62-17.33l-6.43-13.99-2.62-8.6c-2.29-7.52-4.37-14.68-6.38-22.26-.54-2.04-1.85-3.9-1.47-6.34,2.11-13.7-2.03-14.94-2.61-18.37-.33-1.91-.66-3.08-1.48-4.1l2.07-15.14c0-1.29-1.06-2.35-2.36-2.35s-2.36,1.06-2.36,2.35l-2.07,10.23c-.45.09-.87.2-1.27.32L8.35,1.92C7.98.69,6.67-.01,5.44.35c-1.23.37-1.94,1.68-1.57,2.91l3.62,12.08c-3.41,3.37-4.58,9.17-7.48,15.68,1.82,5.82,5.43,10.33,9,15.19-1.49,2.27-5.38,5.34-5.46,8.44.08,7.69,1.64,15.35,4.6,22.27,2.16,5.04,4.21,9.6,5.53,15.01,2.09,8.55,11.53,33.47,19.93,44.81,4.36,5.88,7.04,13.41,10.89,19.76,4.12,6.79,5.65,13.91,6.28,21.74l1.19,14.8,3.36,53.15c.35,5.55-3.23,11.29-2.19,17.07-2.95,7.01-4.28,13.79-5.45,21.25-1.63,10.42-2.57,20.76-3.12,31.14h101.62c.48-5.36-.25-10.4-1.65-15.72-2.2-8.38-2.46-16.91-3.08-25.58l-.58-8.22c-2.66-21.27-5.26-42.01-4.68-63.47,4.45,9.4,5.5,18.5,8.33,27.76,3.3,10.79,8.69,20.39,13.12,30.74,1.23,2.88,2.67,6.89,1.28,9.71-1.87,3.82-5.47,7.17-6.28,11.42-.85,4.44-.22,9.27,0,13.79l4.15-.22c.79,2.08,4.49,5.41,6.88,4.38l10.2-4.39c1.36-.58,3.26-3.35,3.96-4.66-1.79-4.28-1.99-7.39-2.27-12.02-.16-2.75,1.34-10,2.7-12.65l7.68-18.97v-43.78l-9.74,24.24ZM115.65,247.75v12.18h-40.41v-11.21l18.64-30.09c3.45-5.52,5.81-10.01,7.1-13.46,1.28-3.45,1.92-6.84,1.92-10.17,0-3-.66-5.3-1.98-6.88-1.32-1.58-3.23-2.38-5.71-2.38s-4.39.79-5.71,2.38c-1.32,1.58-1.98,3.88-1.98,6.88v5h-12.27v-4.02c0-6.99,1.78-12.47,5.35-16.45,3.57-3.98,8.48-5.97,14.73-5.97s11.3,1.87,14.91,5.6c3.61,3.74,5.41,8.89,5.41,15.47,0,4.63-.82,9.16-2.47,13.58-1.64,4.43-4.59,10.09-8.84,17l-13.95,22.54h25.25Z"/>
</svg>