<?xml version="1.0" encoding="UTF-8"?>
<svg id="Layer_1" xmlns="http://www.w3.org/2000/svg" version="1.1" viewBox="0 0 309.76 151.02">
  <!-- Generator: Adobe Illustrator 30.6.0, SVG Export Plug-In . SVG Version: 2.1.4 Build 109)  -->
  <path d="M0,125.09V30.63s27.07.59,27.07.59c8.24.16,17.29-.9,24.8-4.28,11.98-5.4,22.87-11.42,34.43-17.53,37.95-20.08,41.83-1.98,58.73-.56,23.9,2.01,46.91,2.7,70.96,3.18l71.24,1.42c10.56.21,21.32,3.52,22.43,12.61.55,4.56-1.16,9.54-5.55,12.32-2.97,1.88-7.65,3.33-11.51,3.49l-81.59,3.4-8.41,1.33c5.9,3.08,11.01,4.53,14.84,9.16,5.95,7.17,4.48,19.04-3.13,24.61-4.15,3.04-9.3,3.31-15.11,4.65,5.78,4.66,9.47,9.47,9.35,15.65s-2.23,11.94-7.99,15.12c-4.73,2.61-10.34,2.9-16.24,3.05,4.92,5.63,7.05,11.23,4.9,17.75-1.66,5.04-5.85,9.39-12.07,10.97-23.62,5.99-57.69,3.18-82.91-.57-22.67-3.37-35.62-12.82-52.57-18.43-10.68-3.54-22.41-2.99-33.61-3.15l-8.07-.3Z"/>
</svg>