<?xml version="1.0" encoding="UTF-8"?>
<svg id="Layer_1" xmlns="http://www.w3.org/2000/svg" version="1.1" viewBox="0 0 311.8 153.61">
  <!-- Generator: Adobe Illustrator 30.6.0, SVG Export Plug-In . SVG Version: 2.1.4 Build 109)  -->
  <path d="M0,124.4V31.28c11.63.99,23.68,1.82,35.73-.13,19.86-3.22,37.11-16.17,63.77-22.01,14.24-3.12,24.01,5.67,32.14,6.77,20.76,2.81,41.18,2.79,61.91-.87l71.24-12.61c13.29-2.35,30.38-5.74,34.11,5.04,1.32,3.81.88,8.71-2.3,12-2.46,2.55-6.5,4.81-10.24,5.76l-85.17,21.64c-8.1,2.06-13.92,7.05-11.49,12.56.75,1.71,3.61,4.06,6.12,4.56,35.37,7.13,70.22,14.3,104.91,23.55,7.87,2.1,12.13,8.57,10.84,15.33-1.36,7.09-8.06,10.97-15.63,9.64l-68.64-12.06-42.77-7.12c3.96,4.08,8.07,6.01,10.59,10.39,5.1,8.89-.22,21.53-10.38,23.66-5.6,1.18-11.14-.59-16.86-1.68,3.36,5.67,5.15,10.84,3.06,16.3-4.44,11.59-19.2,12.28-33.08,11.3-17.79-1.25-34.93-2.67-52.47-5.96-14.02-2.63-26.61-8.25-39.06-14.88-9.42-5.01-18.52-7.86-29.37-7.71l-16.96-.35Z"/>
</svg>