<?xml version="1.0" encoding="UTF-8"?>
<svg id="Layer_1" xmlns="http://www.w3.org/2000/svg" version="1.1" viewBox="0 0 337.96 265.92">
  <!-- Generator: Adobe Illustrator 30.4.0, SVG Export Plug-In . SVG Version: 2.1.4 Build 226)  -->
  <defs>
    <style>
      .st0 {
        fill: #fff;
      }
    </style>
  </defs>
  <g id="xomDju.tif">
    <path class="st0" d="M337.93,77.13c.78,15.83-12.66,26.72-18.88,38.49-2.69,5.09-3.58,11.55-5.45,17.09-5.88,19.47-20,34.16-38.83,41.44,0,0-30.75,11.7-51.85,21.87-21.1,10.18-42.97,46.3-42.97,46.3-8.64,11.38-20.3,19.93-34.18,22.7-23.44,4.69-38.79-9.72-49.4-30.06C80.72,204.98,30.85,169.04,0,157c8.94-14.98,17.78-33.78,17.78-33.78l25.58-50.27c20.58,12.26,40.22,23.79,61.41,33.95,33,15.83,56.96,12.95,91.23,8.15,23.75-3.32,46.21-2.38,70.95-7.76,5.24-1.14,10.2-3.63,13.88-7.35l18.47-18.7c7.19-7.28,11.28-22.84,24.2-21.31,8.4,1,14.02,8.88,14.43,17.19ZM129.82,191.58c-10.21,2.74-19.83-1.61-26.6-9.28-6.96-7.89-17.65-18.15-21.06-12.68-3.37,5.4,5.66,7.22,15.01,18.22,6.76,7.95,16.14,12.82,26.7,12.82,8.54,0,17.3-3.99,22.01-10.88.73-1.07-.59-4.56-1.77-5.09-4.4-2-7.08,4.96-14.3,6.9Z"/>
  </g>
  <rect class="st0" x="98.62" y="42.52" width="69.58" height="15.26" rx="7.63" ry="7.63" transform="translate(172.67 187.15) rotate(-126.59)"/>
  <rect class="st0" x="152.59" y="27.15" width="69.58" height="15.26" rx="7.63" ry="7.63" transform="translate(149.37 221.54) rotate(-89.01)"/>
  <rect class="st0" x="205.66" y="40.62" width="69.58" height="15.26" rx="7.63" ry="7.63" transform="translate(65.24 219.84) rotate(-55.75)"/>
</svg>