<?xml version="1.0" encoding="UTF-8"?>
<svg id="Layer_1" xmlns="http://www.w3.org/2000/svg" version="1.1" viewBox="0 0 249.78 226.87">
  <!-- Generator: Adobe Illustrator 30.4.0, SVG Export Plug-In . SVG Version: 2.1.4 Build 226)  -->
  <defs>
    <style>
      .st0 {
        fill: #fff;
      }
    </style>
  </defs>
  <path class="st0" d="M110.67,170.08v-103.69s-11.07,0-11.07,0v109.96c-3.48,2.45-7.42,4.04-11.56,5.06-11.72,2.58-23.37,1.13-33.05-6.5l.35-97.45-11.07-.02-.34,96.63c-5.78,2.84-14.52,3.49-20.98,2.64-11.81-1.56-19.31-10.24-21.75-21.61C.44,151.61,0,148.21,0,144.5l.11-76.49c.02-15.57,11.01-33.97,27.19-38.17,6.56-1.7,13.21-1.79,19.95-1.04,8.5-10.18,18.53-16.67,32.03-17.58,8.06-.67,15.92,1,23.6,3.91,5.36-7.57,13.3-12.57,22.36-14.41,10.96-2.01,22.1.22,31.43,6.3,4.03,2.63,7.55,5.67,11.05,9.06,10.26-1.98,21.78-3.24,31.85.14,3.39,1.53,6.57,3.1,9.73,5.03,9.48,5.79,14.3,14.85,16.37,25.62.82,4.6,1.17,9.07,1.18,13.83l-11.01,93.5c-2.82,10.62-8.39,20.02-19.71,22.13-3.5.65-6.99,1.03-10.59.55-10.44-1.38-18.62-10.09-19.55-20.58l.03-91.23c0-4.23,1.54-8.1,3.83-11.39l-7.76-7.79c-2.25,2.36-3.79,5.17-4.98,8.19-1.39,3.62-2.02,7.24-2.19,11.22v91c-.96,10.61-9.34,19.47-19.96,20.61-6.1.65-15.7-.49-21.04-3.76-1.21-.89-2.14-1.72-3.26-3.06Z"/>
  <path class="st0" d="M151.15,224.57c-5.68,1.22-11.04,2.03-16.71,2.27-3.36.14-6.52-.14-9.65-1.17-5.48-1.81-9.13-6.46-9.67-12.22-.81-8.7,3.79-18.33,8.06-25.95,3.95.43,7.71.82,11.71.55,10.43-.7,19.7-6.33,25.58-15.04,5.67,8.36,14.42,13.92,24.43,14.93,5.5.56,10.82-.09,16.12-1.45,8.3-2.29,15.06-7.52,19.5-14.88,2.92-4.67,4.69-9.72,6.16-15.12l7.88-66.53c-.08-.53.05-.53.3-.2,3.78,12.76,7.1,25.42,9.74,38.46,4.24,20.89,8.2,49.41,1.92,69.63-4.73,15.24-15.62,23.9-31.83,23.49-4.33-1.85-8.73-2.88-13.41-3.41-10.07-1.03-21.3.46-31.24,2.6l-18.88,4.06Z"/>
</svg>